; NON-PLATED HOLES START AT T1
; THROUGH (PLATED) HOLES START AT T100
M48
INCH
T100C0.038000
T101C0.032000
T102C0.036000
T103C0.027559
%
T100
X005052Y002031
X004052Y002031
X011052Y002031
X007052Y002031
X006052Y014031
X004052Y014031
X010052Y002031
X012052Y014031
X006052Y002031
X020052Y004031
X011052Y014031
X013052Y002031
X007052Y014031
X012052Y002031
X010052Y014031
X005052Y014031
X013052Y014031
X019052Y004031
T101
X020052Y010031
X019052Y010031
X019052Y007031
X020052Y007031
T102
X014052Y005031
X010052Y011031
X007052Y005031
X014052Y011031
X006052Y005031
X008052Y011031
X008052Y005031
X013052Y011031
X011052Y011031
X015052Y005031
X013052Y005031
X006052Y011031
X004052Y005031
X007052Y011031
X003052Y005031
X012052Y005031
X002052Y011031
X011052Y005031
X009052Y005031
X009052Y011031
X016052Y011031
X003052Y011031
X012052Y011031
X015052Y011031
X004052Y011031
X010052Y005031
X016052Y005031
X005052Y005031
X005052Y011031
X002052Y005031
T103
X015839Y001031
X015052Y001031
T00
M30
