G04 MADE WITH FRITZING*
G04 WWW.FRITZING.ORG*
G04 DOUBLE SIDED*
G04 HOLES PLATED*
G04 CONTOUR ON CENTER OF CONTOUR VECTOR*
%ASAXBY*%
%FSLAX23Y23*%
%MOIN*%
%OFA0B0*%
%SFA1.0B1.0*%
%ADD10C,0.080000*%
%ADD11C,0.088000*%
%ADD12C,0.067000*%
%ADD13C,0.062000*%
%ADD14R,0.080000X0.079972*%
%ADD15R,0.001000X0.001000*%
%LNMASK0*%
G90*
G70*
G54D10*
X1605Y1103D03*
X1505Y1103D03*
X1405Y1103D03*
X1305Y1103D03*
X1205Y1103D03*
X1105Y1103D03*
X1005Y1103D03*
X905Y1103D03*
X805Y1103D03*
X705Y1103D03*
X605Y1103D03*
X505Y1103D03*
X405Y1103D03*
X305Y1103D03*
X205Y1103D03*
X1605Y503D03*
X1505Y503D03*
X1405Y503D03*
X1305Y503D03*
X1205Y503D03*
X1105Y503D03*
X1005Y503D03*
X905Y503D03*
X805Y503D03*
X705Y503D03*
X605Y503D03*
X505Y503D03*
X405Y503D03*
X305Y503D03*
X205Y503D03*
G54D11*
X705Y1403D03*
X605Y1403D03*
X505Y1403D03*
X405Y1403D03*
X1305Y1403D03*
X1205Y1403D03*
X1105Y1403D03*
X1005Y1403D03*
X1305Y203D03*
X1205Y203D03*
X1105Y203D03*
X1005Y203D03*
X705Y203D03*
X605Y203D03*
X505Y203D03*
X405Y203D03*
G54D12*
X1505Y103D03*
X1584Y103D03*
G54D11*
X1905Y403D03*
X2005Y403D03*
G54D13*
X1905Y703D03*
X2005Y703D03*
X2005Y1003D03*
X1905Y1003D03*
G54D14*
X1605Y1103D03*
G54D15*
X1899Y1060D02*
X1910Y1060D01*
X1999Y1060D02*
X2010Y1060D01*
X1895Y1059D02*
X1913Y1059D01*
X1995Y1059D02*
X2013Y1059D01*
X1892Y1058D02*
X1916Y1058D01*
X1992Y1058D02*
X2016Y1058D01*
X1890Y1057D02*
X1918Y1057D01*
X1990Y1057D02*
X2018Y1057D01*
X1889Y1056D02*
X1920Y1056D01*
X1989Y1056D02*
X2020Y1056D01*
X1887Y1055D02*
X1922Y1055D01*
X1987Y1055D02*
X2021Y1055D01*
X1886Y1054D02*
X1923Y1054D01*
X1986Y1054D02*
X2023Y1054D01*
X1884Y1053D02*
X1924Y1053D01*
X1984Y1053D02*
X2024Y1053D01*
X1883Y1052D02*
X1925Y1052D01*
X1983Y1052D02*
X2025Y1052D01*
X1882Y1051D02*
X1926Y1051D01*
X1982Y1051D02*
X2026Y1051D01*
X1881Y1050D02*
X1927Y1050D01*
X1981Y1050D02*
X2027Y1050D01*
X1881Y1049D02*
X1928Y1049D01*
X1981Y1049D02*
X2028Y1049D01*
X1880Y1048D02*
X1929Y1048D01*
X1980Y1048D02*
X2029Y1048D01*
X1879Y1047D02*
X1929Y1047D01*
X1979Y1047D02*
X2029Y1047D01*
X1878Y1046D02*
X1930Y1046D01*
X1978Y1046D02*
X2030Y1046D01*
X1878Y1045D02*
X1931Y1045D01*
X1978Y1045D02*
X2031Y1045D01*
X1877Y1044D02*
X1931Y1044D01*
X1977Y1044D02*
X2031Y1044D01*
X1877Y1043D02*
X1932Y1043D01*
X1977Y1043D02*
X2032Y1043D01*
X1876Y1042D02*
X1932Y1042D01*
X1976Y1042D02*
X2032Y1042D01*
X1876Y1041D02*
X1932Y1041D01*
X1976Y1041D02*
X2032Y1041D01*
X1876Y1040D02*
X1933Y1040D01*
X1976Y1040D02*
X2033Y1040D01*
X1875Y1039D02*
X1933Y1039D01*
X1975Y1039D02*
X2033Y1039D01*
X1875Y1038D02*
X1933Y1038D01*
X1975Y1038D02*
X2033Y1038D01*
X1875Y1037D02*
X1934Y1037D01*
X1975Y1037D02*
X2034Y1037D01*
X1874Y1036D02*
X1934Y1036D01*
X1974Y1036D02*
X2034Y1036D01*
X1874Y1035D02*
X1934Y1035D01*
X1974Y1035D02*
X2034Y1035D01*
X1874Y1034D02*
X1934Y1034D01*
X1974Y1034D02*
X2034Y1034D01*
X1874Y1033D02*
X1935Y1033D01*
X1974Y1033D02*
X2034Y1033D01*
X1874Y1032D02*
X1935Y1032D01*
X1974Y1032D02*
X2035Y1032D01*
X1874Y1031D02*
X1935Y1031D01*
X1974Y1031D02*
X2035Y1031D01*
X1874Y1030D02*
X1935Y1030D01*
X1974Y1030D02*
X2035Y1030D01*
X1874Y1029D02*
X1935Y1029D01*
X1974Y1029D02*
X2035Y1029D01*
X1874Y1028D02*
X1935Y1028D01*
X1974Y1028D02*
X2035Y1028D01*
X1874Y1027D02*
X1935Y1027D01*
X1974Y1027D02*
X2035Y1027D01*
X1874Y1026D02*
X1935Y1026D01*
X1974Y1026D02*
X2035Y1026D01*
X1874Y1025D02*
X1935Y1025D01*
X1974Y1025D02*
X2035Y1025D01*
X1874Y1024D02*
X1935Y1024D01*
X1974Y1024D02*
X2035Y1024D01*
X1874Y1023D02*
X1935Y1023D01*
X1974Y1023D02*
X2035Y1023D01*
X1874Y1022D02*
X1935Y1022D01*
X1974Y1022D02*
X2035Y1022D01*
X1874Y1021D02*
X1935Y1021D01*
X1974Y1021D02*
X2035Y1021D01*
X1874Y1020D02*
X1935Y1020D01*
X1974Y1020D02*
X2035Y1020D01*
X1874Y1019D02*
X1935Y1019D01*
X1974Y1019D02*
X2035Y1019D01*
X1874Y1018D02*
X1935Y1018D01*
X1974Y1018D02*
X2035Y1018D01*
X1874Y1017D02*
X1935Y1017D01*
X1974Y1017D02*
X2035Y1017D01*
X1874Y1016D02*
X1935Y1016D01*
X1974Y1016D02*
X2035Y1016D01*
X1874Y1015D02*
X1935Y1015D01*
X1974Y1015D02*
X2035Y1015D01*
X1874Y1014D02*
X1900Y1014D01*
X1909Y1014D02*
X1935Y1014D01*
X1974Y1014D02*
X2000Y1014D01*
X2009Y1014D02*
X2035Y1014D01*
X1874Y1013D02*
X1898Y1013D01*
X1911Y1013D02*
X1935Y1013D01*
X1974Y1013D02*
X1998Y1013D01*
X2011Y1013D02*
X2035Y1013D01*
X1874Y1012D02*
X1897Y1012D01*
X1912Y1012D02*
X1935Y1012D01*
X1974Y1012D02*
X1997Y1012D01*
X2012Y1012D02*
X2035Y1012D01*
X1874Y1011D02*
X1896Y1011D01*
X1913Y1011D02*
X1935Y1011D01*
X1974Y1011D02*
X1996Y1011D01*
X2013Y1011D02*
X2035Y1011D01*
X1874Y1010D02*
X1895Y1010D01*
X1914Y1010D02*
X1935Y1010D01*
X1974Y1010D02*
X1995Y1010D01*
X2014Y1010D02*
X2035Y1010D01*
X1874Y1009D02*
X1894Y1009D01*
X1914Y1009D02*
X1935Y1009D01*
X1974Y1009D02*
X1994Y1009D01*
X2014Y1009D02*
X2035Y1009D01*
X1874Y1008D02*
X1894Y1008D01*
X1915Y1008D02*
X1935Y1008D01*
X1974Y1008D02*
X1994Y1008D01*
X2015Y1008D02*
X2035Y1008D01*
X1874Y1007D02*
X1893Y1007D01*
X1915Y1007D02*
X1935Y1007D01*
X1974Y1007D02*
X1993Y1007D01*
X2015Y1007D02*
X2035Y1007D01*
X1874Y1006D02*
X1893Y1006D01*
X1916Y1006D02*
X1935Y1006D01*
X1974Y1006D02*
X1993Y1006D01*
X2015Y1006D02*
X2035Y1006D01*
X1874Y1005D02*
X1893Y1005D01*
X1916Y1005D02*
X1935Y1005D01*
X1974Y1005D02*
X1993Y1005D01*
X2016Y1005D02*
X2035Y1005D01*
X1874Y1004D02*
X1893Y1004D01*
X1916Y1004D02*
X1935Y1004D01*
X1974Y1004D02*
X1993Y1004D01*
X2016Y1004D02*
X2035Y1004D01*
X1874Y1003D02*
X1893Y1003D01*
X1916Y1003D02*
X1935Y1003D01*
X1974Y1003D02*
X1993Y1003D01*
X2016Y1003D02*
X2035Y1003D01*
X1874Y1002D02*
X1893Y1002D01*
X1916Y1002D02*
X1935Y1002D01*
X1974Y1002D02*
X1993Y1002D01*
X2016Y1002D02*
X2035Y1002D01*
X1874Y1001D02*
X1893Y1001D01*
X1915Y1001D02*
X1935Y1001D01*
X1974Y1001D02*
X1993Y1001D01*
X2015Y1001D02*
X2035Y1001D01*
X1874Y1000D02*
X1893Y1000D01*
X1915Y1000D02*
X1935Y1000D01*
X1974Y1000D02*
X1993Y1000D01*
X2015Y1000D02*
X2035Y1000D01*
X1874Y999D02*
X1894Y999D01*
X1915Y999D02*
X1935Y999D01*
X1974Y999D02*
X1994Y999D01*
X2015Y999D02*
X2035Y999D01*
X1874Y998D02*
X1894Y998D01*
X1914Y998D02*
X1935Y998D01*
X1974Y998D02*
X1994Y998D01*
X2014Y998D02*
X2035Y998D01*
X1874Y997D02*
X1895Y997D01*
X1913Y997D02*
X1935Y997D01*
X1974Y997D02*
X1995Y997D01*
X2013Y997D02*
X2035Y997D01*
X1874Y996D02*
X1896Y996D01*
X1913Y996D02*
X1935Y996D01*
X1974Y996D02*
X1996Y996D01*
X2013Y996D02*
X2035Y996D01*
X1874Y995D02*
X1897Y995D01*
X1911Y995D02*
X1935Y995D01*
X1974Y995D02*
X1997Y995D01*
X2011Y995D02*
X2035Y995D01*
X1874Y994D02*
X1898Y994D01*
X1910Y994D02*
X1935Y994D01*
X1974Y994D02*
X1998Y994D01*
X2010Y994D02*
X2035Y994D01*
X1874Y993D02*
X1901Y993D01*
X1908Y993D02*
X1935Y993D01*
X1974Y993D02*
X2001Y993D01*
X2007Y993D02*
X2035Y993D01*
X1874Y992D02*
X1935Y992D01*
X1974Y992D02*
X2035Y992D01*
X1874Y991D02*
X1935Y991D01*
X1974Y991D02*
X2035Y991D01*
X1874Y990D02*
X1935Y990D01*
X1974Y990D02*
X2035Y990D01*
X1874Y989D02*
X1935Y989D01*
X1974Y989D02*
X2035Y989D01*
X1874Y988D02*
X1935Y988D01*
X1974Y988D02*
X2035Y988D01*
X1874Y987D02*
X1935Y987D01*
X1974Y987D02*
X2035Y987D01*
X1874Y986D02*
X1935Y986D01*
X1974Y986D02*
X2035Y986D01*
X1874Y985D02*
X1935Y985D01*
X1974Y985D02*
X2035Y985D01*
X1874Y984D02*
X1935Y984D01*
X1974Y984D02*
X2035Y984D01*
X1874Y983D02*
X1935Y983D01*
X1974Y983D02*
X2035Y983D01*
X1874Y982D02*
X1935Y982D01*
X1974Y982D02*
X2035Y982D01*
X1874Y981D02*
X1935Y981D01*
X1974Y981D02*
X2035Y981D01*
X1874Y980D02*
X1935Y980D01*
X1974Y980D02*
X2035Y980D01*
X1874Y979D02*
X1935Y979D01*
X1974Y979D02*
X2035Y979D01*
X1874Y978D02*
X1935Y978D01*
X1974Y978D02*
X2035Y978D01*
X1874Y977D02*
X1935Y977D01*
X1974Y977D02*
X2035Y977D01*
X1874Y976D02*
X1935Y976D01*
X1974Y976D02*
X2035Y976D01*
X1874Y975D02*
X1935Y975D01*
X1974Y975D02*
X2035Y975D01*
X1874Y974D02*
X1934Y974D01*
X1974Y974D02*
X2034Y974D01*
X1874Y973D02*
X1934Y973D01*
X1974Y973D02*
X2034Y973D01*
X1874Y972D02*
X1934Y972D01*
X1974Y972D02*
X2034Y972D01*
X1875Y971D02*
X1934Y971D01*
X1975Y971D02*
X2034Y971D01*
X1875Y970D02*
X1934Y970D01*
X1975Y970D02*
X2034Y970D01*
X1875Y969D02*
X1933Y969D01*
X1975Y969D02*
X2033Y969D01*
X1875Y968D02*
X1933Y968D01*
X1975Y968D02*
X2033Y968D01*
X1876Y967D02*
X1933Y967D01*
X1976Y967D02*
X2033Y967D01*
X1876Y966D02*
X1932Y966D01*
X1976Y966D02*
X2032Y966D01*
X1877Y965D02*
X1932Y965D01*
X1977Y965D02*
X2032Y965D01*
X1877Y964D02*
X1931Y964D01*
X1977Y964D02*
X2031Y964D01*
X1878Y963D02*
X1931Y963D01*
X1978Y963D02*
X2031Y963D01*
X1878Y962D02*
X1930Y962D01*
X1978Y962D02*
X2030Y962D01*
X1879Y961D02*
X1930Y961D01*
X1979Y961D02*
X2030Y961D01*
X1879Y960D02*
X1929Y960D01*
X1979Y960D02*
X2029Y960D01*
X1880Y959D02*
X1928Y959D01*
X1980Y959D02*
X2028Y959D01*
X1881Y958D02*
X1928Y958D01*
X1981Y958D02*
X2028Y958D01*
X1882Y957D02*
X1927Y957D01*
X1982Y957D02*
X2027Y957D01*
X1883Y956D02*
X1926Y956D01*
X1983Y956D02*
X2026Y956D01*
X1884Y955D02*
X1925Y955D01*
X1984Y955D02*
X2025Y955D01*
X1885Y954D02*
X1924Y954D01*
X1985Y954D02*
X2024Y954D01*
X1886Y953D02*
X1922Y953D01*
X1986Y953D02*
X2022Y953D01*
X1887Y952D02*
X1921Y952D01*
X1987Y952D02*
X2021Y952D01*
X1889Y951D02*
X1919Y951D01*
X1989Y951D02*
X2019Y951D01*
X1891Y950D02*
X1917Y950D01*
X1991Y950D02*
X2017Y950D01*
X1893Y949D02*
X1915Y949D01*
X1993Y949D02*
X2015Y949D01*
X1896Y948D02*
X1912Y948D01*
X1996Y948D02*
X2012Y948D01*
X1901Y947D02*
X1908Y947D01*
X2001Y947D02*
X2008Y947D01*
X1899Y760D02*
X1910Y760D01*
X1999Y760D02*
X2010Y760D01*
X1895Y759D02*
X1913Y759D01*
X1995Y759D02*
X2013Y759D01*
X1892Y758D02*
X1916Y758D01*
X1992Y758D02*
X2016Y758D01*
X1890Y757D02*
X1918Y757D01*
X1990Y757D02*
X2018Y757D01*
X1889Y756D02*
X1920Y756D01*
X1989Y756D02*
X2020Y756D01*
X1887Y755D02*
X1922Y755D01*
X1987Y755D02*
X2021Y755D01*
X1886Y754D02*
X1923Y754D01*
X1986Y754D02*
X2023Y754D01*
X1884Y753D02*
X1924Y753D01*
X1984Y753D02*
X2024Y753D01*
X1883Y752D02*
X1925Y752D01*
X1983Y752D02*
X2025Y752D01*
X1882Y751D02*
X1926Y751D01*
X1982Y751D02*
X2026Y751D01*
X1881Y750D02*
X1927Y750D01*
X1981Y750D02*
X2027Y750D01*
X1881Y749D02*
X1928Y749D01*
X1981Y749D02*
X2028Y749D01*
X1880Y748D02*
X1929Y748D01*
X1980Y748D02*
X2029Y748D01*
X1879Y747D02*
X1929Y747D01*
X1979Y747D02*
X2029Y747D01*
X1878Y746D02*
X1930Y746D01*
X1978Y746D02*
X2030Y746D01*
X1878Y745D02*
X1931Y745D01*
X1978Y745D02*
X2031Y745D01*
X1877Y744D02*
X1931Y744D01*
X1977Y744D02*
X2031Y744D01*
X1877Y743D02*
X1932Y743D01*
X1977Y743D02*
X2032Y743D01*
X1876Y742D02*
X1932Y742D01*
X1976Y742D02*
X2032Y742D01*
X1876Y741D02*
X1932Y741D01*
X1976Y741D02*
X2032Y741D01*
X1876Y740D02*
X1933Y740D01*
X1976Y740D02*
X2033Y740D01*
X1875Y739D02*
X1933Y739D01*
X1975Y739D02*
X2033Y739D01*
X1875Y738D02*
X1933Y738D01*
X1975Y738D02*
X2033Y738D01*
X1875Y737D02*
X1934Y737D01*
X1975Y737D02*
X2034Y737D01*
X1874Y736D02*
X1934Y736D01*
X1974Y736D02*
X2034Y736D01*
X1874Y735D02*
X1934Y735D01*
X1974Y735D02*
X2034Y735D01*
X1874Y734D02*
X1934Y734D01*
X1974Y734D02*
X2034Y734D01*
X1874Y733D02*
X1935Y733D01*
X1974Y733D02*
X2034Y733D01*
X1874Y732D02*
X1935Y732D01*
X1974Y732D02*
X2035Y732D01*
X1874Y731D02*
X1935Y731D01*
X1974Y731D02*
X2035Y731D01*
X1874Y730D02*
X1935Y730D01*
X1974Y730D02*
X2035Y730D01*
X1874Y729D02*
X1935Y729D01*
X1974Y729D02*
X2035Y729D01*
X1874Y728D02*
X1935Y728D01*
X1974Y728D02*
X2035Y728D01*
X1874Y727D02*
X1935Y727D01*
X1974Y727D02*
X2035Y727D01*
X1874Y726D02*
X1935Y726D01*
X1974Y726D02*
X2035Y726D01*
X1874Y725D02*
X1935Y725D01*
X1974Y725D02*
X2035Y725D01*
X1874Y724D02*
X1935Y724D01*
X1974Y724D02*
X2035Y724D01*
X1874Y723D02*
X1935Y723D01*
X1974Y723D02*
X2035Y723D01*
X1874Y722D02*
X1935Y722D01*
X1974Y722D02*
X2035Y722D01*
X1874Y721D02*
X1935Y721D01*
X1974Y721D02*
X2035Y721D01*
X1874Y720D02*
X1935Y720D01*
X1974Y720D02*
X2035Y720D01*
X1874Y719D02*
X1935Y719D01*
X1974Y719D02*
X2035Y719D01*
X1874Y718D02*
X1935Y718D01*
X1974Y718D02*
X2035Y718D01*
X1874Y717D02*
X1935Y717D01*
X1974Y717D02*
X2035Y717D01*
X1874Y716D02*
X1935Y716D01*
X1974Y716D02*
X2035Y716D01*
X1874Y715D02*
X1935Y715D01*
X1974Y715D02*
X2035Y715D01*
X1874Y714D02*
X1900Y714D01*
X1909Y714D02*
X1935Y714D01*
X1974Y714D02*
X2000Y714D01*
X2009Y714D02*
X2035Y714D01*
X1874Y713D02*
X1898Y713D01*
X1911Y713D02*
X1935Y713D01*
X1974Y713D02*
X1998Y713D01*
X2011Y713D02*
X2035Y713D01*
X1874Y712D02*
X1897Y712D01*
X1912Y712D02*
X1935Y712D01*
X1974Y712D02*
X1997Y712D01*
X2012Y712D02*
X2035Y712D01*
X1874Y711D02*
X1896Y711D01*
X1913Y711D02*
X1935Y711D01*
X1974Y711D02*
X1996Y711D01*
X2013Y711D02*
X2035Y711D01*
X1874Y710D02*
X1895Y710D01*
X1914Y710D02*
X1935Y710D01*
X1974Y710D02*
X1995Y710D01*
X2014Y710D02*
X2035Y710D01*
X1874Y709D02*
X1894Y709D01*
X1914Y709D02*
X1935Y709D01*
X1974Y709D02*
X1994Y709D01*
X2014Y709D02*
X2035Y709D01*
X1874Y708D02*
X1894Y708D01*
X1915Y708D02*
X1935Y708D01*
X1974Y708D02*
X1994Y708D01*
X2015Y708D02*
X2035Y708D01*
X1874Y707D02*
X1893Y707D01*
X1915Y707D02*
X1935Y707D01*
X1974Y707D02*
X1993Y707D01*
X2015Y707D02*
X2035Y707D01*
X1874Y706D02*
X1893Y706D01*
X1916Y706D02*
X1935Y706D01*
X1974Y706D02*
X1993Y706D01*
X2015Y706D02*
X2035Y706D01*
X1874Y705D02*
X1893Y705D01*
X1916Y705D02*
X1935Y705D01*
X1974Y705D02*
X1993Y705D01*
X2016Y705D02*
X2035Y705D01*
X1874Y704D02*
X1893Y704D01*
X1916Y704D02*
X1935Y704D01*
X1974Y704D02*
X1993Y704D01*
X2016Y704D02*
X2035Y704D01*
X1874Y703D02*
X1893Y703D01*
X1916Y703D02*
X1935Y703D01*
X1974Y703D02*
X1993Y703D01*
X2016Y703D02*
X2035Y703D01*
X1874Y702D02*
X1893Y702D01*
X1916Y702D02*
X1935Y702D01*
X1974Y702D02*
X1993Y702D01*
X2016Y702D02*
X2035Y702D01*
X1874Y701D02*
X1893Y701D01*
X1915Y701D02*
X1935Y701D01*
X1974Y701D02*
X1993Y701D01*
X2015Y701D02*
X2035Y701D01*
X1874Y700D02*
X1893Y700D01*
X1915Y700D02*
X1935Y700D01*
X1974Y700D02*
X1993Y700D01*
X2015Y700D02*
X2035Y700D01*
X1874Y699D02*
X1894Y699D01*
X1915Y699D02*
X1935Y699D01*
X1974Y699D02*
X1994Y699D01*
X2015Y699D02*
X2035Y699D01*
X1874Y698D02*
X1894Y698D01*
X1914Y698D02*
X1935Y698D01*
X1974Y698D02*
X1994Y698D01*
X2014Y698D02*
X2035Y698D01*
X1874Y697D02*
X1895Y697D01*
X1913Y697D02*
X1935Y697D01*
X1974Y697D02*
X1995Y697D01*
X2013Y697D02*
X2035Y697D01*
X1874Y696D02*
X1896Y696D01*
X1913Y696D02*
X1935Y696D01*
X1974Y696D02*
X1996Y696D01*
X2013Y696D02*
X2035Y696D01*
X1874Y695D02*
X1897Y695D01*
X1911Y695D02*
X1935Y695D01*
X1974Y695D02*
X1997Y695D01*
X2011Y695D02*
X2035Y695D01*
X1874Y694D02*
X1898Y694D01*
X1910Y694D02*
X1935Y694D01*
X1974Y694D02*
X1998Y694D01*
X2010Y694D02*
X2035Y694D01*
X1874Y693D02*
X1901Y693D01*
X1908Y693D02*
X1935Y693D01*
X1974Y693D02*
X2001Y693D01*
X2007Y693D02*
X2035Y693D01*
X1874Y692D02*
X1935Y692D01*
X1974Y692D02*
X2035Y692D01*
X1874Y691D02*
X1935Y691D01*
X1974Y691D02*
X2035Y691D01*
X1874Y690D02*
X1935Y690D01*
X1974Y690D02*
X2035Y690D01*
X1874Y689D02*
X1935Y689D01*
X1974Y689D02*
X2035Y689D01*
X1874Y688D02*
X1935Y688D01*
X1974Y688D02*
X2035Y688D01*
X1874Y687D02*
X1935Y687D01*
X1974Y687D02*
X2035Y687D01*
X1874Y686D02*
X1935Y686D01*
X1974Y686D02*
X2035Y686D01*
X1874Y685D02*
X1935Y685D01*
X1974Y685D02*
X2035Y685D01*
X1874Y684D02*
X1935Y684D01*
X1974Y684D02*
X2035Y684D01*
X1874Y683D02*
X1935Y683D01*
X1974Y683D02*
X2035Y683D01*
X1874Y682D02*
X1935Y682D01*
X1974Y682D02*
X2035Y682D01*
X1874Y681D02*
X1935Y681D01*
X1974Y681D02*
X2035Y681D01*
X1874Y680D02*
X1935Y680D01*
X1974Y680D02*
X2035Y680D01*
X1874Y679D02*
X1935Y679D01*
X1974Y679D02*
X2035Y679D01*
X1874Y678D02*
X1935Y678D01*
X1974Y678D02*
X2035Y678D01*
X1874Y677D02*
X1935Y677D01*
X1974Y677D02*
X2035Y677D01*
X1874Y676D02*
X1935Y676D01*
X1974Y676D02*
X2035Y676D01*
X1874Y675D02*
X1935Y675D01*
X1974Y675D02*
X2035Y675D01*
X1874Y674D02*
X1934Y674D01*
X1974Y674D02*
X2034Y674D01*
X1874Y673D02*
X1934Y673D01*
X1974Y673D02*
X2034Y673D01*
X1874Y672D02*
X1934Y672D01*
X1974Y672D02*
X2034Y672D01*
X1875Y671D02*
X1934Y671D01*
X1975Y671D02*
X2034Y671D01*
X1875Y670D02*
X1934Y670D01*
X1975Y670D02*
X2034Y670D01*
X1875Y669D02*
X1933Y669D01*
X1975Y669D02*
X2033Y669D01*
X1875Y668D02*
X1933Y668D01*
X1975Y668D02*
X2033Y668D01*
X1876Y667D02*
X1933Y667D01*
X1976Y667D02*
X2033Y667D01*
X1876Y666D02*
X1932Y666D01*
X1976Y666D02*
X2032Y666D01*
X1877Y665D02*
X1932Y665D01*
X1977Y665D02*
X2032Y665D01*
X1877Y664D02*
X1931Y664D01*
X1977Y664D02*
X2031Y664D01*
X1878Y663D02*
X1931Y663D01*
X1978Y663D02*
X2031Y663D01*
X1878Y662D02*
X1930Y662D01*
X1978Y662D02*
X2030Y662D01*
X1879Y661D02*
X1930Y661D01*
X1979Y661D02*
X2030Y661D01*
X1879Y660D02*
X1929Y660D01*
X1979Y660D02*
X2029Y660D01*
X1880Y659D02*
X1928Y659D01*
X1980Y659D02*
X2028Y659D01*
X1881Y658D02*
X1928Y658D01*
X1981Y658D02*
X2028Y658D01*
X1882Y657D02*
X1927Y657D01*
X1982Y657D02*
X2027Y657D01*
X1883Y656D02*
X1926Y656D01*
X1983Y656D02*
X2026Y656D01*
X1884Y655D02*
X1925Y655D01*
X1984Y655D02*
X2025Y655D01*
X1885Y654D02*
X1924Y654D01*
X1985Y654D02*
X2024Y654D01*
X1886Y653D02*
X1922Y653D01*
X1986Y653D02*
X2022Y653D01*
X1887Y652D02*
X1921Y652D01*
X1987Y652D02*
X2021Y652D01*
X1889Y651D02*
X1919Y651D01*
X1989Y651D02*
X2019Y651D01*
X1891Y650D02*
X1917Y650D01*
X1991Y650D02*
X2017Y650D01*
X1893Y649D02*
X1915Y649D01*
X1993Y649D02*
X2015Y649D01*
X1896Y648D02*
X1912Y648D01*
X1996Y648D02*
X2012Y648D01*
X1901Y647D02*
X1908Y647D01*
X2001Y647D02*
X2008Y647D01*
D02*
G04 End of Mask0*
M02*