G04 MADE WITH FRITZING*
G04 WWW.FRITZING.ORG*
G04 DOUBLE SIDED*
G04 HOLES PLATED*
G04 CONTOUR ON CENTER OF CONTOUR VECTOR*
%ASAXBY*%
%FSLAX23Y23*%
%MOIN*%
%OFA0B0*%
%SFA1.0B1.0*%
%ADD10C,0.062992*%
%ADD11C,0.075000*%
%ADD12C,0.078000*%
%ADD13R,0.062992X0.062992*%
%ADD14C,0.024000*%
%LNCOPPER1*%
G90*
G70*
G54D10*
X263Y1757D03*
X361Y1757D03*
X263Y1457D03*
X361Y1457D03*
X263Y1157D03*
X361Y1157D03*
G54D11*
X261Y457D03*
X261Y857D03*
X161Y457D03*
X161Y857D03*
X361Y457D03*
X361Y857D03*
G54D12*
X461Y257D03*
X361Y257D03*
X261Y257D03*
X161Y257D03*
G54D13*
X263Y1757D03*
X263Y1457D03*
X263Y1157D03*
G54D14*
X161Y287D02*
X161Y428D01*
D02*
X261Y287D02*
X261Y428D01*
D02*
X361Y287D02*
X361Y428D01*
D02*
X64Y858D02*
X133Y857D01*
D02*
X64Y1758D02*
X64Y858D01*
D02*
X236Y1757D02*
X64Y1758D01*
D02*
X362Y955D02*
X362Y886D01*
D02*
X258Y955D02*
X362Y955D01*
D02*
X262Y1130D02*
X258Y955D01*
D02*
X459Y1155D02*
X459Y1460D01*
D02*
X459Y1460D02*
X459Y1758D01*
D02*
X459Y1758D02*
X388Y1757D01*
D02*
X461Y287D02*
X459Y1155D01*
D02*
X459Y1460D02*
X388Y1458D01*
D02*
X459Y1155D02*
X388Y1157D01*
G04 End of Copper1*
M02*