G04 MADE WITH FRITZING*
G04 WWW.FRITZING.ORG*
G04 DOUBLE SIDED*
G04 HOLES PLATED*
G04 CONTOUR ON CENTER OF CONTOUR VECTOR*
%ASAXBY*%
%FSLAX23Y23*%
%MOIN*%
%OFA0B0*%
%SFA1.0B1.0*%
%ADD10C,0.010000*%
%ADD11C,0.005000*%
%ADD12R,0.001000X0.001000*%
%LNSILK1*%
G90*
G70*
G54D10*
X228Y566D02*
X228Y766D01*
D02*
X228Y766D02*
X294Y766D01*
D02*
X294Y766D02*
X294Y566D01*
D02*
X294Y566D02*
X228Y566D01*
D02*
X128Y566D02*
X128Y766D01*
D02*
X128Y766D02*
X194Y766D01*
D02*
X194Y766D02*
X194Y566D01*
D02*
X194Y566D02*
X128Y566D01*
D02*
X328Y566D02*
X328Y766D01*
D02*
X328Y766D02*
X394Y766D01*
D02*
X394Y766D02*
X394Y566D01*
D02*
X394Y566D02*
X328Y566D01*
D02*
X511Y307D02*
X111Y307D01*
D02*
X111Y307D02*
X111Y207D01*
D02*
X111Y207D02*
X511Y207D01*
D02*
X511Y207D02*
X511Y307D01*
G54D11*
D02*
X476Y307D02*
X511Y272D01*
G54D12*
X0Y1980D02*
X609Y1980D01*
X0Y1979D02*
X609Y1979D01*
X0Y1978D02*
X609Y1978D01*
X0Y1977D02*
X609Y1977D01*
X0Y1976D02*
X609Y1976D01*
X0Y1975D02*
X609Y1975D01*
X0Y1974D02*
X609Y1974D01*
X0Y1973D02*
X609Y1973D01*
X0Y1972D02*
X7Y1972D01*
X602Y1972D02*
X609Y1972D01*
X0Y1971D02*
X7Y1971D01*
X602Y1971D02*
X609Y1971D01*
X0Y1970D02*
X7Y1970D01*
X602Y1970D02*
X609Y1970D01*
X0Y1969D02*
X7Y1969D01*
X602Y1969D02*
X609Y1969D01*
X0Y1968D02*
X7Y1968D01*
X602Y1968D02*
X609Y1968D01*
X0Y1967D02*
X7Y1967D01*
X602Y1967D02*
X609Y1967D01*
X0Y1966D02*
X7Y1966D01*
X602Y1966D02*
X609Y1966D01*
X0Y1965D02*
X7Y1965D01*
X602Y1965D02*
X609Y1965D01*
X0Y1964D02*
X7Y1964D01*
X602Y1964D02*
X609Y1964D01*
X0Y1963D02*
X7Y1963D01*
X602Y1963D02*
X609Y1963D01*
X0Y1962D02*
X7Y1962D01*
X602Y1962D02*
X609Y1962D01*
X0Y1961D02*
X7Y1961D01*
X602Y1961D02*
X609Y1961D01*
X0Y1960D02*
X7Y1960D01*
X602Y1960D02*
X609Y1960D01*
X0Y1959D02*
X7Y1959D01*
X602Y1959D02*
X609Y1959D01*
X0Y1958D02*
X7Y1958D01*
X602Y1958D02*
X609Y1958D01*
X0Y1957D02*
X7Y1957D01*
X602Y1957D02*
X609Y1957D01*
X0Y1956D02*
X7Y1956D01*
X602Y1956D02*
X609Y1956D01*
X0Y1955D02*
X7Y1955D01*
X602Y1955D02*
X609Y1955D01*
X0Y1954D02*
X7Y1954D01*
X602Y1954D02*
X609Y1954D01*
X0Y1953D02*
X7Y1953D01*
X602Y1953D02*
X609Y1953D01*
X0Y1952D02*
X7Y1952D01*
X602Y1952D02*
X609Y1952D01*
X0Y1951D02*
X7Y1951D01*
X602Y1951D02*
X609Y1951D01*
X0Y1950D02*
X7Y1950D01*
X220Y1950D02*
X223Y1950D01*
X269Y1950D02*
X301Y1950D01*
X320Y1950D02*
X338Y1950D01*
X370Y1950D02*
X389Y1950D01*
X602Y1950D02*
X609Y1950D01*
X0Y1949D02*
X7Y1949D01*
X219Y1949D02*
X224Y1949D01*
X269Y1949D02*
X302Y1949D01*
X319Y1949D02*
X340Y1949D01*
X369Y1949D02*
X389Y1949D01*
X602Y1949D02*
X609Y1949D01*
X0Y1948D02*
X7Y1948D01*
X219Y1948D02*
X224Y1948D01*
X269Y1948D02*
X302Y1948D01*
X319Y1948D02*
X341Y1948D01*
X369Y1948D02*
X389Y1948D01*
X602Y1948D02*
X609Y1948D01*
X0Y1947D02*
X7Y1947D01*
X219Y1947D02*
X225Y1947D01*
X269Y1947D02*
X302Y1947D01*
X319Y1947D02*
X342Y1947D01*
X369Y1947D02*
X389Y1947D01*
X602Y1947D02*
X609Y1947D01*
X0Y1946D02*
X7Y1946D01*
X219Y1946D02*
X225Y1946D01*
X269Y1946D02*
X302Y1946D01*
X319Y1946D02*
X343Y1946D01*
X369Y1946D02*
X389Y1946D01*
X602Y1946D02*
X609Y1946D01*
X0Y1945D02*
X7Y1945D01*
X219Y1945D02*
X225Y1945D01*
X269Y1945D02*
X301Y1945D01*
X320Y1945D02*
X344Y1945D01*
X370Y1945D02*
X389Y1945D01*
X602Y1945D02*
X609Y1945D01*
X0Y1944D02*
X7Y1944D01*
X219Y1944D02*
X225Y1944D01*
X269Y1944D02*
X300Y1944D01*
X321Y1944D02*
X344Y1944D01*
X371Y1944D02*
X389Y1944D01*
X602Y1944D02*
X609Y1944D01*
X0Y1943D02*
X7Y1943D01*
X219Y1943D02*
X225Y1943D01*
X269Y1943D02*
X275Y1943D01*
X326Y1943D02*
X332Y1943D01*
X337Y1943D02*
X345Y1943D01*
X383Y1943D02*
X389Y1943D01*
X602Y1943D02*
X609Y1943D01*
X0Y1942D02*
X7Y1942D01*
X219Y1942D02*
X225Y1942D01*
X269Y1942D02*
X275Y1942D01*
X326Y1942D02*
X332Y1942D01*
X338Y1942D02*
X345Y1942D01*
X383Y1942D02*
X389Y1942D01*
X602Y1942D02*
X609Y1942D01*
X0Y1941D02*
X7Y1941D01*
X219Y1941D02*
X225Y1941D01*
X269Y1941D02*
X275Y1941D01*
X326Y1941D02*
X332Y1941D01*
X339Y1941D02*
X346Y1941D01*
X383Y1941D02*
X389Y1941D01*
X602Y1941D02*
X609Y1941D01*
X0Y1940D02*
X7Y1940D01*
X219Y1940D02*
X225Y1940D01*
X269Y1940D02*
X275Y1940D01*
X326Y1940D02*
X332Y1940D01*
X339Y1940D02*
X346Y1940D01*
X383Y1940D02*
X389Y1940D01*
X602Y1940D02*
X609Y1940D01*
X0Y1939D02*
X7Y1939D01*
X219Y1939D02*
X225Y1939D01*
X269Y1939D02*
X275Y1939D01*
X326Y1939D02*
X332Y1939D01*
X340Y1939D02*
X347Y1939D01*
X383Y1939D02*
X389Y1939D01*
X602Y1939D02*
X609Y1939D01*
X0Y1938D02*
X7Y1938D01*
X219Y1938D02*
X225Y1938D01*
X269Y1938D02*
X275Y1938D01*
X326Y1938D02*
X332Y1938D01*
X340Y1938D02*
X347Y1938D01*
X383Y1938D02*
X389Y1938D01*
X602Y1938D02*
X609Y1938D01*
X0Y1937D02*
X7Y1937D01*
X219Y1937D02*
X225Y1937D01*
X269Y1937D02*
X275Y1937D01*
X326Y1937D02*
X332Y1937D01*
X341Y1937D02*
X348Y1937D01*
X383Y1937D02*
X389Y1937D01*
X602Y1937D02*
X609Y1937D01*
X0Y1936D02*
X7Y1936D01*
X219Y1936D02*
X225Y1936D01*
X269Y1936D02*
X275Y1936D01*
X326Y1936D02*
X332Y1936D01*
X341Y1936D02*
X348Y1936D01*
X383Y1936D02*
X389Y1936D01*
X602Y1936D02*
X609Y1936D01*
X0Y1935D02*
X7Y1935D01*
X219Y1935D02*
X225Y1935D01*
X269Y1935D02*
X275Y1935D01*
X326Y1935D02*
X332Y1935D01*
X342Y1935D02*
X349Y1935D01*
X383Y1935D02*
X389Y1935D01*
X602Y1935D02*
X609Y1935D01*
X0Y1934D02*
X7Y1934D01*
X219Y1934D02*
X225Y1934D01*
X269Y1934D02*
X275Y1934D01*
X326Y1934D02*
X332Y1934D01*
X342Y1934D02*
X349Y1934D01*
X383Y1934D02*
X389Y1934D01*
X602Y1934D02*
X609Y1934D01*
X0Y1933D02*
X7Y1933D01*
X219Y1933D02*
X225Y1933D01*
X269Y1933D02*
X275Y1933D01*
X326Y1933D02*
X332Y1933D01*
X343Y1933D02*
X350Y1933D01*
X383Y1933D02*
X389Y1933D01*
X602Y1933D02*
X609Y1933D01*
X0Y1932D02*
X7Y1932D01*
X219Y1932D02*
X225Y1932D01*
X269Y1932D02*
X275Y1932D01*
X326Y1932D02*
X332Y1932D01*
X343Y1932D02*
X350Y1932D01*
X383Y1932D02*
X389Y1932D01*
X602Y1932D02*
X609Y1932D01*
X0Y1931D02*
X7Y1931D01*
X219Y1931D02*
X225Y1931D01*
X269Y1931D02*
X275Y1931D01*
X326Y1931D02*
X332Y1931D01*
X344Y1931D02*
X351Y1931D01*
X383Y1931D02*
X389Y1931D01*
X602Y1931D02*
X609Y1931D01*
X0Y1930D02*
X7Y1930D01*
X219Y1930D02*
X225Y1930D01*
X269Y1930D02*
X275Y1930D01*
X326Y1930D02*
X332Y1930D01*
X344Y1930D02*
X351Y1930D01*
X383Y1930D02*
X389Y1930D01*
X602Y1930D02*
X609Y1930D01*
X0Y1929D02*
X7Y1929D01*
X219Y1929D02*
X225Y1929D01*
X269Y1929D02*
X275Y1929D01*
X326Y1929D02*
X332Y1929D01*
X345Y1929D02*
X351Y1929D01*
X383Y1929D02*
X389Y1929D01*
X602Y1929D02*
X609Y1929D01*
X0Y1928D02*
X7Y1928D01*
X219Y1928D02*
X225Y1928D01*
X269Y1928D02*
X275Y1928D01*
X326Y1928D02*
X332Y1928D01*
X345Y1928D02*
X352Y1928D01*
X383Y1928D02*
X389Y1928D01*
X602Y1928D02*
X609Y1928D01*
X0Y1927D02*
X7Y1927D01*
X219Y1927D02*
X225Y1927D01*
X269Y1927D02*
X286Y1927D01*
X326Y1927D02*
X332Y1927D01*
X346Y1927D02*
X352Y1927D01*
X383Y1927D02*
X389Y1927D01*
X602Y1927D02*
X609Y1927D01*
X0Y1926D02*
X7Y1926D01*
X219Y1926D02*
X225Y1926D01*
X269Y1926D02*
X288Y1926D01*
X326Y1926D02*
X332Y1926D01*
X346Y1926D02*
X352Y1926D01*
X383Y1926D02*
X389Y1926D01*
X602Y1926D02*
X609Y1926D01*
X0Y1925D02*
X7Y1925D01*
X219Y1925D02*
X225Y1925D01*
X269Y1925D02*
X288Y1925D01*
X326Y1925D02*
X332Y1925D01*
X346Y1925D02*
X352Y1925D01*
X383Y1925D02*
X389Y1925D01*
X602Y1925D02*
X609Y1925D01*
X0Y1924D02*
X7Y1924D01*
X219Y1924D02*
X225Y1924D01*
X269Y1924D02*
X288Y1924D01*
X326Y1924D02*
X332Y1924D01*
X346Y1924D02*
X352Y1924D01*
X383Y1924D02*
X389Y1924D01*
X602Y1924D02*
X609Y1924D01*
X0Y1923D02*
X7Y1923D01*
X219Y1923D02*
X225Y1923D01*
X269Y1923D02*
X288Y1923D01*
X326Y1923D02*
X332Y1923D01*
X346Y1923D02*
X352Y1923D01*
X383Y1923D02*
X389Y1923D01*
X602Y1923D02*
X609Y1923D01*
X0Y1922D02*
X7Y1922D01*
X219Y1922D02*
X225Y1922D01*
X269Y1922D02*
X288Y1922D01*
X326Y1922D02*
X332Y1922D01*
X346Y1922D02*
X352Y1922D01*
X383Y1922D02*
X389Y1922D01*
X602Y1922D02*
X609Y1922D01*
X0Y1921D02*
X7Y1921D01*
X219Y1921D02*
X225Y1921D01*
X269Y1921D02*
X287Y1921D01*
X326Y1921D02*
X332Y1921D01*
X346Y1921D02*
X352Y1921D01*
X383Y1921D02*
X389Y1921D01*
X399Y1921D02*
X400Y1921D01*
X602Y1921D02*
X609Y1921D01*
X0Y1920D02*
X7Y1920D01*
X219Y1920D02*
X225Y1920D01*
X269Y1920D02*
X275Y1920D01*
X326Y1920D02*
X332Y1920D01*
X345Y1920D02*
X352Y1920D01*
X383Y1920D02*
X389Y1920D01*
X397Y1920D02*
X402Y1920D01*
X602Y1920D02*
X609Y1920D01*
X0Y1919D02*
X7Y1919D01*
X219Y1919D02*
X225Y1919D01*
X269Y1919D02*
X275Y1919D01*
X326Y1919D02*
X332Y1919D01*
X345Y1919D02*
X352Y1919D01*
X383Y1919D02*
X389Y1919D01*
X397Y1919D02*
X402Y1919D01*
X602Y1919D02*
X609Y1919D01*
X0Y1918D02*
X7Y1918D01*
X219Y1918D02*
X225Y1918D01*
X269Y1918D02*
X275Y1918D01*
X326Y1918D02*
X332Y1918D01*
X345Y1918D02*
X351Y1918D01*
X383Y1918D02*
X389Y1918D01*
X397Y1918D02*
X403Y1918D01*
X602Y1918D02*
X609Y1918D01*
X0Y1917D02*
X7Y1917D01*
X219Y1917D02*
X225Y1917D01*
X269Y1917D02*
X275Y1917D01*
X326Y1917D02*
X332Y1917D01*
X344Y1917D02*
X351Y1917D01*
X383Y1917D02*
X389Y1917D01*
X397Y1917D02*
X403Y1917D01*
X602Y1917D02*
X609Y1917D01*
X0Y1916D02*
X7Y1916D01*
X219Y1916D02*
X225Y1916D01*
X269Y1916D02*
X275Y1916D01*
X326Y1916D02*
X332Y1916D01*
X344Y1916D02*
X350Y1916D01*
X383Y1916D02*
X389Y1916D01*
X397Y1916D02*
X403Y1916D01*
X602Y1916D02*
X609Y1916D01*
X0Y1915D02*
X7Y1915D01*
X219Y1915D02*
X225Y1915D01*
X269Y1915D02*
X275Y1915D01*
X326Y1915D02*
X332Y1915D01*
X343Y1915D02*
X350Y1915D01*
X383Y1915D02*
X389Y1915D01*
X397Y1915D02*
X403Y1915D01*
X602Y1915D02*
X609Y1915D01*
X0Y1914D02*
X7Y1914D01*
X219Y1914D02*
X225Y1914D01*
X269Y1914D02*
X275Y1914D01*
X326Y1914D02*
X332Y1914D01*
X343Y1914D02*
X349Y1914D01*
X383Y1914D02*
X389Y1914D01*
X397Y1914D02*
X403Y1914D01*
X602Y1914D02*
X609Y1914D01*
X0Y1913D02*
X7Y1913D01*
X219Y1913D02*
X225Y1913D01*
X269Y1913D02*
X275Y1913D01*
X326Y1913D02*
X332Y1913D01*
X342Y1913D02*
X349Y1913D01*
X383Y1913D02*
X389Y1913D01*
X397Y1913D02*
X403Y1913D01*
X602Y1913D02*
X609Y1913D01*
X0Y1912D02*
X7Y1912D01*
X219Y1912D02*
X225Y1912D01*
X269Y1912D02*
X275Y1912D01*
X326Y1912D02*
X332Y1912D01*
X341Y1912D02*
X348Y1912D01*
X383Y1912D02*
X389Y1912D01*
X397Y1912D02*
X403Y1912D01*
X602Y1912D02*
X609Y1912D01*
X0Y1911D02*
X7Y1911D01*
X219Y1911D02*
X225Y1911D01*
X269Y1911D02*
X275Y1911D01*
X326Y1911D02*
X332Y1911D01*
X341Y1911D02*
X348Y1911D01*
X383Y1911D02*
X389Y1911D01*
X397Y1911D02*
X403Y1911D01*
X602Y1911D02*
X609Y1911D01*
X0Y1910D02*
X7Y1910D01*
X219Y1910D02*
X225Y1910D01*
X269Y1910D02*
X275Y1910D01*
X326Y1910D02*
X332Y1910D01*
X340Y1910D02*
X347Y1910D01*
X383Y1910D02*
X389Y1910D01*
X397Y1910D02*
X403Y1910D01*
X602Y1910D02*
X609Y1910D01*
X0Y1909D02*
X7Y1909D01*
X219Y1909D02*
X225Y1909D01*
X269Y1909D02*
X275Y1909D01*
X326Y1909D02*
X332Y1909D01*
X340Y1909D02*
X347Y1909D01*
X383Y1909D02*
X389Y1909D01*
X397Y1909D02*
X403Y1909D01*
X602Y1909D02*
X609Y1909D01*
X0Y1908D02*
X7Y1908D01*
X219Y1908D02*
X225Y1908D01*
X269Y1908D02*
X275Y1908D01*
X326Y1908D02*
X332Y1908D01*
X339Y1908D02*
X346Y1908D01*
X383Y1908D02*
X389Y1908D01*
X397Y1908D02*
X403Y1908D01*
X602Y1908D02*
X609Y1908D01*
X0Y1907D02*
X7Y1907D01*
X219Y1907D02*
X225Y1907D01*
X269Y1907D02*
X275Y1907D01*
X326Y1907D02*
X332Y1907D01*
X339Y1907D02*
X346Y1907D01*
X383Y1907D02*
X389Y1907D01*
X397Y1907D02*
X403Y1907D01*
X602Y1907D02*
X609Y1907D01*
X0Y1906D02*
X7Y1906D01*
X219Y1906D02*
X225Y1906D01*
X269Y1906D02*
X275Y1906D01*
X326Y1906D02*
X332Y1906D01*
X338Y1906D02*
X345Y1906D01*
X383Y1906D02*
X389Y1906D01*
X397Y1906D02*
X403Y1906D01*
X602Y1906D02*
X609Y1906D01*
X0Y1905D02*
X7Y1905D01*
X219Y1905D02*
X225Y1905D01*
X269Y1905D02*
X275Y1905D01*
X326Y1905D02*
X332Y1905D01*
X338Y1905D02*
X345Y1905D01*
X383Y1905D02*
X389Y1905D01*
X397Y1905D02*
X403Y1905D01*
X602Y1905D02*
X609Y1905D01*
X0Y1904D02*
X7Y1904D01*
X219Y1904D02*
X225Y1904D01*
X269Y1904D02*
X275Y1904D01*
X326Y1904D02*
X332Y1904D01*
X337Y1904D02*
X344Y1904D01*
X383Y1904D02*
X389Y1904D01*
X396Y1904D02*
X403Y1904D01*
X602Y1904D02*
X609Y1904D01*
X0Y1903D02*
X7Y1903D01*
X219Y1903D02*
X250Y1903D01*
X269Y1903D02*
X301Y1903D01*
X320Y1903D02*
X344Y1903D01*
X371Y1903D02*
X403Y1903D01*
X602Y1903D02*
X609Y1903D01*
X0Y1902D02*
X7Y1902D01*
X219Y1902D02*
X251Y1902D01*
X269Y1902D02*
X302Y1902D01*
X319Y1902D02*
X343Y1902D01*
X370Y1902D02*
X403Y1902D01*
X602Y1902D02*
X609Y1902D01*
X0Y1901D02*
X7Y1901D01*
X219Y1901D02*
X252Y1901D01*
X269Y1901D02*
X302Y1901D01*
X319Y1901D02*
X343Y1901D01*
X369Y1901D02*
X403Y1901D01*
X602Y1901D02*
X609Y1901D01*
X0Y1900D02*
X7Y1900D01*
X219Y1900D02*
X252Y1900D01*
X269Y1900D02*
X302Y1900D01*
X319Y1900D02*
X342Y1900D01*
X369Y1900D02*
X403Y1900D01*
X602Y1900D02*
X609Y1900D01*
X0Y1899D02*
X7Y1899D01*
X219Y1899D02*
X252Y1899D01*
X269Y1899D02*
X302Y1899D01*
X319Y1899D02*
X341Y1899D01*
X369Y1899D02*
X402Y1899D01*
X602Y1899D02*
X609Y1899D01*
X0Y1898D02*
X7Y1898D01*
X219Y1898D02*
X251Y1898D01*
X269Y1898D02*
X301Y1898D01*
X320Y1898D02*
X339Y1898D01*
X370Y1898D02*
X402Y1898D01*
X602Y1898D02*
X609Y1898D01*
X0Y1897D02*
X7Y1897D01*
X219Y1897D02*
X250Y1897D01*
X269Y1897D02*
X300Y1897D01*
X321Y1897D02*
X337Y1897D01*
X371Y1897D02*
X400Y1897D01*
X602Y1897D02*
X609Y1897D01*
X0Y1896D02*
X7Y1896D01*
X602Y1896D02*
X609Y1896D01*
X0Y1895D02*
X7Y1895D01*
X602Y1895D02*
X609Y1895D01*
X0Y1894D02*
X7Y1894D01*
X602Y1894D02*
X609Y1894D01*
X0Y1893D02*
X7Y1893D01*
X602Y1893D02*
X609Y1893D01*
X0Y1892D02*
X7Y1892D01*
X602Y1892D02*
X609Y1892D01*
X0Y1891D02*
X7Y1891D01*
X602Y1891D02*
X609Y1891D01*
X0Y1890D02*
X7Y1890D01*
X602Y1890D02*
X609Y1890D01*
X0Y1889D02*
X7Y1889D01*
X602Y1889D02*
X609Y1889D01*
X0Y1888D02*
X7Y1888D01*
X602Y1888D02*
X609Y1888D01*
X0Y1887D02*
X7Y1887D01*
X602Y1887D02*
X609Y1887D01*
X0Y1886D02*
X7Y1886D01*
X602Y1886D02*
X609Y1886D01*
X0Y1885D02*
X7Y1885D01*
X602Y1885D02*
X609Y1885D01*
X0Y1884D02*
X7Y1884D01*
X602Y1884D02*
X609Y1884D01*
X0Y1883D02*
X7Y1883D01*
X602Y1883D02*
X609Y1883D01*
X0Y1882D02*
X7Y1882D01*
X602Y1882D02*
X609Y1882D01*
X0Y1881D02*
X7Y1881D01*
X602Y1881D02*
X609Y1881D01*
X0Y1880D02*
X7Y1880D01*
X602Y1880D02*
X609Y1880D01*
X0Y1879D02*
X7Y1879D01*
X298Y1879D02*
X325Y1879D01*
X602Y1879D02*
X609Y1879D01*
X0Y1878D02*
X7Y1878D01*
X291Y1878D02*
X331Y1878D01*
X602Y1878D02*
X609Y1878D01*
X0Y1877D02*
X7Y1877D01*
X286Y1877D02*
X337Y1877D01*
X602Y1877D02*
X609Y1877D01*
X0Y1876D02*
X7Y1876D01*
X282Y1876D02*
X341Y1876D01*
X602Y1876D02*
X609Y1876D01*
X0Y1875D02*
X7Y1875D01*
X278Y1875D02*
X345Y1875D01*
X602Y1875D02*
X609Y1875D01*
X0Y1874D02*
X7Y1874D01*
X275Y1874D02*
X348Y1874D01*
X602Y1874D02*
X609Y1874D01*
X0Y1873D02*
X7Y1873D01*
X272Y1873D02*
X351Y1873D01*
X602Y1873D02*
X609Y1873D01*
X0Y1872D02*
X7Y1872D01*
X269Y1872D02*
X354Y1872D01*
X602Y1872D02*
X609Y1872D01*
X0Y1871D02*
X7Y1871D01*
X266Y1871D02*
X296Y1871D01*
X327Y1871D02*
X356Y1871D01*
X602Y1871D02*
X609Y1871D01*
X0Y1870D02*
X7Y1870D01*
X264Y1870D02*
X290Y1870D01*
X333Y1870D02*
X359Y1870D01*
X602Y1870D02*
X609Y1870D01*
X0Y1869D02*
X7Y1869D01*
X262Y1869D02*
X285Y1869D01*
X338Y1869D02*
X361Y1869D01*
X602Y1869D02*
X609Y1869D01*
X0Y1868D02*
X7Y1868D01*
X260Y1868D02*
X281Y1868D01*
X342Y1868D02*
X363Y1868D01*
X602Y1868D02*
X609Y1868D01*
X0Y1867D02*
X7Y1867D01*
X257Y1867D02*
X277Y1867D01*
X345Y1867D02*
X365Y1867D01*
X602Y1867D02*
X609Y1867D01*
X0Y1866D02*
X7Y1866D01*
X255Y1866D02*
X274Y1866D01*
X348Y1866D02*
X367Y1866D01*
X602Y1866D02*
X609Y1866D01*
X0Y1865D02*
X7Y1865D01*
X254Y1865D02*
X271Y1865D01*
X351Y1865D02*
X369Y1865D01*
X602Y1865D02*
X609Y1865D01*
X0Y1864D02*
X7Y1864D01*
X252Y1864D02*
X269Y1864D01*
X354Y1864D02*
X371Y1864D01*
X602Y1864D02*
X609Y1864D01*
X0Y1863D02*
X7Y1863D01*
X250Y1863D02*
X266Y1863D01*
X356Y1863D02*
X373Y1863D01*
X602Y1863D02*
X609Y1863D01*
X0Y1862D02*
X7Y1862D01*
X248Y1862D02*
X264Y1862D01*
X358Y1862D02*
X374Y1862D01*
X602Y1862D02*
X609Y1862D01*
X0Y1861D02*
X7Y1861D01*
X247Y1861D02*
X262Y1861D01*
X361Y1861D02*
X376Y1861D01*
X602Y1861D02*
X609Y1861D01*
X0Y1860D02*
X7Y1860D01*
X245Y1860D02*
X260Y1860D01*
X363Y1860D02*
X377Y1860D01*
X602Y1860D02*
X609Y1860D01*
X0Y1859D02*
X7Y1859D01*
X244Y1859D02*
X258Y1859D01*
X365Y1859D02*
X379Y1859D01*
X602Y1859D02*
X609Y1859D01*
X0Y1858D02*
X7Y1858D01*
X242Y1858D02*
X256Y1858D01*
X367Y1858D02*
X380Y1858D01*
X602Y1858D02*
X609Y1858D01*
X0Y1857D02*
X7Y1857D01*
X241Y1857D02*
X254Y1857D01*
X368Y1857D02*
X382Y1857D01*
X602Y1857D02*
X609Y1857D01*
X0Y1856D02*
X7Y1856D01*
X239Y1856D02*
X252Y1856D01*
X370Y1856D02*
X383Y1856D01*
X602Y1856D02*
X609Y1856D01*
X0Y1855D02*
X7Y1855D01*
X238Y1855D02*
X251Y1855D01*
X372Y1855D02*
X384Y1855D01*
X602Y1855D02*
X609Y1855D01*
X0Y1854D02*
X7Y1854D01*
X237Y1854D02*
X249Y1854D01*
X373Y1854D02*
X386Y1854D01*
X602Y1854D02*
X609Y1854D01*
X0Y1853D02*
X7Y1853D01*
X236Y1853D02*
X248Y1853D01*
X375Y1853D02*
X387Y1853D01*
X602Y1853D02*
X609Y1853D01*
X0Y1852D02*
X7Y1852D01*
X234Y1852D02*
X246Y1852D01*
X376Y1852D02*
X388Y1852D01*
X602Y1852D02*
X609Y1852D01*
X0Y1851D02*
X7Y1851D01*
X233Y1851D02*
X245Y1851D01*
X378Y1851D02*
X389Y1851D01*
X602Y1851D02*
X609Y1851D01*
X0Y1850D02*
X7Y1850D01*
X232Y1850D02*
X243Y1850D01*
X379Y1850D02*
X391Y1850D01*
X602Y1850D02*
X609Y1850D01*
X0Y1849D02*
X7Y1849D01*
X231Y1849D02*
X242Y1849D01*
X380Y1849D02*
X392Y1849D01*
X602Y1849D02*
X609Y1849D01*
X0Y1848D02*
X7Y1848D01*
X230Y1848D02*
X241Y1848D01*
X382Y1848D02*
X393Y1848D01*
X602Y1848D02*
X609Y1848D01*
X0Y1847D02*
X7Y1847D01*
X229Y1847D02*
X239Y1847D01*
X383Y1847D02*
X394Y1847D01*
X602Y1847D02*
X609Y1847D01*
X0Y1846D02*
X7Y1846D01*
X228Y1846D02*
X238Y1846D01*
X384Y1846D02*
X395Y1846D01*
X602Y1846D02*
X609Y1846D01*
X0Y1845D02*
X7Y1845D01*
X226Y1845D02*
X237Y1845D01*
X385Y1845D02*
X396Y1845D01*
X602Y1845D02*
X609Y1845D01*
X0Y1844D02*
X7Y1844D01*
X226Y1844D02*
X236Y1844D01*
X387Y1844D02*
X397Y1844D01*
X602Y1844D02*
X609Y1844D01*
X0Y1843D02*
X7Y1843D01*
X225Y1843D02*
X235Y1843D01*
X388Y1843D02*
X398Y1843D01*
X602Y1843D02*
X609Y1843D01*
X0Y1842D02*
X7Y1842D01*
X224Y1842D02*
X234Y1842D01*
X389Y1842D02*
X399Y1842D01*
X602Y1842D02*
X609Y1842D01*
X0Y1841D02*
X7Y1841D01*
X223Y1841D02*
X233Y1841D01*
X390Y1841D02*
X400Y1841D01*
X602Y1841D02*
X609Y1841D01*
X0Y1840D02*
X7Y1840D01*
X222Y1840D02*
X232Y1840D01*
X391Y1840D02*
X401Y1840D01*
X602Y1840D02*
X609Y1840D01*
X0Y1839D02*
X7Y1839D01*
X221Y1839D02*
X231Y1839D01*
X392Y1839D02*
X402Y1839D01*
X602Y1839D02*
X609Y1839D01*
X0Y1838D02*
X7Y1838D01*
X220Y1838D02*
X230Y1838D01*
X393Y1838D02*
X403Y1838D01*
X602Y1838D02*
X609Y1838D01*
X0Y1837D02*
X7Y1837D01*
X219Y1837D02*
X229Y1837D01*
X394Y1837D02*
X404Y1837D01*
X602Y1837D02*
X609Y1837D01*
X0Y1836D02*
X7Y1836D01*
X218Y1836D02*
X228Y1836D01*
X395Y1836D02*
X404Y1836D01*
X602Y1836D02*
X609Y1836D01*
X0Y1835D02*
X7Y1835D01*
X217Y1835D02*
X227Y1835D01*
X396Y1835D02*
X405Y1835D01*
X602Y1835D02*
X609Y1835D01*
X0Y1834D02*
X7Y1834D01*
X217Y1834D02*
X226Y1834D01*
X397Y1834D02*
X406Y1834D01*
X602Y1834D02*
X609Y1834D01*
X0Y1833D02*
X7Y1833D01*
X216Y1833D02*
X225Y1833D01*
X398Y1833D02*
X407Y1833D01*
X602Y1833D02*
X609Y1833D01*
X0Y1832D02*
X7Y1832D01*
X215Y1832D02*
X224Y1832D01*
X398Y1832D02*
X408Y1832D01*
X602Y1832D02*
X609Y1832D01*
X0Y1831D02*
X7Y1831D01*
X214Y1831D02*
X223Y1831D01*
X399Y1831D02*
X408Y1831D01*
X602Y1831D02*
X609Y1831D01*
X0Y1830D02*
X7Y1830D01*
X213Y1830D02*
X222Y1830D01*
X400Y1830D02*
X409Y1830D01*
X602Y1830D02*
X609Y1830D01*
X0Y1829D02*
X7Y1829D01*
X213Y1829D02*
X222Y1829D01*
X401Y1829D02*
X409Y1829D01*
X602Y1829D02*
X609Y1829D01*
X0Y1828D02*
X7Y1828D01*
X212Y1828D02*
X221Y1828D01*
X402Y1828D02*
X409Y1828D01*
X602Y1828D02*
X609Y1828D01*
X0Y1827D02*
X7Y1827D01*
X211Y1827D02*
X220Y1827D01*
X402Y1827D02*
X409Y1827D01*
X602Y1827D02*
X609Y1827D01*
X0Y1826D02*
X7Y1826D01*
X211Y1826D02*
X219Y1826D01*
X402Y1826D02*
X409Y1826D01*
X602Y1826D02*
X609Y1826D01*
X0Y1825D02*
X7Y1825D01*
X210Y1825D02*
X219Y1825D01*
X402Y1825D02*
X409Y1825D01*
X602Y1825D02*
X609Y1825D01*
X0Y1824D02*
X7Y1824D01*
X209Y1824D02*
X218Y1824D01*
X402Y1824D02*
X409Y1824D01*
X602Y1824D02*
X609Y1824D01*
X0Y1823D02*
X7Y1823D01*
X209Y1823D02*
X217Y1823D01*
X402Y1823D02*
X409Y1823D01*
X602Y1823D02*
X609Y1823D01*
X0Y1822D02*
X7Y1822D01*
X208Y1822D02*
X216Y1822D01*
X402Y1822D02*
X409Y1822D01*
X602Y1822D02*
X609Y1822D01*
X0Y1821D02*
X7Y1821D01*
X207Y1821D02*
X216Y1821D01*
X402Y1821D02*
X409Y1821D01*
X602Y1821D02*
X609Y1821D01*
X0Y1820D02*
X7Y1820D01*
X207Y1820D02*
X215Y1820D01*
X402Y1820D02*
X409Y1820D01*
X602Y1820D02*
X609Y1820D01*
X0Y1819D02*
X7Y1819D01*
X206Y1819D02*
X214Y1819D01*
X402Y1819D02*
X409Y1819D01*
X602Y1819D02*
X609Y1819D01*
X0Y1818D02*
X7Y1818D01*
X206Y1818D02*
X214Y1818D01*
X402Y1818D02*
X409Y1818D01*
X602Y1818D02*
X609Y1818D01*
X0Y1817D02*
X7Y1817D01*
X205Y1817D02*
X213Y1817D01*
X402Y1817D02*
X409Y1817D01*
X602Y1817D02*
X609Y1817D01*
X0Y1816D02*
X7Y1816D01*
X205Y1816D02*
X213Y1816D01*
X402Y1816D02*
X409Y1816D01*
X602Y1816D02*
X609Y1816D01*
X0Y1815D02*
X7Y1815D01*
X204Y1815D02*
X212Y1815D01*
X402Y1815D02*
X409Y1815D01*
X602Y1815D02*
X609Y1815D01*
X0Y1814D02*
X7Y1814D01*
X204Y1814D02*
X211Y1814D01*
X402Y1814D02*
X409Y1814D01*
X602Y1814D02*
X609Y1814D01*
X0Y1813D02*
X7Y1813D01*
X203Y1813D02*
X211Y1813D01*
X402Y1813D02*
X409Y1813D01*
X602Y1813D02*
X609Y1813D01*
X0Y1812D02*
X7Y1812D01*
X203Y1812D02*
X210Y1812D01*
X402Y1812D02*
X409Y1812D01*
X602Y1812D02*
X609Y1812D01*
X0Y1811D02*
X7Y1811D01*
X202Y1811D02*
X210Y1811D01*
X402Y1811D02*
X409Y1811D01*
X602Y1811D02*
X609Y1811D01*
X0Y1810D02*
X7Y1810D01*
X202Y1810D02*
X209Y1810D01*
X402Y1810D02*
X409Y1810D01*
X602Y1810D02*
X609Y1810D01*
X0Y1809D02*
X7Y1809D01*
X201Y1809D02*
X209Y1809D01*
X402Y1809D02*
X409Y1809D01*
X602Y1809D02*
X609Y1809D01*
X0Y1808D02*
X7Y1808D01*
X201Y1808D02*
X208Y1808D01*
X402Y1808D02*
X409Y1808D01*
X602Y1808D02*
X609Y1808D01*
X0Y1807D02*
X7Y1807D01*
X200Y1807D02*
X208Y1807D01*
X402Y1807D02*
X409Y1807D01*
X602Y1807D02*
X609Y1807D01*
X0Y1806D02*
X7Y1806D01*
X200Y1806D02*
X207Y1806D01*
X402Y1806D02*
X409Y1806D01*
X602Y1806D02*
X609Y1806D01*
X0Y1805D02*
X7Y1805D01*
X199Y1805D02*
X207Y1805D01*
X402Y1805D02*
X409Y1805D01*
X602Y1805D02*
X609Y1805D01*
X0Y1804D02*
X7Y1804D01*
X199Y1804D02*
X206Y1804D01*
X402Y1804D02*
X409Y1804D01*
X602Y1804D02*
X609Y1804D01*
X0Y1803D02*
X7Y1803D01*
X199Y1803D02*
X206Y1803D01*
X402Y1803D02*
X409Y1803D01*
X602Y1803D02*
X609Y1803D01*
X0Y1802D02*
X7Y1802D01*
X198Y1802D02*
X206Y1802D01*
X402Y1802D02*
X409Y1802D01*
X602Y1802D02*
X609Y1802D01*
X0Y1801D02*
X7Y1801D01*
X198Y1801D02*
X205Y1801D01*
X402Y1801D02*
X409Y1801D01*
X602Y1801D02*
X609Y1801D01*
X0Y1800D02*
X7Y1800D01*
X197Y1800D02*
X205Y1800D01*
X402Y1800D02*
X409Y1800D01*
X602Y1800D02*
X609Y1800D01*
X0Y1799D02*
X7Y1799D01*
X197Y1799D02*
X204Y1799D01*
X402Y1799D02*
X409Y1799D01*
X602Y1799D02*
X609Y1799D01*
X0Y1798D02*
X7Y1798D01*
X197Y1798D02*
X204Y1798D01*
X402Y1798D02*
X409Y1798D01*
X602Y1798D02*
X609Y1798D01*
X0Y1797D02*
X7Y1797D01*
X196Y1797D02*
X204Y1797D01*
X402Y1797D02*
X409Y1797D01*
X602Y1797D02*
X609Y1797D01*
X0Y1796D02*
X7Y1796D01*
X196Y1796D02*
X203Y1796D01*
X402Y1796D02*
X409Y1796D01*
X602Y1796D02*
X609Y1796D01*
X0Y1795D02*
X7Y1795D01*
X196Y1795D02*
X203Y1795D01*
X402Y1795D02*
X409Y1795D01*
X602Y1795D02*
X609Y1795D01*
X0Y1794D02*
X7Y1794D01*
X195Y1794D02*
X203Y1794D01*
X402Y1794D02*
X409Y1794D01*
X602Y1794D02*
X609Y1794D01*
X0Y1793D02*
X7Y1793D01*
X195Y1793D02*
X202Y1793D01*
X402Y1793D02*
X409Y1793D01*
X602Y1793D02*
X609Y1793D01*
X0Y1792D02*
X7Y1792D01*
X195Y1792D02*
X202Y1792D01*
X402Y1792D02*
X409Y1792D01*
X602Y1792D02*
X609Y1792D01*
X0Y1791D02*
X7Y1791D01*
X195Y1791D02*
X202Y1791D01*
X402Y1791D02*
X409Y1791D01*
X602Y1791D02*
X609Y1791D01*
X0Y1790D02*
X7Y1790D01*
X194Y1790D02*
X201Y1790D01*
X402Y1790D02*
X409Y1790D01*
X602Y1790D02*
X609Y1790D01*
X0Y1789D02*
X7Y1789D01*
X194Y1789D02*
X201Y1789D01*
X402Y1789D02*
X409Y1789D01*
X602Y1789D02*
X609Y1789D01*
X0Y1788D02*
X7Y1788D01*
X194Y1788D02*
X201Y1788D01*
X402Y1788D02*
X409Y1788D01*
X602Y1788D02*
X609Y1788D01*
X0Y1787D02*
X7Y1787D01*
X193Y1787D02*
X200Y1787D01*
X402Y1787D02*
X409Y1787D01*
X602Y1787D02*
X609Y1787D01*
X0Y1786D02*
X7Y1786D01*
X193Y1786D02*
X200Y1786D01*
X402Y1786D02*
X409Y1786D01*
X602Y1786D02*
X609Y1786D01*
X0Y1785D02*
X7Y1785D01*
X193Y1785D02*
X200Y1785D01*
X402Y1785D02*
X409Y1785D01*
X602Y1785D02*
X609Y1785D01*
X0Y1784D02*
X7Y1784D01*
X193Y1784D02*
X200Y1784D01*
X402Y1784D02*
X409Y1784D01*
X602Y1784D02*
X609Y1784D01*
X0Y1783D02*
X7Y1783D01*
X193Y1783D02*
X199Y1783D01*
X402Y1783D02*
X409Y1783D01*
X602Y1783D02*
X609Y1783D01*
X0Y1782D02*
X7Y1782D01*
X192Y1782D02*
X199Y1782D01*
X402Y1782D02*
X409Y1782D01*
X602Y1782D02*
X609Y1782D01*
X0Y1781D02*
X7Y1781D01*
X192Y1781D02*
X199Y1781D01*
X402Y1781D02*
X409Y1781D01*
X602Y1781D02*
X609Y1781D01*
X0Y1780D02*
X7Y1780D01*
X192Y1780D02*
X199Y1780D01*
X402Y1780D02*
X409Y1780D01*
X602Y1780D02*
X609Y1780D01*
X0Y1779D02*
X7Y1779D01*
X192Y1779D02*
X199Y1779D01*
X402Y1779D02*
X409Y1779D01*
X602Y1779D02*
X609Y1779D01*
X0Y1778D02*
X7Y1778D01*
X192Y1778D02*
X198Y1778D01*
X402Y1778D02*
X409Y1778D01*
X602Y1778D02*
X609Y1778D01*
X0Y1777D02*
X7Y1777D01*
X191Y1777D02*
X198Y1777D01*
X402Y1777D02*
X409Y1777D01*
X602Y1777D02*
X609Y1777D01*
X0Y1776D02*
X7Y1776D01*
X191Y1776D02*
X198Y1776D01*
X402Y1776D02*
X409Y1776D01*
X602Y1776D02*
X609Y1776D01*
X0Y1775D02*
X7Y1775D01*
X191Y1775D02*
X198Y1775D01*
X402Y1775D02*
X409Y1775D01*
X602Y1775D02*
X609Y1775D01*
X0Y1774D02*
X7Y1774D01*
X191Y1774D02*
X198Y1774D01*
X402Y1774D02*
X409Y1774D01*
X602Y1774D02*
X609Y1774D01*
X0Y1773D02*
X7Y1773D01*
X191Y1773D02*
X198Y1773D01*
X402Y1773D02*
X409Y1773D01*
X602Y1773D02*
X609Y1773D01*
X0Y1772D02*
X7Y1772D01*
X191Y1772D02*
X198Y1772D01*
X402Y1772D02*
X409Y1772D01*
X602Y1772D02*
X609Y1772D01*
X0Y1771D02*
X7Y1771D01*
X191Y1771D02*
X197Y1771D01*
X402Y1771D02*
X409Y1771D01*
X602Y1771D02*
X609Y1771D01*
X0Y1770D02*
X7Y1770D01*
X191Y1770D02*
X197Y1770D01*
X402Y1770D02*
X409Y1770D01*
X602Y1770D02*
X609Y1770D01*
X0Y1769D02*
X7Y1769D01*
X190Y1769D02*
X197Y1769D01*
X402Y1769D02*
X409Y1769D01*
X602Y1769D02*
X609Y1769D01*
X0Y1768D02*
X7Y1768D01*
X190Y1768D02*
X197Y1768D01*
X402Y1768D02*
X409Y1768D01*
X602Y1768D02*
X609Y1768D01*
X0Y1767D02*
X7Y1767D01*
X190Y1767D02*
X197Y1767D01*
X402Y1767D02*
X409Y1767D01*
X602Y1767D02*
X609Y1767D01*
X0Y1766D02*
X7Y1766D01*
X190Y1766D02*
X197Y1766D01*
X402Y1766D02*
X409Y1766D01*
X602Y1766D02*
X609Y1766D01*
X0Y1765D02*
X7Y1765D01*
X190Y1765D02*
X197Y1765D01*
X402Y1765D02*
X409Y1765D01*
X602Y1765D02*
X609Y1765D01*
X0Y1764D02*
X7Y1764D01*
X190Y1764D02*
X197Y1764D01*
X402Y1764D02*
X409Y1764D01*
X602Y1764D02*
X609Y1764D01*
X0Y1763D02*
X7Y1763D01*
X190Y1763D02*
X197Y1763D01*
X402Y1763D02*
X409Y1763D01*
X602Y1763D02*
X609Y1763D01*
X0Y1762D02*
X7Y1762D01*
X190Y1762D02*
X197Y1762D01*
X402Y1762D02*
X409Y1762D01*
X602Y1762D02*
X609Y1762D01*
X0Y1761D02*
X7Y1761D01*
X190Y1761D02*
X197Y1761D01*
X402Y1761D02*
X409Y1761D01*
X602Y1761D02*
X609Y1761D01*
X0Y1760D02*
X7Y1760D01*
X190Y1760D02*
X197Y1760D01*
X402Y1760D02*
X409Y1760D01*
X602Y1760D02*
X609Y1760D01*
X0Y1759D02*
X7Y1759D01*
X190Y1759D02*
X197Y1759D01*
X402Y1759D02*
X409Y1759D01*
X602Y1759D02*
X609Y1759D01*
X0Y1758D02*
X7Y1758D01*
X190Y1758D02*
X197Y1758D01*
X402Y1758D02*
X409Y1758D01*
X602Y1758D02*
X609Y1758D01*
X0Y1757D02*
X7Y1757D01*
X190Y1757D02*
X197Y1757D01*
X402Y1757D02*
X409Y1757D01*
X602Y1757D02*
X609Y1757D01*
X0Y1756D02*
X7Y1756D01*
X190Y1756D02*
X197Y1756D01*
X402Y1756D02*
X409Y1756D01*
X602Y1756D02*
X609Y1756D01*
X0Y1755D02*
X7Y1755D01*
X190Y1755D02*
X197Y1755D01*
X402Y1755D02*
X409Y1755D01*
X602Y1755D02*
X609Y1755D01*
X0Y1754D02*
X7Y1754D01*
X190Y1754D02*
X197Y1754D01*
X402Y1754D02*
X409Y1754D01*
X602Y1754D02*
X609Y1754D01*
X0Y1753D02*
X7Y1753D01*
X190Y1753D02*
X197Y1753D01*
X402Y1753D02*
X409Y1753D01*
X602Y1753D02*
X609Y1753D01*
X0Y1752D02*
X7Y1752D01*
X190Y1752D02*
X197Y1752D01*
X402Y1752D02*
X409Y1752D01*
X602Y1752D02*
X609Y1752D01*
X0Y1751D02*
X7Y1751D01*
X190Y1751D02*
X197Y1751D01*
X402Y1751D02*
X409Y1751D01*
X602Y1751D02*
X609Y1751D01*
X0Y1750D02*
X7Y1750D01*
X190Y1750D02*
X197Y1750D01*
X402Y1750D02*
X409Y1750D01*
X602Y1750D02*
X609Y1750D01*
X0Y1749D02*
X7Y1749D01*
X190Y1749D02*
X197Y1749D01*
X402Y1749D02*
X409Y1749D01*
X602Y1749D02*
X609Y1749D01*
X0Y1748D02*
X7Y1748D01*
X190Y1748D02*
X197Y1748D01*
X402Y1748D02*
X409Y1748D01*
X602Y1748D02*
X609Y1748D01*
X0Y1747D02*
X7Y1747D01*
X190Y1747D02*
X197Y1747D01*
X402Y1747D02*
X409Y1747D01*
X602Y1747D02*
X609Y1747D01*
X0Y1746D02*
X7Y1746D01*
X190Y1746D02*
X197Y1746D01*
X402Y1746D02*
X409Y1746D01*
X602Y1746D02*
X609Y1746D01*
X0Y1745D02*
X7Y1745D01*
X191Y1745D02*
X197Y1745D01*
X402Y1745D02*
X409Y1745D01*
X602Y1745D02*
X609Y1745D01*
X0Y1744D02*
X7Y1744D01*
X191Y1744D02*
X198Y1744D01*
X402Y1744D02*
X409Y1744D01*
X602Y1744D02*
X609Y1744D01*
X0Y1743D02*
X7Y1743D01*
X191Y1743D02*
X198Y1743D01*
X402Y1743D02*
X409Y1743D01*
X602Y1743D02*
X609Y1743D01*
X0Y1742D02*
X7Y1742D01*
X191Y1742D02*
X198Y1742D01*
X402Y1742D02*
X409Y1742D01*
X602Y1742D02*
X609Y1742D01*
X0Y1741D02*
X7Y1741D01*
X191Y1741D02*
X198Y1741D01*
X402Y1741D02*
X409Y1741D01*
X602Y1741D02*
X609Y1741D01*
X0Y1740D02*
X7Y1740D01*
X191Y1740D02*
X198Y1740D01*
X402Y1740D02*
X409Y1740D01*
X602Y1740D02*
X609Y1740D01*
X0Y1739D02*
X7Y1739D01*
X191Y1739D02*
X198Y1739D01*
X402Y1739D02*
X409Y1739D01*
X602Y1739D02*
X609Y1739D01*
X0Y1738D02*
X7Y1738D01*
X192Y1738D02*
X198Y1738D01*
X402Y1738D02*
X409Y1738D01*
X602Y1738D02*
X609Y1738D01*
X0Y1737D02*
X7Y1737D01*
X192Y1737D02*
X199Y1737D01*
X402Y1737D02*
X409Y1737D01*
X602Y1737D02*
X609Y1737D01*
X0Y1736D02*
X7Y1736D01*
X192Y1736D02*
X199Y1736D01*
X402Y1736D02*
X409Y1736D01*
X602Y1736D02*
X609Y1736D01*
X0Y1735D02*
X7Y1735D01*
X192Y1735D02*
X199Y1735D01*
X402Y1735D02*
X409Y1735D01*
X602Y1735D02*
X609Y1735D01*
X0Y1734D02*
X7Y1734D01*
X192Y1734D02*
X199Y1734D01*
X402Y1734D02*
X409Y1734D01*
X602Y1734D02*
X609Y1734D01*
X0Y1733D02*
X7Y1733D01*
X192Y1733D02*
X199Y1733D01*
X402Y1733D02*
X409Y1733D01*
X602Y1733D02*
X609Y1733D01*
X0Y1732D02*
X7Y1732D01*
X193Y1732D02*
X200Y1732D01*
X402Y1732D02*
X409Y1732D01*
X602Y1732D02*
X609Y1732D01*
X0Y1731D02*
X7Y1731D01*
X193Y1731D02*
X200Y1731D01*
X402Y1731D02*
X409Y1731D01*
X602Y1731D02*
X609Y1731D01*
X0Y1730D02*
X7Y1730D01*
X193Y1730D02*
X200Y1730D01*
X402Y1730D02*
X409Y1730D01*
X602Y1730D02*
X609Y1730D01*
X0Y1729D02*
X7Y1729D01*
X193Y1729D02*
X200Y1729D01*
X402Y1729D02*
X409Y1729D01*
X602Y1729D02*
X609Y1729D01*
X0Y1728D02*
X7Y1728D01*
X194Y1728D02*
X201Y1728D01*
X402Y1728D02*
X409Y1728D01*
X602Y1728D02*
X609Y1728D01*
X0Y1727D02*
X7Y1727D01*
X194Y1727D02*
X201Y1727D01*
X402Y1727D02*
X409Y1727D01*
X602Y1727D02*
X609Y1727D01*
X0Y1726D02*
X7Y1726D01*
X194Y1726D02*
X201Y1726D01*
X402Y1726D02*
X409Y1726D01*
X602Y1726D02*
X609Y1726D01*
X0Y1725D02*
X7Y1725D01*
X194Y1725D02*
X202Y1725D01*
X402Y1725D02*
X409Y1725D01*
X602Y1725D02*
X609Y1725D01*
X0Y1724D02*
X7Y1724D01*
X195Y1724D02*
X202Y1724D01*
X402Y1724D02*
X409Y1724D01*
X602Y1724D02*
X609Y1724D01*
X0Y1723D02*
X7Y1723D01*
X195Y1723D02*
X202Y1723D01*
X402Y1723D02*
X409Y1723D01*
X602Y1723D02*
X609Y1723D01*
X0Y1722D02*
X7Y1722D01*
X195Y1722D02*
X202Y1722D01*
X402Y1722D02*
X409Y1722D01*
X602Y1722D02*
X609Y1722D01*
X0Y1721D02*
X7Y1721D01*
X196Y1721D02*
X203Y1721D01*
X402Y1721D02*
X409Y1721D01*
X602Y1721D02*
X609Y1721D01*
X0Y1720D02*
X7Y1720D01*
X196Y1720D02*
X203Y1720D01*
X402Y1720D02*
X409Y1720D01*
X602Y1720D02*
X609Y1720D01*
X0Y1719D02*
X7Y1719D01*
X196Y1719D02*
X203Y1719D01*
X402Y1719D02*
X409Y1719D01*
X602Y1719D02*
X609Y1719D01*
X0Y1718D02*
X7Y1718D01*
X197Y1718D02*
X204Y1718D01*
X402Y1718D02*
X409Y1718D01*
X602Y1718D02*
X609Y1718D01*
X0Y1717D02*
X7Y1717D01*
X197Y1717D02*
X204Y1717D01*
X402Y1717D02*
X409Y1717D01*
X602Y1717D02*
X609Y1717D01*
X0Y1716D02*
X7Y1716D01*
X197Y1716D02*
X205Y1716D01*
X402Y1716D02*
X409Y1716D01*
X602Y1716D02*
X609Y1716D01*
X0Y1715D02*
X7Y1715D01*
X198Y1715D02*
X205Y1715D01*
X402Y1715D02*
X409Y1715D01*
X602Y1715D02*
X609Y1715D01*
X0Y1714D02*
X7Y1714D01*
X198Y1714D02*
X205Y1714D01*
X402Y1714D02*
X409Y1714D01*
X602Y1714D02*
X609Y1714D01*
X0Y1713D02*
X7Y1713D01*
X198Y1713D02*
X206Y1713D01*
X402Y1713D02*
X409Y1713D01*
X602Y1713D02*
X609Y1713D01*
X0Y1712D02*
X7Y1712D01*
X199Y1712D02*
X206Y1712D01*
X402Y1712D02*
X409Y1712D01*
X602Y1712D02*
X609Y1712D01*
X0Y1711D02*
X7Y1711D01*
X199Y1711D02*
X207Y1711D01*
X402Y1711D02*
X409Y1711D01*
X602Y1711D02*
X609Y1711D01*
X0Y1710D02*
X7Y1710D01*
X200Y1710D02*
X207Y1710D01*
X402Y1710D02*
X409Y1710D01*
X602Y1710D02*
X609Y1710D01*
X0Y1709D02*
X7Y1709D01*
X200Y1709D02*
X208Y1709D01*
X402Y1709D02*
X409Y1709D01*
X602Y1709D02*
X609Y1709D01*
X0Y1708D02*
X7Y1708D01*
X201Y1708D02*
X208Y1708D01*
X402Y1708D02*
X409Y1708D01*
X602Y1708D02*
X609Y1708D01*
X0Y1707D02*
X7Y1707D01*
X201Y1707D02*
X209Y1707D01*
X402Y1707D02*
X409Y1707D01*
X602Y1707D02*
X609Y1707D01*
X0Y1706D02*
X7Y1706D01*
X201Y1706D02*
X209Y1706D01*
X402Y1706D02*
X409Y1706D01*
X602Y1706D02*
X609Y1706D01*
X0Y1705D02*
X7Y1705D01*
X202Y1705D02*
X210Y1705D01*
X402Y1705D02*
X409Y1705D01*
X602Y1705D02*
X609Y1705D01*
X0Y1704D02*
X7Y1704D01*
X202Y1704D02*
X210Y1704D01*
X402Y1704D02*
X409Y1704D01*
X602Y1704D02*
X609Y1704D01*
X0Y1703D02*
X7Y1703D01*
X203Y1703D02*
X211Y1703D01*
X402Y1703D02*
X409Y1703D01*
X602Y1703D02*
X609Y1703D01*
X0Y1702D02*
X7Y1702D01*
X203Y1702D02*
X211Y1702D01*
X402Y1702D02*
X409Y1702D01*
X602Y1702D02*
X609Y1702D01*
X0Y1701D02*
X7Y1701D01*
X204Y1701D02*
X212Y1701D01*
X402Y1701D02*
X409Y1701D01*
X602Y1701D02*
X609Y1701D01*
X0Y1700D02*
X7Y1700D01*
X205Y1700D02*
X212Y1700D01*
X402Y1700D02*
X409Y1700D01*
X602Y1700D02*
X609Y1700D01*
X0Y1699D02*
X7Y1699D01*
X205Y1699D02*
X213Y1699D01*
X402Y1699D02*
X409Y1699D01*
X602Y1699D02*
X609Y1699D01*
X0Y1698D02*
X7Y1698D01*
X206Y1698D02*
X214Y1698D01*
X402Y1698D02*
X409Y1698D01*
X602Y1698D02*
X609Y1698D01*
X0Y1697D02*
X7Y1697D01*
X206Y1697D02*
X214Y1697D01*
X402Y1697D02*
X409Y1697D01*
X602Y1697D02*
X609Y1697D01*
X0Y1696D02*
X7Y1696D01*
X207Y1696D02*
X215Y1696D01*
X402Y1696D02*
X409Y1696D01*
X602Y1696D02*
X609Y1696D01*
X0Y1695D02*
X7Y1695D01*
X207Y1695D02*
X215Y1695D01*
X402Y1695D02*
X409Y1695D01*
X602Y1695D02*
X609Y1695D01*
X0Y1694D02*
X7Y1694D01*
X208Y1694D02*
X216Y1694D01*
X402Y1694D02*
X409Y1694D01*
X602Y1694D02*
X609Y1694D01*
X0Y1693D02*
X7Y1693D01*
X209Y1693D02*
X217Y1693D01*
X402Y1693D02*
X409Y1693D01*
X602Y1693D02*
X609Y1693D01*
X0Y1692D02*
X7Y1692D01*
X209Y1692D02*
X218Y1692D01*
X402Y1692D02*
X409Y1692D01*
X602Y1692D02*
X609Y1692D01*
X0Y1691D02*
X7Y1691D01*
X210Y1691D02*
X218Y1691D01*
X402Y1691D02*
X409Y1691D01*
X602Y1691D02*
X609Y1691D01*
X0Y1690D02*
X7Y1690D01*
X211Y1690D02*
X219Y1690D01*
X402Y1690D02*
X409Y1690D01*
X602Y1690D02*
X609Y1690D01*
X0Y1689D02*
X7Y1689D01*
X211Y1689D02*
X220Y1689D01*
X402Y1689D02*
X409Y1689D01*
X602Y1689D02*
X609Y1689D01*
X0Y1688D02*
X7Y1688D01*
X212Y1688D02*
X220Y1688D01*
X402Y1688D02*
X409Y1688D01*
X602Y1688D02*
X609Y1688D01*
X0Y1687D02*
X7Y1687D01*
X213Y1687D02*
X221Y1687D01*
X401Y1687D02*
X409Y1687D01*
X602Y1687D02*
X609Y1687D01*
X0Y1686D02*
X7Y1686D01*
X213Y1686D02*
X222Y1686D01*
X400Y1686D02*
X409Y1686D01*
X602Y1686D02*
X609Y1686D01*
X0Y1685D02*
X7Y1685D01*
X214Y1685D02*
X223Y1685D01*
X400Y1685D02*
X408Y1685D01*
X602Y1685D02*
X609Y1685D01*
X0Y1684D02*
X7Y1684D01*
X215Y1684D02*
X224Y1684D01*
X399Y1684D02*
X408Y1684D01*
X602Y1684D02*
X609Y1684D01*
X0Y1683D02*
X7Y1683D01*
X216Y1683D02*
X225Y1683D01*
X398Y1683D02*
X407Y1683D01*
X602Y1683D02*
X609Y1683D01*
X0Y1682D02*
X7Y1682D01*
X216Y1682D02*
X225Y1682D01*
X397Y1682D02*
X406Y1682D01*
X602Y1682D02*
X609Y1682D01*
X0Y1681D02*
X7Y1681D01*
X217Y1681D02*
X226Y1681D01*
X396Y1681D02*
X405Y1681D01*
X602Y1681D02*
X609Y1681D01*
X0Y1680D02*
X7Y1680D01*
X218Y1680D02*
X227Y1680D01*
X395Y1680D02*
X405Y1680D01*
X602Y1680D02*
X609Y1680D01*
X0Y1679D02*
X7Y1679D01*
X219Y1679D02*
X228Y1679D01*
X394Y1679D02*
X404Y1679D01*
X602Y1679D02*
X609Y1679D01*
X0Y1678D02*
X7Y1678D01*
X220Y1678D02*
X229Y1678D01*
X393Y1678D02*
X403Y1678D01*
X602Y1678D02*
X609Y1678D01*
X0Y1677D02*
X7Y1677D01*
X220Y1677D02*
X230Y1677D01*
X392Y1677D02*
X402Y1677D01*
X602Y1677D02*
X609Y1677D01*
X0Y1676D02*
X7Y1676D01*
X221Y1676D02*
X231Y1676D01*
X391Y1676D02*
X401Y1676D01*
X602Y1676D02*
X609Y1676D01*
X0Y1675D02*
X7Y1675D01*
X222Y1675D02*
X232Y1675D01*
X390Y1675D02*
X400Y1675D01*
X602Y1675D02*
X609Y1675D01*
X0Y1674D02*
X7Y1674D01*
X223Y1674D02*
X233Y1674D01*
X389Y1674D02*
X399Y1674D01*
X602Y1674D02*
X609Y1674D01*
X0Y1673D02*
X7Y1673D01*
X224Y1673D02*
X235Y1673D01*
X388Y1673D02*
X398Y1673D01*
X602Y1673D02*
X609Y1673D01*
X0Y1672D02*
X7Y1672D01*
X225Y1672D02*
X236Y1672D01*
X387Y1672D02*
X397Y1672D01*
X602Y1672D02*
X609Y1672D01*
X0Y1671D02*
X7Y1671D01*
X226Y1671D02*
X237Y1671D01*
X386Y1671D02*
X396Y1671D01*
X602Y1671D02*
X609Y1671D01*
X0Y1670D02*
X7Y1670D01*
X227Y1670D02*
X238Y1670D01*
X385Y1670D02*
X395Y1670D01*
X602Y1670D02*
X609Y1670D01*
X0Y1669D02*
X7Y1669D01*
X228Y1669D02*
X239Y1669D01*
X383Y1669D02*
X394Y1669D01*
X602Y1669D02*
X609Y1669D01*
X0Y1668D02*
X7Y1668D01*
X229Y1668D02*
X241Y1668D01*
X382Y1668D02*
X393Y1668D01*
X602Y1668D02*
X609Y1668D01*
X0Y1667D02*
X7Y1667D01*
X230Y1667D02*
X242Y1667D01*
X381Y1667D02*
X392Y1667D01*
X602Y1667D02*
X609Y1667D01*
X0Y1666D02*
X7Y1666D01*
X232Y1666D02*
X243Y1666D01*
X380Y1666D02*
X391Y1666D01*
X602Y1666D02*
X609Y1666D01*
X0Y1665D02*
X7Y1665D01*
X233Y1665D02*
X245Y1665D01*
X378Y1665D02*
X390Y1665D01*
X602Y1665D02*
X609Y1665D01*
X0Y1664D02*
X7Y1664D01*
X234Y1664D02*
X246Y1664D01*
X377Y1664D02*
X389Y1664D01*
X602Y1664D02*
X609Y1664D01*
X0Y1663D02*
X7Y1663D01*
X235Y1663D02*
X247Y1663D01*
X375Y1663D02*
X387Y1663D01*
X602Y1663D02*
X609Y1663D01*
X0Y1662D02*
X7Y1662D01*
X236Y1662D02*
X249Y1662D01*
X374Y1662D02*
X386Y1662D01*
X602Y1662D02*
X609Y1662D01*
X0Y1661D02*
X7Y1661D01*
X238Y1661D02*
X250Y1661D01*
X372Y1661D02*
X385Y1661D01*
X602Y1661D02*
X609Y1661D01*
X0Y1660D02*
X7Y1660D01*
X239Y1660D02*
X252Y1660D01*
X371Y1660D02*
X384Y1660D01*
X602Y1660D02*
X609Y1660D01*
X0Y1659D02*
X7Y1659D01*
X240Y1659D02*
X254Y1659D01*
X369Y1659D02*
X382Y1659D01*
X602Y1659D02*
X609Y1659D01*
X0Y1658D02*
X7Y1658D01*
X242Y1658D02*
X256Y1658D01*
X367Y1658D02*
X381Y1658D01*
X602Y1658D02*
X609Y1658D01*
X0Y1657D02*
X7Y1657D01*
X243Y1657D02*
X257Y1657D01*
X365Y1657D02*
X379Y1657D01*
X602Y1657D02*
X609Y1657D01*
X0Y1656D02*
X7Y1656D01*
X245Y1656D02*
X259Y1656D01*
X363Y1656D02*
X378Y1656D01*
X602Y1656D02*
X609Y1656D01*
X0Y1655D02*
X7Y1655D01*
X246Y1655D02*
X261Y1655D01*
X361Y1655D02*
X376Y1655D01*
X602Y1655D02*
X609Y1655D01*
X0Y1654D02*
X7Y1654D01*
X248Y1654D02*
X263Y1654D01*
X359Y1654D02*
X375Y1654D01*
X602Y1654D02*
X609Y1654D01*
X0Y1653D02*
X7Y1653D01*
X249Y1653D02*
X266Y1653D01*
X357Y1653D02*
X373Y1653D01*
X602Y1653D02*
X609Y1653D01*
X0Y1652D02*
X7Y1652D01*
X251Y1652D02*
X268Y1652D01*
X355Y1652D02*
X371Y1652D01*
X602Y1652D02*
X609Y1652D01*
X0Y1651D02*
X7Y1651D01*
X253Y1651D02*
X271Y1651D01*
X352Y1651D02*
X369Y1651D01*
X602Y1651D02*
X609Y1651D01*
X0Y1650D02*
X7Y1650D01*
X255Y1650D02*
X273Y1650D01*
X349Y1650D02*
X368Y1650D01*
X602Y1650D02*
X609Y1650D01*
X0Y1649D02*
X7Y1649D01*
X257Y1649D02*
X276Y1649D01*
X346Y1649D02*
X366Y1649D01*
X602Y1649D02*
X609Y1649D01*
X0Y1648D02*
X7Y1648D01*
X259Y1648D02*
X280Y1648D01*
X343Y1648D02*
X364Y1648D01*
X602Y1648D02*
X609Y1648D01*
X0Y1647D02*
X7Y1647D01*
X261Y1647D02*
X283Y1647D01*
X339Y1647D02*
X362Y1647D01*
X602Y1647D02*
X609Y1647D01*
X0Y1646D02*
X7Y1646D01*
X263Y1646D02*
X288Y1646D01*
X334Y1646D02*
X359Y1646D01*
X602Y1646D02*
X609Y1646D01*
X0Y1645D02*
X7Y1645D01*
X266Y1645D02*
X293Y1645D01*
X329Y1645D02*
X357Y1645D01*
X602Y1645D02*
X609Y1645D01*
X0Y1644D02*
X7Y1644D01*
X268Y1644D02*
X302Y1644D01*
X319Y1644D02*
X354Y1644D01*
X602Y1644D02*
X609Y1644D01*
X0Y1643D02*
X7Y1643D01*
X271Y1643D02*
X352Y1643D01*
X602Y1643D02*
X609Y1643D01*
X0Y1642D02*
X7Y1642D01*
X274Y1642D02*
X349Y1642D01*
X602Y1642D02*
X609Y1642D01*
X0Y1641D02*
X7Y1641D01*
X277Y1641D02*
X346Y1641D01*
X602Y1641D02*
X609Y1641D01*
X0Y1640D02*
X7Y1640D01*
X281Y1640D02*
X342Y1640D01*
X602Y1640D02*
X609Y1640D01*
X0Y1639D02*
X7Y1639D01*
X285Y1639D02*
X338Y1639D01*
X602Y1639D02*
X609Y1639D01*
X0Y1638D02*
X7Y1638D01*
X289Y1638D02*
X334Y1638D01*
X602Y1638D02*
X609Y1638D01*
X0Y1637D02*
X7Y1637D01*
X296Y1637D02*
X327Y1637D01*
X602Y1637D02*
X609Y1637D01*
X0Y1636D02*
X7Y1636D01*
X307Y1636D02*
X317Y1636D01*
X602Y1636D02*
X609Y1636D01*
X0Y1635D02*
X7Y1635D01*
X602Y1635D02*
X609Y1635D01*
X0Y1634D02*
X7Y1634D01*
X602Y1634D02*
X609Y1634D01*
X0Y1633D02*
X7Y1633D01*
X602Y1633D02*
X609Y1633D01*
X0Y1632D02*
X7Y1632D01*
X602Y1632D02*
X609Y1632D01*
X0Y1631D02*
X7Y1631D01*
X602Y1631D02*
X609Y1631D01*
X0Y1630D02*
X7Y1630D01*
X221Y1630D02*
X222Y1630D01*
X269Y1630D02*
X299Y1630D01*
X322Y1630D02*
X336Y1630D01*
X372Y1630D02*
X397Y1630D01*
X602Y1630D02*
X609Y1630D01*
X0Y1629D02*
X7Y1629D01*
X220Y1629D02*
X223Y1629D01*
X269Y1629D02*
X301Y1629D01*
X320Y1629D02*
X339Y1629D01*
X370Y1629D02*
X399Y1629D01*
X602Y1629D02*
X609Y1629D01*
X0Y1628D02*
X7Y1628D01*
X219Y1628D02*
X224Y1628D01*
X269Y1628D02*
X302Y1628D01*
X319Y1628D02*
X340Y1628D01*
X369Y1628D02*
X400Y1628D01*
X602Y1628D02*
X609Y1628D01*
X0Y1627D02*
X7Y1627D01*
X219Y1627D02*
X224Y1627D01*
X269Y1627D02*
X302Y1627D01*
X319Y1627D02*
X342Y1627D01*
X369Y1627D02*
X401Y1627D01*
X602Y1627D02*
X609Y1627D01*
X0Y1626D02*
X7Y1626D01*
X219Y1626D02*
X225Y1626D01*
X269Y1626D02*
X302Y1626D01*
X319Y1626D02*
X342Y1626D01*
X369Y1626D02*
X402Y1626D01*
X602Y1626D02*
X609Y1626D01*
X0Y1625D02*
X7Y1625D01*
X219Y1625D02*
X225Y1625D01*
X269Y1625D02*
X302Y1625D01*
X319Y1625D02*
X343Y1625D01*
X369Y1625D02*
X402Y1625D01*
X602Y1625D02*
X609Y1625D01*
X0Y1624D02*
X7Y1624D01*
X219Y1624D02*
X225Y1624D01*
X269Y1624D02*
X301Y1624D01*
X320Y1624D02*
X344Y1624D01*
X370Y1624D02*
X402Y1624D01*
X602Y1624D02*
X609Y1624D01*
X0Y1623D02*
X7Y1623D01*
X219Y1623D02*
X225Y1623D01*
X269Y1623D02*
X275Y1623D01*
X325Y1623D02*
X332Y1623D01*
X336Y1623D02*
X344Y1623D01*
X396Y1623D02*
X403Y1623D01*
X602Y1623D02*
X609Y1623D01*
X0Y1622D02*
X7Y1622D01*
X219Y1622D02*
X225Y1622D01*
X269Y1622D02*
X275Y1622D01*
X326Y1622D02*
X332Y1622D01*
X338Y1622D02*
X345Y1622D01*
X397Y1622D02*
X403Y1622D01*
X602Y1622D02*
X609Y1622D01*
X0Y1621D02*
X7Y1621D01*
X219Y1621D02*
X225Y1621D01*
X269Y1621D02*
X275Y1621D01*
X326Y1621D02*
X332Y1621D01*
X338Y1621D02*
X345Y1621D01*
X397Y1621D02*
X403Y1621D01*
X602Y1621D02*
X609Y1621D01*
X0Y1620D02*
X7Y1620D01*
X219Y1620D02*
X225Y1620D01*
X269Y1620D02*
X275Y1620D01*
X326Y1620D02*
X332Y1620D01*
X339Y1620D02*
X346Y1620D01*
X397Y1620D02*
X403Y1620D01*
X602Y1620D02*
X609Y1620D01*
X0Y1619D02*
X7Y1619D01*
X219Y1619D02*
X225Y1619D01*
X269Y1619D02*
X275Y1619D01*
X326Y1619D02*
X332Y1619D01*
X339Y1619D02*
X346Y1619D01*
X397Y1619D02*
X403Y1619D01*
X602Y1619D02*
X609Y1619D01*
X0Y1618D02*
X7Y1618D01*
X219Y1618D02*
X225Y1618D01*
X269Y1618D02*
X275Y1618D01*
X326Y1618D02*
X332Y1618D01*
X340Y1618D02*
X347Y1618D01*
X397Y1618D02*
X403Y1618D01*
X602Y1618D02*
X609Y1618D01*
X0Y1617D02*
X7Y1617D01*
X219Y1617D02*
X225Y1617D01*
X269Y1617D02*
X275Y1617D01*
X326Y1617D02*
X332Y1617D01*
X340Y1617D02*
X347Y1617D01*
X397Y1617D02*
X403Y1617D01*
X602Y1617D02*
X609Y1617D01*
X0Y1616D02*
X7Y1616D01*
X219Y1616D02*
X225Y1616D01*
X269Y1616D02*
X275Y1616D01*
X326Y1616D02*
X332Y1616D01*
X341Y1616D02*
X348Y1616D01*
X397Y1616D02*
X403Y1616D01*
X602Y1616D02*
X609Y1616D01*
X0Y1615D02*
X7Y1615D01*
X219Y1615D02*
X225Y1615D01*
X269Y1615D02*
X275Y1615D01*
X326Y1615D02*
X332Y1615D01*
X341Y1615D02*
X348Y1615D01*
X397Y1615D02*
X403Y1615D01*
X602Y1615D02*
X609Y1615D01*
X0Y1614D02*
X7Y1614D01*
X219Y1614D02*
X225Y1614D01*
X269Y1614D02*
X275Y1614D01*
X326Y1614D02*
X332Y1614D01*
X342Y1614D02*
X349Y1614D01*
X397Y1614D02*
X403Y1614D01*
X602Y1614D02*
X609Y1614D01*
X0Y1613D02*
X7Y1613D01*
X219Y1613D02*
X225Y1613D01*
X269Y1613D02*
X275Y1613D01*
X326Y1613D02*
X332Y1613D01*
X342Y1613D02*
X349Y1613D01*
X397Y1613D02*
X403Y1613D01*
X602Y1613D02*
X609Y1613D01*
X0Y1612D02*
X7Y1612D01*
X219Y1612D02*
X225Y1612D01*
X269Y1612D02*
X275Y1612D01*
X326Y1612D02*
X332Y1612D01*
X343Y1612D02*
X350Y1612D01*
X397Y1612D02*
X403Y1612D01*
X602Y1612D02*
X609Y1612D01*
X0Y1611D02*
X7Y1611D01*
X219Y1611D02*
X225Y1611D01*
X269Y1611D02*
X275Y1611D01*
X326Y1611D02*
X332Y1611D01*
X343Y1611D02*
X350Y1611D01*
X397Y1611D02*
X403Y1611D01*
X602Y1611D02*
X609Y1611D01*
X0Y1610D02*
X7Y1610D01*
X219Y1610D02*
X225Y1610D01*
X269Y1610D02*
X275Y1610D01*
X326Y1610D02*
X332Y1610D01*
X344Y1610D02*
X351Y1610D01*
X397Y1610D02*
X403Y1610D01*
X602Y1610D02*
X609Y1610D01*
X0Y1609D02*
X7Y1609D01*
X219Y1609D02*
X225Y1609D01*
X269Y1609D02*
X275Y1609D01*
X326Y1609D02*
X332Y1609D01*
X344Y1609D02*
X351Y1609D01*
X397Y1609D02*
X403Y1609D01*
X602Y1609D02*
X609Y1609D01*
X0Y1608D02*
X7Y1608D01*
X219Y1608D02*
X225Y1608D01*
X269Y1608D02*
X275Y1608D01*
X326Y1608D02*
X332Y1608D01*
X345Y1608D02*
X351Y1608D01*
X397Y1608D02*
X403Y1608D01*
X602Y1608D02*
X609Y1608D01*
X0Y1607D02*
X7Y1607D01*
X219Y1607D02*
X225Y1607D01*
X269Y1607D02*
X275Y1607D01*
X326Y1607D02*
X332Y1607D01*
X345Y1607D02*
X352Y1607D01*
X397Y1607D02*
X403Y1607D01*
X602Y1607D02*
X609Y1607D01*
X0Y1606D02*
X7Y1606D01*
X219Y1606D02*
X225Y1606D01*
X269Y1606D02*
X287Y1606D01*
X326Y1606D02*
X332Y1606D01*
X346Y1606D02*
X352Y1606D01*
X373Y1606D02*
X402Y1606D01*
X602Y1606D02*
X609Y1606D01*
X0Y1605D02*
X7Y1605D01*
X219Y1605D02*
X225Y1605D01*
X269Y1605D02*
X288Y1605D01*
X326Y1605D02*
X332Y1605D01*
X346Y1605D02*
X352Y1605D01*
X372Y1605D02*
X402Y1605D01*
X602Y1605D02*
X609Y1605D01*
X0Y1604D02*
X7Y1604D01*
X219Y1604D02*
X225Y1604D01*
X269Y1604D02*
X288Y1604D01*
X326Y1604D02*
X332Y1604D01*
X346Y1604D02*
X352Y1604D01*
X371Y1604D02*
X402Y1604D01*
X602Y1604D02*
X609Y1604D01*
X0Y1603D02*
X7Y1603D01*
X219Y1603D02*
X225Y1603D01*
X269Y1603D02*
X288Y1603D01*
X326Y1603D02*
X332Y1603D01*
X346Y1603D02*
X352Y1603D01*
X370Y1603D02*
X401Y1603D01*
X602Y1603D02*
X609Y1603D01*
X0Y1602D02*
X7Y1602D01*
X219Y1602D02*
X225Y1602D01*
X269Y1602D02*
X288Y1602D01*
X326Y1602D02*
X332Y1602D01*
X346Y1602D02*
X352Y1602D01*
X369Y1602D02*
X401Y1602D01*
X602Y1602D02*
X609Y1602D01*
X0Y1601D02*
X7Y1601D01*
X219Y1601D02*
X225Y1601D01*
X269Y1601D02*
X288Y1601D01*
X326Y1601D02*
X332Y1601D01*
X346Y1601D02*
X352Y1601D01*
X369Y1601D02*
X400Y1601D01*
X602Y1601D02*
X609Y1601D01*
X0Y1600D02*
X7Y1600D01*
X219Y1600D02*
X225Y1600D01*
X269Y1600D02*
X286Y1600D01*
X326Y1600D02*
X332Y1600D01*
X346Y1600D02*
X352Y1600D01*
X369Y1600D02*
X398Y1600D01*
X602Y1600D02*
X609Y1600D01*
X0Y1599D02*
X7Y1599D01*
X219Y1599D02*
X225Y1599D01*
X269Y1599D02*
X275Y1599D01*
X326Y1599D02*
X332Y1599D01*
X345Y1599D02*
X352Y1599D01*
X369Y1599D02*
X375Y1599D01*
X602Y1599D02*
X609Y1599D01*
X0Y1598D02*
X7Y1598D01*
X219Y1598D02*
X225Y1598D01*
X269Y1598D02*
X275Y1598D01*
X326Y1598D02*
X332Y1598D01*
X345Y1598D02*
X351Y1598D01*
X369Y1598D02*
X375Y1598D01*
X602Y1598D02*
X609Y1598D01*
X0Y1597D02*
X7Y1597D01*
X219Y1597D02*
X225Y1597D01*
X269Y1597D02*
X275Y1597D01*
X326Y1597D02*
X332Y1597D01*
X344Y1597D02*
X351Y1597D01*
X369Y1597D02*
X375Y1597D01*
X602Y1597D02*
X609Y1597D01*
X0Y1596D02*
X7Y1596D01*
X219Y1596D02*
X225Y1596D01*
X269Y1596D02*
X275Y1596D01*
X326Y1596D02*
X332Y1596D01*
X344Y1596D02*
X351Y1596D01*
X369Y1596D02*
X375Y1596D01*
X602Y1596D02*
X609Y1596D01*
X0Y1595D02*
X7Y1595D01*
X219Y1595D02*
X225Y1595D01*
X269Y1595D02*
X275Y1595D01*
X326Y1595D02*
X332Y1595D01*
X343Y1595D02*
X350Y1595D01*
X369Y1595D02*
X375Y1595D01*
X602Y1595D02*
X609Y1595D01*
X0Y1594D02*
X7Y1594D01*
X219Y1594D02*
X225Y1594D01*
X269Y1594D02*
X275Y1594D01*
X326Y1594D02*
X332Y1594D01*
X343Y1594D02*
X350Y1594D01*
X369Y1594D02*
X375Y1594D01*
X602Y1594D02*
X609Y1594D01*
X0Y1593D02*
X7Y1593D01*
X219Y1593D02*
X225Y1593D01*
X269Y1593D02*
X275Y1593D01*
X326Y1593D02*
X332Y1593D01*
X342Y1593D02*
X349Y1593D01*
X369Y1593D02*
X375Y1593D01*
X602Y1593D02*
X609Y1593D01*
X0Y1592D02*
X7Y1592D01*
X219Y1592D02*
X225Y1592D01*
X269Y1592D02*
X275Y1592D01*
X326Y1592D02*
X332Y1592D01*
X342Y1592D02*
X349Y1592D01*
X369Y1592D02*
X375Y1592D01*
X602Y1592D02*
X609Y1592D01*
X0Y1591D02*
X7Y1591D01*
X219Y1591D02*
X225Y1591D01*
X269Y1591D02*
X275Y1591D01*
X326Y1591D02*
X332Y1591D01*
X341Y1591D02*
X348Y1591D01*
X369Y1591D02*
X375Y1591D01*
X602Y1591D02*
X609Y1591D01*
X0Y1590D02*
X7Y1590D01*
X219Y1590D02*
X225Y1590D01*
X269Y1590D02*
X275Y1590D01*
X326Y1590D02*
X332Y1590D01*
X341Y1590D02*
X348Y1590D01*
X369Y1590D02*
X375Y1590D01*
X602Y1590D02*
X609Y1590D01*
X0Y1589D02*
X7Y1589D01*
X219Y1589D02*
X225Y1589D01*
X269Y1589D02*
X275Y1589D01*
X326Y1589D02*
X332Y1589D01*
X340Y1589D02*
X347Y1589D01*
X369Y1589D02*
X375Y1589D01*
X602Y1589D02*
X609Y1589D01*
X0Y1588D02*
X7Y1588D01*
X219Y1588D02*
X225Y1588D01*
X269Y1588D02*
X275Y1588D01*
X326Y1588D02*
X332Y1588D01*
X340Y1588D02*
X347Y1588D01*
X369Y1588D02*
X375Y1588D01*
X602Y1588D02*
X609Y1588D01*
X0Y1587D02*
X7Y1587D01*
X219Y1587D02*
X225Y1587D01*
X269Y1587D02*
X275Y1587D01*
X326Y1587D02*
X332Y1587D01*
X339Y1587D02*
X346Y1587D01*
X369Y1587D02*
X375Y1587D01*
X602Y1587D02*
X609Y1587D01*
X0Y1586D02*
X7Y1586D01*
X219Y1586D02*
X225Y1586D01*
X269Y1586D02*
X275Y1586D01*
X326Y1586D02*
X332Y1586D01*
X339Y1586D02*
X346Y1586D01*
X369Y1586D02*
X375Y1586D01*
X602Y1586D02*
X609Y1586D01*
X0Y1585D02*
X7Y1585D01*
X219Y1585D02*
X225Y1585D01*
X269Y1585D02*
X275Y1585D01*
X326Y1585D02*
X332Y1585D01*
X338Y1585D02*
X345Y1585D01*
X369Y1585D02*
X375Y1585D01*
X602Y1585D02*
X609Y1585D01*
X0Y1584D02*
X7Y1584D01*
X219Y1584D02*
X225Y1584D01*
X269Y1584D02*
X275Y1584D01*
X326Y1584D02*
X332Y1584D01*
X338Y1584D02*
X345Y1584D01*
X369Y1584D02*
X375Y1584D01*
X602Y1584D02*
X609Y1584D01*
X0Y1583D02*
X7Y1583D01*
X219Y1583D02*
X248Y1583D01*
X269Y1583D02*
X298Y1583D01*
X323Y1583D02*
X344Y1583D01*
X369Y1583D02*
X399Y1583D01*
X602Y1583D02*
X609Y1583D01*
X0Y1582D02*
X7Y1582D01*
X219Y1582D02*
X251Y1582D01*
X269Y1582D02*
X301Y1582D01*
X320Y1582D02*
X344Y1582D01*
X369Y1582D02*
X401Y1582D01*
X602Y1582D02*
X609Y1582D01*
X0Y1581D02*
X7Y1581D01*
X219Y1581D02*
X252Y1581D01*
X269Y1581D02*
X302Y1581D01*
X319Y1581D02*
X343Y1581D01*
X369Y1581D02*
X402Y1581D01*
X602Y1581D02*
X609Y1581D01*
X0Y1580D02*
X7Y1580D01*
X219Y1580D02*
X252Y1580D01*
X269Y1580D02*
X302Y1580D01*
X319Y1580D02*
X343Y1580D01*
X369Y1580D02*
X402Y1580D01*
X602Y1580D02*
X609Y1580D01*
X0Y1579D02*
X7Y1579D01*
X219Y1579D02*
X252Y1579D01*
X269Y1579D02*
X342Y1579D01*
X369Y1579D02*
X402Y1579D01*
X602Y1579D02*
X609Y1579D01*
X0Y1578D02*
X7Y1578D01*
X219Y1578D02*
X252Y1578D01*
X269Y1578D02*
X340Y1578D01*
X369Y1578D02*
X402Y1578D01*
X602Y1578D02*
X609Y1578D01*
X0Y1577D02*
X7Y1577D01*
X219Y1577D02*
X251Y1577D01*
X269Y1577D02*
X339Y1577D01*
X369Y1577D02*
X401Y1577D01*
X602Y1577D02*
X609Y1577D01*
X0Y1576D02*
X7Y1576D01*
X219Y1576D02*
X248Y1576D01*
X269Y1576D02*
X341Y1576D01*
X369Y1576D02*
X399Y1576D01*
X602Y1576D02*
X609Y1576D01*
X0Y1575D02*
X7Y1575D01*
X277Y1575D02*
X345Y1575D01*
X602Y1575D02*
X609Y1575D01*
X0Y1574D02*
X7Y1574D01*
X274Y1574D02*
X348Y1574D01*
X602Y1574D02*
X609Y1574D01*
X0Y1573D02*
X7Y1573D01*
X271Y1573D02*
X351Y1573D01*
X602Y1573D02*
X609Y1573D01*
X0Y1572D02*
X7Y1572D01*
X269Y1572D02*
X306Y1572D01*
X317Y1572D02*
X354Y1572D01*
X602Y1572D02*
X609Y1572D01*
X0Y1571D02*
X7Y1571D01*
X266Y1571D02*
X295Y1571D01*
X328Y1571D02*
X357Y1571D01*
X602Y1571D02*
X609Y1571D01*
X0Y1570D02*
X7Y1570D01*
X264Y1570D02*
X289Y1570D01*
X334Y1570D02*
X359Y1570D01*
X602Y1570D02*
X609Y1570D01*
X0Y1569D02*
X7Y1569D01*
X261Y1569D02*
X284Y1569D01*
X338Y1569D02*
X361Y1569D01*
X602Y1569D02*
X609Y1569D01*
X0Y1568D02*
X7Y1568D01*
X259Y1568D02*
X281Y1568D01*
X342Y1568D02*
X363Y1568D01*
X602Y1568D02*
X609Y1568D01*
X0Y1567D02*
X7Y1567D01*
X257Y1567D02*
X277Y1567D01*
X346Y1567D02*
X365Y1567D01*
X602Y1567D02*
X609Y1567D01*
X0Y1566D02*
X7Y1566D01*
X255Y1566D02*
X274Y1566D01*
X349Y1566D02*
X367Y1566D01*
X602Y1566D02*
X609Y1566D01*
X0Y1565D02*
X7Y1565D01*
X253Y1565D02*
X271Y1565D01*
X352Y1565D02*
X369Y1565D01*
X602Y1565D02*
X609Y1565D01*
X0Y1564D02*
X7Y1564D01*
X252Y1564D02*
X268Y1564D01*
X354Y1564D02*
X371Y1564D01*
X602Y1564D02*
X609Y1564D01*
X0Y1563D02*
X7Y1563D01*
X250Y1563D02*
X266Y1563D01*
X357Y1563D02*
X373Y1563D01*
X602Y1563D02*
X609Y1563D01*
X0Y1562D02*
X7Y1562D01*
X248Y1562D02*
X264Y1562D01*
X359Y1562D02*
X374Y1562D01*
X602Y1562D02*
X609Y1562D01*
X0Y1561D02*
X7Y1561D01*
X247Y1561D02*
X262Y1561D01*
X361Y1561D02*
X376Y1561D01*
X602Y1561D02*
X609Y1561D01*
X0Y1560D02*
X7Y1560D01*
X245Y1560D02*
X260Y1560D01*
X363Y1560D02*
X378Y1560D01*
X602Y1560D02*
X609Y1560D01*
X0Y1559D02*
X7Y1559D01*
X244Y1559D02*
X258Y1559D01*
X365Y1559D02*
X379Y1559D01*
X602Y1559D02*
X609Y1559D01*
X0Y1558D02*
X7Y1558D01*
X242Y1558D02*
X256Y1558D01*
X367Y1558D02*
X381Y1558D01*
X602Y1558D02*
X609Y1558D01*
X0Y1557D02*
X7Y1557D01*
X241Y1557D02*
X254Y1557D01*
X368Y1557D02*
X382Y1557D01*
X602Y1557D02*
X609Y1557D01*
X0Y1556D02*
X7Y1556D01*
X239Y1556D02*
X252Y1556D01*
X370Y1556D02*
X383Y1556D01*
X602Y1556D02*
X609Y1556D01*
X0Y1555D02*
X7Y1555D01*
X238Y1555D02*
X251Y1555D01*
X372Y1555D02*
X385Y1555D01*
X602Y1555D02*
X609Y1555D01*
X0Y1554D02*
X7Y1554D01*
X237Y1554D02*
X249Y1554D01*
X373Y1554D02*
X386Y1554D01*
X602Y1554D02*
X609Y1554D01*
X0Y1553D02*
X7Y1553D01*
X235Y1553D02*
X247Y1553D01*
X375Y1553D02*
X387Y1553D01*
X602Y1553D02*
X609Y1553D01*
X0Y1552D02*
X7Y1552D01*
X234Y1552D02*
X246Y1552D01*
X376Y1552D02*
X388Y1552D01*
X602Y1552D02*
X609Y1552D01*
X0Y1551D02*
X7Y1551D01*
X233Y1551D02*
X245Y1551D01*
X378Y1551D02*
X390Y1551D01*
X602Y1551D02*
X609Y1551D01*
X0Y1550D02*
X7Y1550D01*
X232Y1550D02*
X243Y1550D01*
X379Y1550D02*
X391Y1550D01*
X602Y1550D02*
X609Y1550D01*
X0Y1549D02*
X7Y1549D01*
X231Y1549D02*
X242Y1549D01*
X381Y1549D02*
X392Y1549D01*
X602Y1549D02*
X609Y1549D01*
X0Y1548D02*
X7Y1548D01*
X230Y1548D02*
X241Y1548D01*
X382Y1548D02*
X393Y1548D01*
X602Y1548D02*
X609Y1548D01*
X0Y1547D02*
X7Y1547D01*
X228Y1547D02*
X239Y1547D01*
X383Y1547D02*
X394Y1547D01*
X602Y1547D02*
X609Y1547D01*
X0Y1546D02*
X7Y1546D01*
X227Y1546D02*
X238Y1546D01*
X384Y1546D02*
X395Y1546D01*
X602Y1546D02*
X609Y1546D01*
X0Y1545D02*
X7Y1545D01*
X226Y1545D02*
X237Y1545D01*
X385Y1545D02*
X396Y1545D01*
X602Y1545D02*
X609Y1545D01*
X0Y1544D02*
X7Y1544D01*
X225Y1544D02*
X236Y1544D01*
X387Y1544D02*
X397Y1544D01*
X602Y1544D02*
X609Y1544D01*
X0Y1543D02*
X7Y1543D01*
X224Y1543D02*
X235Y1543D01*
X388Y1543D02*
X398Y1543D01*
X602Y1543D02*
X609Y1543D01*
X0Y1542D02*
X7Y1542D01*
X223Y1542D02*
X234Y1542D01*
X389Y1542D02*
X399Y1542D01*
X602Y1542D02*
X609Y1542D01*
X0Y1541D02*
X7Y1541D01*
X222Y1541D02*
X233Y1541D01*
X390Y1541D02*
X400Y1541D01*
X602Y1541D02*
X609Y1541D01*
X0Y1540D02*
X7Y1540D01*
X222Y1540D02*
X231Y1540D01*
X391Y1540D02*
X401Y1540D01*
X602Y1540D02*
X609Y1540D01*
X0Y1539D02*
X7Y1539D01*
X221Y1539D02*
X230Y1539D01*
X392Y1539D02*
X402Y1539D01*
X602Y1539D02*
X609Y1539D01*
X0Y1538D02*
X7Y1538D01*
X220Y1538D02*
X229Y1538D01*
X393Y1538D02*
X403Y1538D01*
X602Y1538D02*
X609Y1538D01*
X0Y1537D02*
X7Y1537D01*
X219Y1537D02*
X229Y1537D01*
X394Y1537D02*
X404Y1537D01*
X602Y1537D02*
X609Y1537D01*
X0Y1536D02*
X7Y1536D01*
X218Y1536D02*
X228Y1536D01*
X395Y1536D02*
X404Y1536D01*
X602Y1536D02*
X609Y1536D01*
X0Y1535D02*
X7Y1535D01*
X217Y1535D02*
X227Y1535D01*
X396Y1535D02*
X405Y1535D01*
X602Y1535D02*
X609Y1535D01*
X0Y1534D02*
X7Y1534D01*
X216Y1534D02*
X226Y1534D01*
X397Y1534D02*
X406Y1534D01*
X602Y1534D02*
X609Y1534D01*
X0Y1533D02*
X7Y1533D01*
X216Y1533D02*
X225Y1533D01*
X398Y1533D02*
X407Y1533D01*
X602Y1533D02*
X609Y1533D01*
X0Y1532D02*
X7Y1532D01*
X215Y1532D02*
X224Y1532D01*
X399Y1532D02*
X408Y1532D01*
X602Y1532D02*
X609Y1532D01*
X0Y1531D02*
X7Y1531D01*
X214Y1531D02*
X223Y1531D01*
X399Y1531D02*
X408Y1531D01*
X602Y1531D02*
X609Y1531D01*
X0Y1530D02*
X7Y1530D01*
X213Y1530D02*
X222Y1530D01*
X400Y1530D02*
X409Y1530D01*
X602Y1530D02*
X609Y1530D01*
X0Y1529D02*
X7Y1529D01*
X213Y1529D02*
X222Y1529D01*
X401Y1529D02*
X409Y1529D01*
X602Y1529D02*
X609Y1529D01*
X0Y1528D02*
X7Y1528D01*
X212Y1528D02*
X221Y1528D01*
X402Y1528D02*
X409Y1528D01*
X602Y1528D02*
X609Y1528D01*
X0Y1527D02*
X7Y1527D01*
X211Y1527D02*
X220Y1527D01*
X402Y1527D02*
X409Y1527D01*
X602Y1527D02*
X609Y1527D01*
X0Y1526D02*
X7Y1526D01*
X211Y1526D02*
X219Y1526D01*
X402Y1526D02*
X409Y1526D01*
X602Y1526D02*
X609Y1526D01*
X0Y1525D02*
X7Y1525D01*
X210Y1525D02*
X219Y1525D01*
X402Y1525D02*
X409Y1525D01*
X602Y1525D02*
X609Y1525D01*
X0Y1524D02*
X7Y1524D01*
X209Y1524D02*
X218Y1524D01*
X402Y1524D02*
X409Y1524D01*
X602Y1524D02*
X609Y1524D01*
X0Y1523D02*
X7Y1523D01*
X209Y1523D02*
X217Y1523D01*
X402Y1523D02*
X409Y1523D01*
X602Y1523D02*
X609Y1523D01*
X0Y1522D02*
X7Y1522D01*
X208Y1522D02*
X216Y1522D01*
X402Y1522D02*
X409Y1522D01*
X602Y1522D02*
X609Y1522D01*
X0Y1521D02*
X7Y1521D01*
X207Y1521D02*
X216Y1521D01*
X402Y1521D02*
X409Y1521D01*
X602Y1521D02*
X609Y1521D01*
X0Y1520D02*
X7Y1520D01*
X207Y1520D02*
X215Y1520D01*
X402Y1520D02*
X409Y1520D01*
X602Y1520D02*
X609Y1520D01*
X0Y1519D02*
X7Y1519D01*
X206Y1519D02*
X214Y1519D01*
X402Y1519D02*
X409Y1519D01*
X602Y1519D02*
X609Y1519D01*
X0Y1518D02*
X7Y1518D01*
X206Y1518D02*
X214Y1518D01*
X402Y1518D02*
X409Y1518D01*
X602Y1518D02*
X609Y1518D01*
X0Y1517D02*
X7Y1517D01*
X205Y1517D02*
X213Y1517D01*
X402Y1517D02*
X409Y1517D01*
X602Y1517D02*
X609Y1517D01*
X0Y1516D02*
X7Y1516D01*
X205Y1516D02*
X213Y1516D01*
X402Y1516D02*
X409Y1516D01*
X602Y1516D02*
X609Y1516D01*
X0Y1515D02*
X7Y1515D01*
X204Y1515D02*
X212Y1515D01*
X402Y1515D02*
X409Y1515D01*
X602Y1515D02*
X609Y1515D01*
X0Y1514D02*
X7Y1514D01*
X204Y1514D02*
X211Y1514D01*
X402Y1514D02*
X409Y1514D01*
X602Y1514D02*
X609Y1514D01*
X0Y1513D02*
X7Y1513D01*
X203Y1513D02*
X211Y1513D01*
X402Y1513D02*
X409Y1513D01*
X602Y1513D02*
X609Y1513D01*
X0Y1512D02*
X7Y1512D01*
X203Y1512D02*
X210Y1512D01*
X402Y1512D02*
X409Y1512D01*
X602Y1512D02*
X609Y1512D01*
X0Y1511D02*
X7Y1511D01*
X202Y1511D02*
X210Y1511D01*
X402Y1511D02*
X409Y1511D01*
X602Y1511D02*
X609Y1511D01*
X0Y1510D02*
X7Y1510D01*
X202Y1510D02*
X209Y1510D01*
X402Y1510D02*
X409Y1510D01*
X602Y1510D02*
X609Y1510D01*
X0Y1509D02*
X7Y1509D01*
X201Y1509D02*
X209Y1509D01*
X402Y1509D02*
X409Y1509D01*
X602Y1509D02*
X609Y1509D01*
X0Y1508D02*
X7Y1508D01*
X201Y1508D02*
X208Y1508D01*
X402Y1508D02*
X409Y1508D01*
X602Y1508D02*
X609Y1508D01*
X0Y1507D02*
X7Y1507D01*
X200Y1507D02*
X208Y1507D01*
X402Y1507D02*
X409Y1507D01*
X602Y1507D02*
X609Y1507D01*
X0Y1506D02*
X7Y1506D01*
X200Y1506D02*
X207Y1506D01*
X402Y1506D02*
X409Y1506D01*
X602Y1506D02*
X609Y1506D01*
X0Y1505D02*
X7Y1505D01*
X199Y1505D02*
X207Y1505D01*
X402Y1505D02*
X409Y1505D01*
X602Y1505D02*
X609Y1505D01*
X0Y1504D02*
X7Y1504D01*
X199Y1504D02*
X206Y1504D01*
X402Y1504D02*
X409Y1504D01*
X602Y1504D02*
X609Y1504D01*
X0Y1503D02*
X7Y1503D01*
X199Y1503D02*
X206Y1503D01*
X402Y1503D02*
X409Y1503D01*
X602Y1503D02*
X609Y1503D01*
X0Y1502D02*
X7Y1502D01*
X198Y1502D02*
X205Y1502D01*
X402Y1502D02*
X409Y1502D01*
X602Y1502D02*
X609Y1502D01*
X0Y1501D02*
X7Y1501D01*
X198Y1501D02*
X205Y1501D01*
X402Y1501D02*
X409Y1501D01*
X602Y1501D02*
X609Y1501D01*
X0Y1500D02*
X7Y1500D01*
X197Y1500D02*
X205Y1500D01*
X402Y1500D02*
X409Y1500D01*
X602Y1500D02*
X609Y1500D01*
X0Y1499D02*
X7Y1499D01*
X197Y1499D02*
X204Y1499D01*
X402Y1499D02*
X409Y1499D01*
X602Y1499D02*
X609Y1499D01*
X0Y1498D02*
X7Y1498D01*
X197Y1498D02*
X204Y1498D01*
X402Y1498D02*
X409Y1498D01*
X602Y1498D02*
X609Y1498D01*
X0Y1497D02*
X7Y1497D01*
X196Y1497D02*
X204Y1497D01*
X402Y1497D02*
X409Y1497D01*
X602Y1497D02*
X609Y1497D01*
X0Y1496D02*
X7Y1496D01*
X196Y1496D02*
X203Y1496D01*
X402Y1496D02*
X409Y1496D01*
X602Y1496D02*
X609Y1496D01*
X0Y1495D02*
X7Y1495D01*
X196Y1495D02*
X203Y1495D01*
X402Y1495D02*
X409Y1495D01*
X602Y1495D02*
X609Y1495D01*
X0Y1494D02*
X7Y1494D01*
X195Y1494D02*
X202Y1494D01*
X402Y1494D02*
X409Y1494D01*
X602Y1494D02*
X609Y1494D01*
X0Y1493D02*
X7Y1493D01*
X195Y1493D02*
X202Y1493D01*
X402Y1493D02*
X409Y1493D01*
X602Y1493D02*
X609Y1493D01*
X0Y1492D02*
X7Y1492D01*
X195Y1492D02*
X202Y1492D01*
X402Y1492D02*
X409Y1492D01*
X602Y1492D02*
X609Y1492D01*
X0Y1491D02*
X7Y1491D01*
X194Y1491D02*
X202Y1491D01*
X402Y1491D02*
X409Y1491D01*
X602Y1491D02*
X609Y1491D01*
X0Y1490D02*
X7Y1490D01*
X194Y1490D02*
X201Y1490D01*
X402Y1490D02*
X409Y1490D01*
X602Y1490D02*
X609Y1490D01*
X0Y1489D02*
X7Y1489D01*
X194Y1489D02*
X201Y1489D01*
X402Y1489D02*
X409Y1489D01*
X602Y1489D02*
X609Y1489D01*
X0Y1488D02*
X7Y1488D01*
X194Y1488D02*
X201Y1488D01*
X402Y1488D02*
X409Y1488D01*
X602Y1488D02*
X609Y1488D01*
X0Y1487D02*
X7Y1487D01*
X193Y1487D02*
X200Y1487D01*
X402Y1487D02*
X409Y1487D01*
X602Y1487D02*
X609Y1487D01*
X0Y1486D02*
X7Y1486D01*
X193Y1486D02*
X200Y1486D01*
X402Y1486D02*
X409Y1486D01*
X602Y1486D02*
X609Y1486D01*
X0Y1485D02*
X7Y1485D01*
X193Y1485D02*
X200Y1485D01*
X402Y1485D02*
X409Y1485D01*
X602Y1485D02*
X609Y1485D01*
X0Y1484D02*
X7Y1484D01*
X193Y1484D02*
X200Y1484D01*
X402Y1484D02*
X409Y1484D01*
X602Y1484D02*
X609Y1484D01*
X0Y1483D02*
X7Y1483D01*
X193Y1483D02*
X199Y1483D01*
X402Y1483D02*
X409Y1483D01*
X602Y1483D02*
X609Y1483D01*
X0Y1482D02*
X7Y1482D01*
X192Y1482D02*
X199Y1482D01*
X402Y1482D02*
X409Y1482D01*
X602Y1482D02*
X609Y1482D01*
X0Y1481D02*
X7Y1481D01*
X192Y1481D02*
X199Y1481D01*
X402Y1481D02*
X409Y1481D01*
X602Y1481D02*
X609Y1481D01*
X0Y1480D02*
X7Y1480D01*
X192Y1480D02*
X199Y1480D01*
X402Y1480D02*
X409Y1480D01*
X602Y1480D02*
X609Y1480D01*
X0Y1479D02*
X7Y1479D01*
X192Y1479D02*
X199Y1479D01*
X402Y1479D02*
X409Y1479D01*
X602Y1479D02*
X609Y1479D01*
X0Y1478D02*
X7Y1478D01*
X192Y1478D02*
X198Y1478D01*
X402Y1478D02*
X409Y1478D01*
X602Y1478D02*
X609Y1478D01*
X0Y1477D02*
X7Y1477D01*
X191Y1477D02*
X198Y1477D01*
X402Y1477D02*
X409Y1477D01*
X602Y1477D02*
X609Y1477D01*
X0Y1476D02*
X7Y1476D01*
X191Y1476D02*
X198Y1476D01*
X402Y1476D02*
X409Y1476D01*
X602Y1476D02*
X609Y1476D01*
X0Y1475D02*
X7Y1475D01*
X191Y1475D02*
X198Y1475D01*
X402Y1475D02*
X409Y1475D01*
X602Y1475D02*
X609Y1475D01*
X0Y1474D02*
X7Y1474D01*
X191Y1474D02*
X198Y1474D01*
X402Y1474D02*
X409Y1474D01*
X602Y1474D02*
X609Y1474D01*
X0Y1473D02*
X7Y1473D01*
X191Y1473D02*
X198Y1473D01*
X402Y1473D02*
X409Y1473D01*
X602Y1473D02*
X609Y1473D01*
X0Y1472D02*
X7Y1472D01*
X191Y1472D02*
X198Y1472D01*
X402Y1472D02*
X409Y1472D01*
X602Y1472D02*
X609Y1472D01*
X0Y1471D02*
X7Y1471D01*
X191Y1471D02*
X197Y1471D01*
X402Y1471D02*
X409Y1471D01*
X602Y1471D02*
X609Y1471D01*
X0Y1470D02*
X7Y1470D01*
X190Y1470D02*
X197Y1470D01*
X402Y1470D02*
X409Y1470D01*
X602Y1470D02*
X609Y1470D01*
X0Y1469D02*
X7Y1469D01*
X190Y1469D02*
X197Y1469D01*
X402Y1469D02*
X409Y1469D01*
X602Y1469D02*
X609Y1469D01*
X0Y1468D02*
X7Y1468D01*
X190Y1468D02*
X197Y1468D01*
X402Y1468D02*
X409Y1468D01*
X602Y1468D02*
X609Y1468D01*
X0Y1467D02*
X7Y1467D01*
X190Y1467D02*
X197Y1467D01*
X402Y1467D02*
X409Y1467D01*
X602Y1467D02*
X609Y1467D01*
X0Y1466D02*
X7Y1466D01*
X190Y1466D02*
X197Y1466D01*
X402Y1466D02*
X409Y1466D01*
X602Y1466D02*
X609Y1466D01*
X0Y1465D02*
X7Y1465D01*
X190Y1465D02*
X197Y1465D01*
X402Y1465D02*
X409Y1465D01*
X602Y1465D02*
X609Y1465D01*
X0Y1464D02*
X7Y1464D01*
X190Y1464D02*
X197Y1464D01*
X402Y1464D02*
X409Y1464D01*
X602Y1464D02*
X609Y1464D01*
X0Y1463D02*
X7Y1463D01*
X190Y1463D02*
X197Y1463D01*
X402Y1463D02*
X409Y1463D01*
X602Y1463D02*
X609Y1463D01*
X0Y1462D02*
X7Y1462D01*
X190Y1462D02*
X197Y1462D01*
X402Y1462D02*
X409Y1462D01*
X602Y1462D02*
X609Y1462D01*
X0Y1461D02*
X7Y1461D01*
X190Y1461D02*
X197Y1461D01*
X402Y1461D02*
X409Y1461D01*
X602Y1461D02*
X609Y1461D01*
X0Y1460D02*
X7Y1460D01*
X190Y1460D02*
X197Y1460D01*
X402Y1460D02*
X409Y1460D01*
X602Y1460D02*
X609Y1460D01*
X0Y1459D02*
X7Y1459D01*
X190Y1459D02*
X197Y1459D01*
X402Y1459D02*
X409Y1459D01*
X602Y1459D02*
X609Y1459D01*
X0Y1458D02*
X7Y1458D01*
X190Y1458D02*
X197Y1458D01*
X402Y1458D02*
X409Y1458D01*
X602Y1458D02*
X609Y1458D01*
X0Y1457D02*
X7Y1457D01*
X190Y1457D02*
X197Y1457D01*
X402Y1457D02*
X409Y1457D01*
X602Y1457D02*
X609Y1457D01*
X0Y1456D02*
X7Y1456D01*
X190Y1456D02*
X197Y1456D01*
X402Y1456D02*
X409Y1456D01*
X602Y1456D02*
X609Y1456D01*
X0Y1455D02*
X7Y1455D01*
X190Y1455D02*
X197Y1455D01*
X402Y1455D02*
X409Y1455D01*
X602Y1455D02*
X609Y1455D01*
X0Y1454D02*
X7Y1454D01*
X190Y1454D02*
X197Y1454D01*
X402Y1454D02*
X409Y1454D01*
X602Y1454D02*
X609Y1454D01*
X0Y1453D02*
X7Y1453D01*
X190Y1453D02*
X197Y1453D01*
X402Y1453D02*
X409Y1453D01*
X602Y1453D02*
X609Y1453D01*
X0Y1452D02*
X7Y1452D01*
X190Y1452D02*
X197Y1452D01*
X402Y1452D02*
X409Y1452D01*
X602Y1452D02*
X609Y1452D01*
X0Y1451D02*
X7Y1451D01*
X190Y1451D02*
X197Y1451D01*
X402Y1451D02*
X409Y1451D01*
X602Y1451D02*
X609Y1451D01*
X0Y1450D02*
X7Y1450D01*
X190Y1450D02*
X197Y1450D01*
X402Y1450D02*
X409Y1450D01*
X602Y1450D02*
X609Y1450D01*
X0Y1449D02*
X7Y1449D01*
X190Y1449D02*
X197Y1449D01*
X402Y1449D02*
X409Y1449D01*
X602Y1449D02*
X609Y1449D01*
X0Y1448D02*
X7Y1448D01*
X190Y1448D02*
X197Y1448D01*
X402Y1448D02*
X409Y1448D01*
X602Y1448D02*
X609Y1448D01*
X0Y1447D02*
X7Y1447D01*
X190Y1447D02*
X197Y1447D01*
X402Y1447D02*
X409Y1447D01*
X602Y1447D02*
X609Y1447D01*
X0Y1446D02*
X7Y1446D01*
X190Y1446D02*
X197Y1446D01*
X402Y1446D02*
X409Y1446D01*
X602Y1446D02*
X609Y1446D01*
X0Y1445D02*
X7Y1445D01*
X191Y1445D02*
X197Y1445D01*
X402Y1445D02*
X409Y1445D01*
X602Y1445D02*
X609Y1445D01*
X0Y1444D02*
X7Y1444D01*
X191Y1444D02*
X198Y1444D01*
X402Y1444D02*
X409Y1444D01*
X602Y1444D02*
X609Y1444D01*
X0Y1443D02*
X7Y1443D01*
X191Y1443D02*
X198Y1443D01*
X402Y1443D02*
X409Y1443D01*
X602Y1443D02*
X609Y1443D01*
X0Y1442D02*
X7Y1442D01*
X191Y1442D02*
X198Y1442D01*
X402Y1442D02*
X409Y1442D01*
X602Y1442D02*
X609Y1442D01*
X0Y1441D02*
X7Y1441D01*
X191Y1441D02*
X198Y1441D01*
X402Y1441D02*
X409Y1441D01*
X602Y1441D02*
X609Y1441D01*
X0Y1440D02*
X7Y1440D01*
X191Y1440D02*
X198Y1440D01*
X402Y1440D02*
X409Y1440D01*
X602Y1440D02*
X609Y1440D01*
X0Y1439D02*
X7Y1439D01*
X191Y1439D02*
X198Y1439D01*
X402Y1439D02*
X409Y1439D01*
X602Y1439D02*
X609Y1439D01*
X0Y1438D02*
X7Y1438D01*
X192Y1438D02*
X198Y1438D01*
X402Y1438D02*
X409Y1438D01*
X602Y1438D02*
X609Y1438D01*
X0Y1437D02*
X7Y1437D01*
X192Y1437D02*
X199Y1437D01*
X402Y1437D02*
X409Y1437D01*
X602Y1437D02*
X609Y1437D01*
X0Y1436D02*
X7Y1436D01*
X192Y1436D02*
X199Y1436D01*
X402Y1436D02*
X409Y1436D01*
X602Y1436D02*
X609Y1436D01*
X0Y1435D02*
X7Y1435D01*
X192Y1435D02*
X199Y1435D01*
X402Y1435D02*
X409Y1435D01*
X602Y1435D02*
X609Y1435D01*
X0Y1434D02*
X7Y1434D01*
X192Y1434D02*
X199Y1434D01*
X402Y1434D02*
X409Y1434D01*
X602Y1434D02*
X609Y1434D01*
X0Y1433D02*
X7Y1433D01*
X192Y1433D02*
X199Y1433D01*
X402Y1433D02*
X409Y1433D01*
X602Y1433D02*
X609Y1433D01*
X0Y1432D02*
X7Y1432D01*
X193Y1432D02*
X200Y1432D01*
X402Y1432D02*
X409Y1432D01*
X602Y1432D02*
X609Y1432D01*
X0Y1431D02*
X7Y1431D01*
X193Y1431D02*
X200Y1431D01*
X402Y1431D02*
X409Y1431D01*
X602Y1431D02*
X609Y1431D01*
X0Y1430D02*
X7Y1430D01*
X193Y1430D02*
X200Y1430D01*
X402Y1430D02*
X409Y1430D01*
X602Y1430D02*
X609Y1430D01*
X0Y1429D02*
X7Y1429D01*
X193Y1429D02*
X200Y1429D01*
X402Y1429D02*
X409Y1429D01*
X602Y1429D02*
X609Y1429D01*
X0Y1428D02*
X7Y1428D01*
X194Y1428D02*
X201Y1428D01*
X402Y1428D02*
X409Y1428D01*
X602Y1428D02*
X609Y1428D01*
X0Y1427D02*
X7Y1427D01*
X194Y1427D02*
X201Y1427D01*
X402Y1427D02*
X409Y1427D01*
X602Y1427D02*
X609Y1427D01*
X0Y1426D02*
X7Y1426D01*
X194Y1426D02*
X201Y1426D01*
X402Y1426D02*
X409Y1426D01*
X602Y1426D02*
X609Y1426D01*
X0Y1425D02*
X7Y1425D01*
X194Y1425D02*
X202Y1425D01*
X402Y1425D02*
X409Y1425D01*
X602Y1425D02*
X609Y1425D01*
X0Y1424D02*
X7Y1424D01*
X195Y1424D02*
X202Y1424D01*
X402Y1424D02*
X409Y1424D01*
X602Y1424D02*
X609Y1424D01*
X0Y1423D02*
X7Y1423D01*
X195Y1423D02*
X202Y1423D01*
X402Y1423D02*
X409Y1423D01*
X602Y1423D02*
X609Y1423D01*
X0Y1422D02*
X7Y1422D01*
X195Y1422D02*
X202Y1422D01*
X402Y1422D02*
X409Y1422D01*
X602Y1422D02*
X609Y1422D01*
X0Y1421D02*
X7Y1421D01*
X196Y1421D02*
X203Y1421D01*
X402Y1421D02*
X409Y1421D01*
X602Y1421D02*
X609Y1421D01*
X0Y1420D02*
X7Y1420D01*
X196Y1420D02*
X203Y1420D01*
X402Y1420D02*
X409Y1420D01*
X602Y1420D02*
X609Y1420D01*
X0Y1419D02*
X7Y1419D01*
X196Y1419D02*
X204Y1419D01*
X402Y1419D02*
X409Y1419D01*
X602Y1419D02*
X609Y1419D01*
X0Y1418D02*
X7Y1418D01*
X197Y1418D02*
X204Y1418D01*
X402Y1418D02*
X409Y1418D01*
X602Y1418D02*
X609Y1418D01*
X0Y1417D02*
X7Y1417D01*
X197Y1417D02*
X204Y1417D01*
X402Y1417D02*
X409Y1417D01*
X602Y1417D02*
X609Y1417D01*
X0Y1416D02*
X7Y1416D01*
X197Y1416D02*
X205Y1416D01*
X402Y1416D02*
X409Y1416D01*
X602Y1416D02*
X609Y1416D01*
X0Y1415D02*
X7Y1415D01*
X198Y1415D02*
X205Y1415D01*
X402Y1415D02*
X409Y1415D01*
X602Y1415D02*
X609Y1415D01*
X0Y1414D02*
X7Y1414D01*
X198Y1414D02*
X205Y1414D01*
X402Y1414D02*
X409Y1414D01*
X602Y1414D02*
X609Y1414D01*
X0Y1413D02*
X7Y1413D01*
X198Y1413D02*
X206Y1413D01*
X402Y1413D02*
X409Y1413D01*
X602Y1413D02*
X609Y1413D01*
X0Y1412D02*
X7Y1412D01*
X199Y1412D02*
X206Y1412D01*
X402Y1412D02*
X409Y1412D01*
X602Y1412D02*
X609Y1412D01*
X0Y1411D02*
X7Y1411D01*
X199Y1411D02*
X207Y1411D01*
X402Y1411D02*
X409Y1411D01*
X602Y1411D02*
X609Y1411D01*
X0Y1410D02*
X7Y1410D01*
X200Y1410D02*
X207Y1410D01*
X402Y1410D02*
X409Y1410D01*
X602Y1410D02*
X609Y1410D01*
X0Y1409D02*
X7Y1409D01*
X200Y1409D02*
X208Y1409D01*
X402Y1409D02*
X409Y1409D01*
X602Y1409D02*
X609Y1409D01*
X0Y1408D02*
X7Y1408D01*
X201Y1408D02*
X208Y1408D01*
X402Y1408D02*
X409Y1408D01*
X602Y1408D02*
X609Y1408D01*
X0Y1407D02*
X7Y1407D01*
X201Y1407D02*
X209Y1407D01*
X402Y1407D02*
X409Y1407D01*
X602Y1407D02*
X609Y1407D01*
X0Y1406D02*
X7Y1406D01*
X202Y1406D02*
X209Y1406D01*
X402Y1406D02*
X409Y1406D01*
X602Y1406D02*
X609Y1406D01*
X0Y1405D02*
X7Y1405D01*
X202Y1405D02*
X210Y1405D01*
X402Y1405D02*
X409Y1405D01*
X602Y1405D02*
X609Y1405D01*
X0Y1404D02*
X7Y1404D01*
X203Y1404D02*
X210Y1404D01*
X402Y1404D02*
X409Y1404D01*
X602Y1404D02*
X609Y1404D01*
X0Y1403D02*
X7Y1403D01*
X203Y1403D02*
X211Y1403D01*
X402Y1403D02*
X409Y1403D01*
X602Y1403D02*
X609Y1403D01*
X0Y1402D02*
X7Y1402D01*
X203Y1402D02*
X211Y1402D01*
X402Y1402D02*
X409Y1402D01*
X602Y1402D02*
X609Y1402D01*
X0Y1401D02*
X7Y1401D01*
X204Y1401D02*
X212Y1401D01*
X402Y1401D02*
X409Y1401D01*
X602Y1401D02*
X609Y1401D01*
X0Y1400D02*
X7Y1400D01*
X205Y1400D02*
X212Y1400D01*
X402Y1400D02*
X409Y1400D01*
X602Y1400D02*
X609Y1400D01*
X0Y1399D02*
X7Y1399D01*
X205Y1399D02*
X213Y1399D01*
X402Y1399D02*
X409Y1399D01*
X602Y1399D02*
X609Y1399D01*
X0Y1398D02*
X7Y1398D01*
X206Y1398D02*
X214Y1398D01*
X402Y1398D02*
X409Y1398D01*
X602Y1398D02*
X609Y1398D01*
X0Y1397D02*
X7Y1397D01*
X206Y1397D02*
X214Y1397D01*
X402Y1397D02*
X409Y1397D01*
X602Y1397D02*
X609Y1397D01*
X0Y1396D02*
X7Y1396D01*
X207Y1396D02*
X215Y1396D01*
X402Y1396D02*
X409Y1396D01*
X602Y1396D02*
X609Y1396D01*
X0Y1395D02*
X7Y1395D01*
X207Y1395D02*
X216Y1395D01*
X402Y1395D02*
X409Y1395D01*
X602Y1395D02*
X609Y1395D01*
X0Y1394D02*
X7Y1394D01*
X208Y1394D02*
X216Y1394D01*
X402Y1394D02*
X409Y1394D01*
X602Y1394D02*
X609Y1394D01*
X0Y1393D02*
X7Y1393D01*
X209Y1393D02*
X217Y1393D01*
X402Y1393D02*
X409Y1393D01*
X602Y1393D02*
X609Y1393D01*
X0Y1392D02*
X7Y1392D01*
X209Y1392D02*
X218Y1392D01*
X402Y1392D02*
X409Y1392D01*
X602Y1392D02*
X609Y1392D01*
X0Y1391D02*
X7Y1391D01*
X210Y1391D02*
X218Y1391D01*
X402Y1391D02*
X409Y1391D01*
X602Y1391D02*
X609Y1391D01*
X0Y1390D02*
X7Y1390D01*
X211Y1390D02*
X219Y1390D01*
X402Y1390D02*
X409Y1390D01*
X602Y1390D02*
X609Y1390D01*
X0Y1389D02*
X7Y1389D01*
X211Y1389D02*
X220Y1389D01*
X402Y1389D02*
X409Y1389D01*
X602Y1389D02*
X609Y1389D01*
X0Y1388D02*
X7Y1388D01*
X212Y1388D02*
X221Y1388D01*
X402Y1388D02*
X409Y1388D01*
X602Y1388D02*
X609Y1388D01*
X0Y1387D02*
X7Y1387D01*
X213Y1387D02*
X221Y1387D01*
X401Y1387D02*
X409Y1387D01*
X602Y1387D02*
X609Y1387D01*
X0Y1386D02*
X7Y1386D01*
X213Y1386D02*
X222Y1386D01*
X400Y1386D02*
X409Y1386D01*
X602Y1386D02*
X609Y1386D01*
X0Y1385D02*
X7Y1385D01*
X214Y1385D02*
X223Y1385D01*
X399Y1385D02*
X408Y1385D01*
X602Y1385D02*
X609Y1385D01*
X0Y1384D02*
X7Y1384D01*
X215Y1384D02*
X224Y1384D01*
X399Y1384D02*
X408Y1384D01*
X602Y1384D02*
X609Y1384D01*
X0Y1383D02*
X7Y1383D01*
X216Y1383D02*
X225Y1383D01*
X398Y1383D02*
X407Y1383D01*
X602Y1383D02*
X609Y1383D01*
X0Y1382D02*
X7Y1382D01*
X216Y1382D02*
X226Y1382D01*
X397Y1382D02*
X406Y1382D01*
X602Y1382D02*
X609Y1382D01*
X0Y1381D02*
X7Y1381D01*
X217Y1381D02*
X227Y1381D01*
X396Y1381D02*
X405Y1381D01*
X602Y1381D02*
X609Y1381D01*
X0Y1380D02*
X7Y1380D01*
X218Y1380D02*
X227Y1380D01*
X395Y1380D02*
X405Y1380D01*
X602Y1380D02*
X609Y1380D01*
X0Y1379D02*
X7Y1379D01*
X219Y1379D02*
X228Y1379D01*
X394Y1379D02*
X404Y1379D01*
X602Y1379D02*
X609Y1379D01*
X0Y1378D02*
X7Y1378D01*
X220Y1378D02*
X229Y1378D01*
X393Y1378D02*
X403Y1378D01*
X602Y1378D02*
X609Y1378D01*
X0Y1377D02*
X7Y1377D01*
X221Y1377D02*
X230Y1377D01*
X392Y1377D02*
X402Y1377D01*
X602Y1377D02*
X609Y1377D01*
X0Y1376D02*
X7Y1376D01*
X222Y1376D02*
X231Y1376D01*
X391Y1376D02*
X401Y1376D01*
X602Y1376D02*
X609Y1376D01*
X0Y1375D02*
X7Y1375D01*
X222Y1375D02*
X232Y1375D01*
X390Y1375D02*
X400Y1375D01*
X602Y1375D02*
X609Y1375D01*
X0Y1374D02*
X7Y1374D01*
X223Y1374D02*
X234Y1374D01*
X389Y1374D02*
X399Y1374D01*
X602Y1374D02*
X609Y1374D01*
X0Y1373D02*
X7Y1373D01*
X224Y1373D02*
X235Y1373D01*
X388Y1373D02*
X398Y1373D01*
X602Y1373D02*
X609Y1373D01*
X0Y1372D02*
X7Y1372D01*
X225Y1372D02*
X236Y1372D01*
X387Y1372D02*
X397Y1372D01*
X602Y1372D02*
X609Y1372D01*
X0Y1371D02*
X7Y1371D01*
X226Y1371D02*
X237Y1371D01*
X386Y1371D02*
X396Y1371D01*
X602Y1371D02*
X609Y1371D01*
X0Y1370D02*
X7Y1370D01*
X227Y1370D02*
X238Y1370D01*
X385Y1370D02*
X395Y1370D01*
X602Y1370D02*
X609Y1370D01*
X0Y1369D02*
X7Y1369D01*
X228Y1369D02*
X239Y1369D01*
X383Y1369D02*
X394Y1369D01*
X602Y1369D02*
X609Y1369D01*
X0Y1368D02*
X7Y1368D01*
X229Y1368D02*
X241Y1368D01*
X382Y1368D02*
X393Y1368D01*
X602Y1368D02*
X609Y1368D01*
X0Y1367D02*
X7Y1367D01*
X231Y1367D02*
X242Y1367D01*
X381Y1367D02*
X392Y1367D01*
X602Y1367D02*
X609Y1367D01*
X0Y1366D02*
X7Y1366D01*
X232Y1366D02*
X243Y1366D01*
X379Y1366D02*
X391Y1366D01*
X602Y1366D02*
X609Y1366D01*
X0Y1365D02*
X7Y1365D01*
X233Y1365D02*
X245Y1365D01*
X378Y1365D02*
X390Y1365D01*
X602Y1365D02*
X609Y1365D01*
X0Y1364D02*
X7Y1364D01*
X234Y1364D02*
X246Y1364D01*
X377Y1364D02*
X388Y1364D01*
X602Y1364D02*
X609Y1364D01*
X0Y1363D02*
X7Y1363D01*
X235Y1363D02*
X248Y1363D01*
X375Y1363D02*
X387Y1363D01*
X602Y1363D02*
X609Y1363D01*
X0Y1362D02*
X7Y1362D01*
X237Y1362D02*
X249Y1362D01*
X374Y1362D02*
X386Y1362D01*
X602Y1362D02*
X609Y1362D01*
X0Y1361D02*
X7Y1361D01*
X238Y1361D02*
X251Y1361D01*
X372Y1361D02*
X385Y1361D01*
X602Y1361D02*
X609Y1361D01*
X0Y1360D02*
X7Y1360D01*
X239Y1360D02*
X252Y1360D01*
X370Y1360D02*
X383Y1360D01*
X602Y1360D02*
X609Y1360D01*
X0Y1359D02*
X7Y1359D01*
X241Y1359D02*
X254Y1359D01*
X369Y1359D02*
X382Y1359D01*
X602Y1359D02*
X609Y1359D01*
X0Y1358D02*
X7Y1358D01*
X242Y1358D02*
X256Y1358D01*
X367Y1358D02*
X381Y1358D01*
X602Y1358D02*
X609Y1358D01*
X0Y1357D02*
X7Y1357D01*
X243Y1357D02*
X258Y1357D01*
X365Y1357D02*
X379Y1357D01*
X602Y1357D02*
X609Y1357D01*
X0Y1356D02*
X7Y1356D01*
X245Y1356D02*
X260Y1356D01*
X363Y1356D02*
X378Y1356D01*
X602Y1356D02*
X609Y1356D01*
X0Y1355D02*
X7Y1355D01*
X246Y1355D02*
X261Y1355D01*
X361Y1355D02*
X376Y1355D01*
X602Y1355D02*
X609Y1355D01*
X0Y1354D02*
X7Y1354D01*
X248Y1354D02*
X264Y1354D01*
X359Y1354D02*
X374Y1354D01*
X602Y1354D02*
X609Y1354D01*
X0Y1353D02*
X7Y1353D01*
X250Y1353D02*
X266Y1353D01*
X357Y1353D02*
X373Y1353D01*
X602Y1353D02*
X609Y1353D01*
X0Y1352D02*
X7Y1352D01*
X251Y1352D02*
X268Y1352D01*
X354Y1352D02*
X371Y1352D01*
X602Y1352D02*
X609Y1352D01*
X0Y1351D02*
X7Y1351D01*
X253Y1351D02*
X271Y1351D01*
X352Y1351D02*
X369Y1351D01*
X602Y1351D02*
X609Y1351D01*
X0Y1350D02*
X7Y1350D01*
X255Y1350D02*
X274Y1350D01*
X349Y1350D02*
X367Y1350D01*
X602Y1350D02*
X609Y1350D01*
X0Y1349D02*
X7Y1349D01*
X257Y1349D02*
X277Y1349D01*
X346Y1349D02*
X365Y1349D01*
X602Y1349D02*
X609Y1349D01*
X0Y1348D02*
X7Y1348D01*
X259Y1348D02*
X280Y1348D01*
X342Y1348D02*
X363Y1348D01*
X602Y1348D02*
X609Y1348D01*
X0Y1347D02*
X7Y1347D01*
X261Y1347D02*
X284Y1347D01*
X339Y1347D02*
X361Y1347D01*
X602Y1347D02*
X609Y1347D01*
X0Y1346D02*
X7Y1346D01*
X263Y1346D02*
X288Y1346D01*
X334Y1346D02*
X359Y1346D01*
X602Y1346D02*
X609Y1346D01*
X0Y1345D02*
X7Y1345D01*
X266Y1345D02*
X294Y1345D01*
X328Y1345D02*
X357Y1345D01*
X602Y1345D02*
X609Y1345D01*
X0Y1344D02*
X7Y1344D01*
X268Y1344D02*
X304Y1344D01*
X318Y1344D02*
X354Y1344D01*
X602Y1344D02*
X609Y1344D01*
X0Y1343D02*
X7Y1343D01*
X271Y1343D02*
X351Y1343D01*
X602Y1343D02*
X609Y1343D01*
X0Y1342D02*
X7Y1342D01*
X274Y1342D02*
X349Y1342D01*
X602Y1342D02*
X609Y1342D01*
X0Y1341D02*
X7Y1341D01*
X277Y1341D02*
X345Y1341D01*
X602Y1341D02*
X609Y1341D01*
X0Y1340D02*
X7Y1340D01*
X281Y1340D02*
X342Y1340D01*
X602Y1340D02*
X609Y1340D01*
X0Y1339D02*
X7Y1339D01*
X285Y1339D02*
X338Y1339D01*
X602Y1339D02*
X609Y1339D01*
X0Y1338D02*
X7Y1338D01*
X290Y1338D02*
X333Y1338D01*
X602Y1338D02*
X609Y1338D01*
X0Y1337D02*
X7Y1337D01*
X221Y1337D02*
X222Y1337D01*
X269Y1337D02*
X336Y1337D01*
X372Y1337D02*
X397Y1337D01*
X602Y1337D02*
X609Y1337D01*
X0Y1336D02*
X7Y1336D01*
X219Y1336D02*
X224Y1336D01*
X269Y1336D02*
X301Y1336D01*
X311Y1336D02*
X311Y1336D01*
X320Y1336D02*
X339Y1336D01*
X370Y1336D02*
X399Y1336D01*
X602Y1336D02*
X609Y1336D01*
X0Y1335D02*
X7Y1335D01*
X219Y1335D02*
X224Y1335D01*
X269Y1335D02*
X302Y1335D01*
X319Y1335D02*
X340Y1335D01*
X369Y1335D02*
X400Y1335D01*
X602Y1335D02*
X609Y1335D01*
X0Y1334D02*
X7Y1334D01*
X219Y1334D02*
X224Y1334D01*
X269Y1334D02*
X302Y1334D01*
X319Y1334D02*
X342Y1334D01*
X369Y1334D02*
X401Y1334D01*
X602Y1334D02*
X609Y1334D01*
X0Y1333D02*
X7Y1333D01*
X219Y1333D02*
X225Y1333D01*
X269Y1333D02*
X302Y1333D01*
X319Y1333D02*
X342Y1333D01*
X369Y1333D02*
X402Y1333D01*
X602Y1333D02*
X609Y1333D01*
X0Y1332D02*
X7Y1332D01*
X219Y1332D02*
X225Y1332D01*
X269Y1332D02*
X302Y1332D01*
X319Y1332D02*
X343Y1332D01*
X369Y1332D02*
X402Y1332D01*
X602Y1332D02*
X609Y1332D01*
X0Y1331D02*
X7Y1331D01*
X219Y1331D02*
X225Y1331D01*
X269Y1331D02*
X301Y1331D01*
X320Y1331D02*
X344Y1331D01*
X370Y1331D02*
X402Y1331D01*
X602Y1331D02*
X609Y1331D01*
X0Y1330D02*
X7Y1330D01*
X219Y1330D02*
X225Y1330D01*
X269Y1330D02*
X275Y1330D01*
X325Y1330D02*
X332Y1330D01*
X336Y1330D02*
X344Y1330D01*
X396Y1330D02*
X403Y1330D01*
X602Y1330D02*
X609Y1330D01*
X0Y1329D02*
X7Y1329D01*
X219Y1329D02*
X225Y1329D01*
X269Y1329D02*
X275Y1329D01*
X326Y1329D02*
X332Y1329D01*
X338Y1329D02*
X345Y1329D01*
X397Y1329D02*
X403Y1329D01*
X602Y1329D02*
X609Y1329D01*
X0Y1328D02*
X7Y1328D01*
X219Y1328D02*
X225Y1328D01*
X269Y1328D02*
X275Y1328D01*
X326Y1328D02*
X332Y1328D01*
X338Y1328D02*
X345Y1328D01*
X397Y1328D02*
X403Y1328D01*
X602Y1328D02*
X609Y1328D01*
X0Y1327D02*
X7Y1327D01*
X219Y1327D02*
X225Y1327D01*
X269Y1327D02*
X275Y1327D01*
X326Y1327D02*
X332Y1327D01*
X339Y1327D02*
X346Y1327D01*
X397Y1327D02*
X403Y1327D01*
X602Y1327D02*
X609Y1327D01*
X0Y1326D02*
X7Y1326D01*
X219Y1326D02*
X225Y1326D01*
X269Y1326D02*
X275Y1326D01*
X326Y1326D02*
X332Y1326D01*
X339Y1326D02*
X346Y1326D01*
X397Y1326D02*
X403Y1326D01*
X602Y1326D02*
X609Y1326D01*
X0Y1325D02*
X7Y1325D01*
X219Y1325D02*
X225Y1325D01*
X269Y1325D02*
X275Y1325D01*
X326Y1325D02*
X332Y1325D01*
X340Y1325D02*
X347Y1325D01*
X397Y1325D02*
X403Y1325D01*
X602Y1325D02*
X609Y1325D01*
X0Y1324D02*
X7Y1324D01*
X219Y1324D02*
X225Y1324D01*
X269Y1324D02*
X275Y1324D01*
X326Y1324D02*
X332Y1324D01*
X340Y1324D02*
X347Y1324D01*
X397Y1324D02*
X403Y1324D01*
X602Y1324D02*
X609Y1324D01*
X0Y1323D02*
X7Y1323D01*
X219Y1323D02*
X225Y1323D01*
X269Y1323D02*
X275Y1323D01*
X326Y1323D02*
X332Y1323D01*
X341Y1323D02*
X348Y1323D01*
X397Y1323D02*
X403Y1323D01*
X602Y1323D02*
X609Y1323D01*
X0Y1322D02*
X7Y1322D01*
X219Y1322D02*
X225Y1322D01*
X269Y1322D02*
X275Y1322D01*
X326Y1322D02*
X332Y1322D01*
X341Y1322D02*
X348Y1322D01*
X397Y1322D02*
X403Y1322D01*
X602Y1322D02*
X609Y1322D01*
X0Y1321D02*
X7Y1321D01*
X219Y1321D02*
X225Y1321D01*
X269Y1321D02*
X275Y1321D01*
X326Y1321D02*
X332Y1321D01*
X342Y1321D02*
X349Y1321D01*
X397Y1321D02*
X403Y1321D01*
X602Y1321D02*
X609Y1321D01*
X0Y1320D02*
X7Y1320D01*
X219Y1320D02*
X225Y1320D01*
X269Y1320D02*
X275Y1320D01*
X326Y1320D02*
X332Y1320D01*
X342Y1320D02*
X349Y1320D01*
X397Y1320D02*
X403Y1320D01*
X602Y1320D02*
X609Y1320D01*
X0Y1319D02*
X7Y1319D01*
X219Y1319D02*
X225Y1319D01*
X269Y1319D02*
X275Y1319D01*
X326Y1319D02*
X332Y1319D01*
X343Y1319D02*
X350Y1319D01*
X397Y1319D02*
X403Y1319D01*
X602Y1319D02*
X609Y1319D01*
X0Y1318D02*
X7Y1318D01*
X219Y1318D02*
X225Y1318D01*
X269Y1318D02*
X275Y1318D01*
X326Y1318D02*
X332Y1318D01*
X343Y1318D02*
X350Y1318D01*
X397Y1318D02*
X403Y1318D01*
X602Y1318D02*
X609Y1318D01*
X0Y1317D02*
X7Y1317D01*
X219Y1317D02*
X225Y1317D01*
X269Y1317D02*
X275Y1317D01*
X326Y1317D02*
X332Y1317D01*
X344Y1317D02*
X351Y1317D01*
X397Y1317D02*
X403Y1317D01*
X602Y1317D02*
X609Y1317D01*
X0Y1316D02*
X7Y1316D01*
X219Y1316D02*
X225Y1316D01*
X269Y1316D02*
X275Y1316D01*
X326Y1316D02*
X332Y1316D01*
X344Y1316D02*
X351Y1316D01*
X396Y1316D02*
X402Y1316D01*
X602Y1316D02*
X609Y1316D01*
X0Y1315D02*
X7Y1315D01*
X219Y1315D02*
X225Y1315D01*
X269Y1315D02*
X275Y1315D01*
X326Y1315D02*
X332Y1315D01*
X345Y1315D02*
X351Y1315D01*
X396Y1315D02*
X402Y1315D01*
X602Y1315D02*
X609Y1315D01*
X0Y1314D02*
X7Y1314D01*
X219Y1314D02*
X225Y1314D01*
X269Y1314D02*
X275Y1314D01*
X326Y1314D02*
X332Y1314D01*
X345Y1314D02*
X352Y1314D01*
X394Y1314D02*
X402Y1314D01*
X602Y1314D02*
X609Y1314D01*
X0Y1313D02*
X7Y1313D01*
X219Y1313D02*
X225Y1313D01*
X269Y1313D02*
X287Y1313D01*
X326Y1313D02*
X332Y1313D01*
X346Y1313D02*
X352Y1313D01*
X377Y1313D02*
X402Y1313D01*
X602Y1313D02*
X609Y1313D01*
X0Y1312D02*
X7Y1312D01*
X219Y1312D02*
X225Y1312D01*
X269Y1312D02*
X288Y1312D01*
X326Y1312D02*
X332Y1312D01*
X346Y1312D02*
X352Y1312D01*
X376Y1312D02*
X401Y1312D01*
X602Y1312D02*
X609Y1312D01*
X0Y1311D02*
X7Y1311D01*
X219Y1311D02*
X225Y1311D01*
X269Y1311D02*
X288Y1311D01*
X326Y1311D02*
X332Y1311D01*
X346Y1311D02*
X352Y1311D01*
X376Y1311D02*
X400Y1311D01*
X602Y1311D02*
X609Y1311D01*
X0Y1310D02*
X7Y1310D01*
X219Y1310D02*
X225Y1310D01*
X269Y1310D02*
X288Y1310D01*
X326Y1310D02*
X332Y1310D01*
X346Y1310D02*
X352Y1310D01*
X376Y1310D02*
X400Y1310D01*
X602Y1310D02*
X609Y1310D01*
X0Y1309D02*
X7Y1309D01*
X219Y1309D02*
X225Y1309D01*
X269Y1309D02*
X288Y1309D01*
X326Y1309D02*
X332Y1309D01*
X346Y1309D02*
X352Y1309D01*
X376Y1309D02*
X401Y1309D01*
X602Y1309D02*
X609Y1309D01*
X0Y1308D02*
X7Y1308D01*
X219Y1308D02*
X225Y1308D01*
X269Y1308D02*
X288Y1308D01*
X326Y1308D02*
X332Y1308D01*
X346Y1308D02*
X352Y1308D01*
X377Y1308D02*
X401Y1308D01*
X602Y1308D02*
X609Y1308D01*
X0Y1307D02*
X7Y1307D01*
X219Y1307D02*
X225Y1307D01*
X269Y1307D02*
X286Y1307D01*
X326Y1307D02*
X332Y1307D01*
X346Y1307D02*
X352Y1307D01*
X378Y1307D02*
X402Y1307D01*
X602Y1307D02*
X609Y1307D01*
X0Y1306D02*
X7Y1306D01*
X219Y1306D02*
X225Y1306D01*
X269Y1306D02*
X275Y1306D01*
X326Y1306D02*
X332Y1306D01*
X345Y1306D02*
X352Y1306D01*
X395Y1306D02*
X402Y1306D01*
X602Y1306D02*
X609Y1306D01*
X0Y1305D02*
X7Y1305D01*
X219Y1305D02*
X225Y1305D01*
X269Y1305D02*
X275Y1305D01*
X326Y1305D02*
X332Y1305D01*
X345Y1305D02*
X351Y1305D01*
X396Y1305D02*
X402Y1305D01*
X602Y1305D02*
X609Y1305D01*
X0Y1304D02*
X7Y1304D01*
X219Y1304D02*
X225Y1304D01*
X269Y1304D02*
X275Y1304D01*
X326Y1304D02*
X332Y1304D01*
X344Y1304D02*
X351Y1304D01*
X396Y1304D02*
X402Y1304D01*
X602Y1304D02*
X609Y1304D01*
X0Y1303D02*
X7Y1303D01*
X219Y1303D02*
X225Y1303D01*
X269Y1303D02*
X275Y1303D01*
X326Y1303D02*
X332Y1303D01*
X344Y1303D02*
X351Y1303D01*
X397Y1303D02*
X403Y1303D01*
X602Y1303D02*
X609Y1303D01*
X0Y1302D02*
X7Y1302D01*
X219Y1302D02*
X225Y1302D01*
X269Y1302D02*
X275Y1302D01*
X326Y1302D02*
X332Y1302D01*
X343Y1302D02*
X350Y1302D01*
X397Y1302D02*
X403Y1302D01*
X602Y1302D02*
X609Y1302D01*
X0Y1301D02*
X7Y1301D01*
X219Y1301D02*
X225Y1301D01*
X269Y1301D02*
X275Y1301D01*
X326Y1301D02*
X332Y1301D01*
X343Y1301D02*
X350Y1301D01*
X397Y1301D02*
X403Y1301D01*
X602Y1301D02*
X609Y1301D01*
X0Y1300D02*
X7Y1300D01*
X219Y1300D02*
X225Y1300D01*
X269Y1300D02*
X275Y1300D01*
X326Y1300D02*
X332Y1300D01*
X342Y1300D02*
X349Y1300D01*
X397Y1300D02*
X403Y1300D01*
X602Y1300D02*
X609Y1300D01*
X0Y1299D02*
X7Y1299D01*
X219Y1299D02*
X225Y1299D01*
X269Y1299D02*
X275Y1299D01*
X326Y1299D02*
X332Y1299D01*
X342Y1299D02*
X349Y1299D01*
X397Y1299D02*
X403Y1299D01*
X602Y1299D02*
X609Y1299D01*
X0Y1298D02*
X7Y1298D01*
X219Y1298D02*
X225Y1298D01*
X269Y1298D02*
X275Y1298D01*
X326Y1298D02*
X332Y1298D01*
X341Y1298D02*
X348Y1298D01*
X397Y1298D02*
X403Y1298D01*
X602Y1298D02*
X609Y1298D01*
X0Y1297D02*
X7Y1297D01*
X219Y1297D02*
X225Y1297D01*
X269Y1297D02*
X275Y1297D01*
X326Y1297D02*
X332Y1297D01*
X341Y1297D02*
X348Y1297D01*
X397Y1297D02*
X403Y1297D01*
X602Y1297D02*
X609Y1297D01*
X0Y1296D02*
X7Y1296D01*
X219Y1296D02*
X225Y1296D01*
X269Y1296D02*
X275Y1296D01*
X326Y1296D02*
X332Y1296D01*
X340Y1296D02*
X347Y1296D01*
X397Y1296D02*
X403Y1296D01*
X602Y1296D02*
X609Y1296D01*
X0Y1295D02*
X7Y1295D01*
X219Y1295D02*
X225Y1295D01*
X269Y1295D02*
X275Y1295D01*
X326Y1295D02*
X332Y1295D01*
X340Y1295D02*
X347Y1295D01*
X397Y1295D02*
X403Y1295D01*
X602Y1295D02*
X609Y1295D01*
X0Y1294D02*
X7Y1294D01*
X219Y1294D02*
X225Y1294D01*
X269Y1294D02*
X275Y1294D01*
X326Y1294D02*
X332Y1294D01*
X339Y1294D02*
X346Y1294D01*
X397Y1294D02*
X403Y1294D01*
X602Y1294D02*
X609Y1294D01*
X0Y1293D02*
X7Y1293D01*
X219Y1293D02*
X225Y1293D01*
X269Y1293D02*
X275Y1293D01*
X326Y1293D02*
X332Y1293D01*
X339Y1293D02*
X346Y1293D01*
X397Y1293D02*
X403Y1293D01*
X602Y1293D02*
X609Y1293D01*
X0Y1292D02*
X7Y1292D01*
X219Y1292D02*
X225Y1292D01*
X269Y1292D02*
X275Y1292D01*
X326Y1292D02*
X332Y1292D01*
X338Y1292D02*
X345Y1292D01*
X397Y1292D02*
X403Y1292D01*
X602Y1292D02*
X609Y1292D01*
X0Y1291D02*
X7Y1291D01*
X219Y1291D02*
X225Y1291D01*
X269Y1291D02*
X275Y1291D01*
X326Y1291D02*
X332Y1291D01*
X338Y1291D02*
X345Y1291D01*
X397Y1291D02*
X403Y1291D01*
X602Y1291D02*
X609Y1291D01*
X0Y1290D02*
X7Y1290D01*
X219Y1290D02*
X249Y1290D01*
X269Y1290D02*
X299Y1290D01*
X322Y1290D02*
X344Y1290D01*
X372Y1290D02*
X403Y1290D01*
X602Y1290D02*
X609Y1290D01*
X0Y1289D02*
X7Y1289D01*
X219Y1289D02*
X251Y1289D01*
X269Y1289D02*
X301Y1289D01*
X320Y1289D02*
X344Y1289D01*
X370Y1289D02*
X402Y1289D01*
X602Y1289D02*
X609Y1289D01*
X0Y1288D02*
X7Y1288D01*
X219Y1288D02*
X252Y1288D01*
X269Y1288D02*
X302Y1288D01*
X319Y1288D02*
X343Y1288D01*
X369Y1288D02*
X402Y1288D01*
X602Y1288D02*
X609Y1288D01*
X0Y1287D02*
X7Y1287D01*
X219Y1287D02*
X252Y1287D01*
X269Y1287D02*
X302Y1287D01*
X319Y1287D02*
X342Y1287D01*
X369Y1287D02*
X402Y1287D01*
X602Y1287D02*
X609Y1287D01*
X0Y1286D02*
X7Y1286D01*
X219Y1286D02*
X252Y1286D01*
X269Y1286D02*
X302Y1286D01*
X319Y1286D02*
X342Y1286D01*
X369Y1286D02*
X401Y1286D01*
X602Y1286D02*
X609Y1286D01*
X0Y1285D02*
X7Y1285D01*
X219Y1285D02*
X252Y1285D01*
X269Y1285D02*
X302Y1285D01*
X319Y1285D02*
X340Y1285D01*
X369Y1285D02*
X400Y1285D01*
X602Y1285D02*
X609Y1285D01*
X0Y1284D02*
X7Y1284D01*
X219Y1284D02*
X251Y1284D01*
X269Y1284D02*
X301Y1284D01*
X320Y1284D02*
X338Y1284D01*
X370Y1284D02*
X399Y1284D01*
X602Y1284D02*
X609Y1284D01*
X0Y1283D02*
X7Y1283D01*
X602Y1283D02*
X609Y1283D01*
X0Y1282D02*
X7Y1282D01*
X602Y1282D02*
X609Y1282D01*
X0Y1281D02*
X7Y1281D01*
X602Y1281D02*
X609Y1281D01*
X0Y1280D02*
X7Y1280D01*
X310Y1280D02*
X313Y1280D01*
X602Y1280D02*
X609Y1280D01*
X0Y1279D02*
X7Y1279D01*
X296Y1279D02*
X326Y1279D01*
X602Y1279D02*
X609Y1279D01*
X0Y1278D02*
X7Y1278D01*
X289Y1278D02*
X333Y1278D01*
X602Y1278D02*
X609Y1278D01*
X0Y1277D02*
X7Y1277D01*
X285Y1277D02*
X338Y1277D01*
X602Y1277D02*
X609Y1277D01*
X0Y1276D02*
X7Y1276D01*
X281Y1276D02*
X342Y1276D01*
X602Y1276D02*
X609Y1276D01*
X0Y1275D02*
X7Y1275D01*
X277Y1275D02*
X345Y1275D01*
X602Y1275D02*
X609Y1275D01*
X0Y1274D02*
X7Y1274D01*
X274Y1274D02*
X349Y1274D01*
X602Y1274D02*
X609Y1274D01*
X0Y1273D02*
X7Y1273D01*
X271Y1273D02*
X352Y1273D01*
X602Y1273D02*
X609Y1273D01*
X0Y1272D02*
X7Y1272D01*
X268Y1272D02*
X304Y1272D01*
X319Y1272D02*
X354Y1272D01*
X602Y1272D02*
X609Y1272D01*
X0Y1271D02*
X7Y1271D01*
X266Y1271D02*
X294Y1271D01*
X329Y1271D02*
X357Y1271D01*
X602Y1271D02*
X609Y1271D01*
X0Y1270D02*
X7Y1270D01*
X263Y1270D02*
X289Y1270D01*
X335Y1270D02*
X359Y1270D01*
X602Y1270D02*
X609Y1270D01*
X0Y1269D02*
X7Y1269D01*
X261Y1269D02*
X284Y1269D01*
X339Y1269D02*
X361Y1269D01*
X602Y1269D02*
X609Y1269D01*
X0Y1268D02*
X7Y1268D01*
X259Y1268D02*
X280Y1268D01*
X343Y1268D02*
X364Y1268D01*
X602Y1268D02*
X609Y1268D01*
X0Y1267D02*
X7Y1267D01*
X257Y1267D02*
X277Y1267D01*
X346Y1267D02*
X366Y1267D01*
X602Y1267D02*
X609Y1267D01*
X0Y1266D02*
X7Y1266D01*
X255Y1266D02*
X274Y1266D01*
X349Y1266D02*
X368Y1266D01*
X602Y1266D02*
X609Y1266D01*
X0Y1265D02*
X7Y1265D01*
X253Y1265D02*
X271Y1265D01*
X352Y1265D02*
X369Y1265D01*
X602Y1265D02*
X609Y1265D01*
X0Y1264D02*
X7Y1264D01*
X251Y1264D02*
X268Y1264D01*
X354Y1264D02*
X371Y1264D01*
X602Y1264D02*
X609Y1264D01*
X0Y1263D02*
X7Y1263D01*
X250Y1263D02*
X266Y1263D01*
X357Y1263D02*
X373Y1263D01*
X602Y1263D02*
X609Y1263D01*
X0Y1262D02*
X7Y1262D01*
X248Y1262D02*
X263Y1262D01*
X359Y1262D02*
X375Y1262D01*
X602Y1262D02*
X609Y1262D01*
X0Y1261D02*
X7Y1261D01*
X246Y1261D02*
X261Y1261D01*
X361Y1261D02*
X376Y1261D01*
X602Y1261D02*
X609Y1261D01*
X0Y1260D02*
X7Y1260D01*
X245Y1260D02*
X259Y1260D01*
X363Y1260D02*
X378Y1260D01*
X602Y1260D02*
X609Y1260D01*
X0Y1259D02*
X7Y1259D01*
X243Y1259D02*
X257Y1259D01*
X365Y1259D02*
X379Y1259D01*
X602Y1259D02*
X609Y1259D01*
X0Y1258D02*
X7Y1258D01*
X242Y1258D02*
X256Y1258D01*
X367Y1258D02*
X381Y1258D01*
X602Y1258D02*
X609Y1258D01*
X0Y1257D02*
X7Y1257D01*
X240Y1257D02*
X254Y1257D01*
X369Y1257D02*
X382Y1257D01*
X602Y1257D02*
X609Y1257D01*
X0Y1256D02*
X7Y1256D01*
X239Y1256D02*
X252Y1256D01*
X370Y1256D02*
X383Y1256D01*
X602Y1256D02*
X609Y1256D01*
X0Y1255D02*
X7Y1255D01*
X238Y1255D02*
X250Y1255D01*
X372Y1255D02*
X385Y1255D01*
X602Y1255D02*
X609Y1255D01*
X0Y1254D02*
X7Y1254D01*
X237Y1254D02*
X249Y1254D01*
X374Y1254D02*
X386Y1254D01*
X602Y1254D02*
X609Y1254D01*
X0Y1253D02*
X7Y1253D01*
X235Y1253D02*
X247Y1253D01*
X375Y1253D02*
X387Y1253D01*
X602Y1253D02*
X609Y1253D01*
X0Y1252D02*
X7Y1252D01*
X234Y1252D02*
X246Y1252D01*
X377Y1252D02*
X388Y1252D01*
X602Y1252D02*
X609Y1252D01*
X0Y1251D02*
X7Y1251D01*
X233Y1251D02*
X244Y1251D01*
X378Y1251D02*
X390Y1251D01*
X602Y1251D02*
X609Y1251D01*
X0Y1250D02*
X7Y1250D01*
X232Y1250D02*
X243Y1250D01*
X379Y1250D02*
X391Y1250D01*
X602Y1250D02*
X609Y1250D01*
X0Y1249D02*
X7Y1249D01*
X231Y1249D02*
X242Y1249D01*
X381Y1249D02*
X392Y1249D01*
X602Y1249D02*
X609Y1249D01*
X0Y1248D02*
X7Y1248D01*
X229Y1248D02*
X240Y1248D01*
X382Y1248D02*
X393Y1248D01*
X602Y1248D02*
X609Y1248D01*
X0Y1247D02*
X7Y1247D01*
X228Y1247D02*
X239Y1247D01*
X383Y1247D02*
X394Y1247D01*
X602Y1247D02*
X609Y1247D01*
X0Y1246D02*
X7Y1246D01*
X227Y1246D02*
X238Y1246D01*
X384Y1246D02*
X395Y1246D01*
X602Y1246D02*
X609Y1246D01*
X0Y1245D02*
X7Y1245D01*
X226Y1245D02*
X237Y1245D01*
X386Y1245D02*
X396Y1245D01*
X602Y1245D02*
X609Y1245D01*
X0Y1244D02*
X7Y1244D01*
X225Y1244D02*
X236Y1244D01*
X387Y1244D02*
X397Y1244D01*
X602Y1244D02*
X609Y1244D01*
X0Y1243D02*
X7Y1243D01*
X224Y1243D02*
X235Y1243D01*
X388Y1243D02*
X398Y1243D01*
X602Y1243D02*
X609Y1243D01*
X0Y1242D02*
X7Y1242D01*
X223Y1242D02*
X233Y1242D01*
X389Y1242D02*
X399Y1242D01*
X602Y1242D02*
X609Y1242D01*
X0Y1241D02*
X7Y1241D01*
X222Y1241D02*
X232Y1241D01*
X390Y1241D02*
X400Y1241D01*
X602Y1241D02*
X609Y1241D01*
X0Y1240D02*
X7Y1240D01*
X221Y1240D02*
X231Y1240D01*
X391Y1240D02*
X401Y1240D01*
X602Y1240D02*
X609Y1240D01*
X0Y1239D02*
X7Y1239D01*
X221Y1239D02*
X230Y1239D01*
X392Y1239D02*
X402Y1239D01*
X602Y1239D02*
X609Y1239D01*
X0Y1238D02*
X7Y1238D01*
X220Y1238D02*
X229Y1238D01*
X393Y1238D02*
X403Y1238D01*
X602Y1238D02*
X609Y1238D01*
X0Y1237D02*
X7Y1237D01*
X219Y1237D02*
X228Y1237D01*
X394Y1237D02*
X404Y1237D01*
X602Y1237D02*
X609Y1237D01*
X0Y1236D02*
X7Y1236D01*
X218Y1236D02*
X227Y1236D01*
X395Y1236D02*
X405Y1236D01*
X602Y1236D02*
X609Y1236D01*
X0Y1235D02*
X7Y1235D01*
X217Y1235D02*
X227Y1235D01*
X396Y1235D02*
X405Y1235D01*
X602Y1235D02*
X609Y1235D01*
X0Y1234D02*
X7Y1234D01*
X216Y1234D02*
X226Y1234D01*
X397Y1234D02*
X406Y1234D01*
X602Y1234D02*
X609Y1234D01*
X0Y1233D02*
X7Y1233D01*
X216Y1233D02*
X225Y1233D01*
X398Y1233D02*
X407Y1233D01*
X602Y1233D02*
X609Y1233D01*
X0Y1232D02*
X7Y1232D01*
X215Y1232D02*
X224Y1232D01*
X399Y1232D02*
X408Y1232D01*
X602Y1232D02*
X609Y1232D01*
X0Y1231D02*
X7Y1231D01*
X214Y1231D02*
X223Y1231D01*
X399Y1231D02*
X408Y1231D01*
X602Y1231D02*
X609Y1231D01*
X0Y1230D02*
X7Y1230D01*
X213Y1230D02*
X222Y1230D01*
X400Y1230D02*
X409Y1230D01*
X602Y1230D02*
X609Y1230D01*
X0Y1229D02*
X7Y1229D01*
X213Y1229D02*
X221Y1229D01*
X401Y1229D02*
X409Y1229D01*
X602Y1229D02*
X609Y1229D01*
X0Y1228D02*
X7Y1228D01*
X212Y1228D02*
X221Y1228D01*
X402Y1228D02*
X409Y1228D01*
X602Y1228D02*
X609Y1228D01*
X0Y1227D02*
X7Y1227D01*
X211Y1227D02*
X220Y1227D01*
X402Y1227D02*
X409Y1227D01*
X602Y1227D02*
X609Y1227D01*
X0Y1226D02*
X7Y1226D01*
X211Y1226D02*
X219Y1226D01*
X402Y1226D02*
X409Y1226D01*
X602Y1226D02*
X609Y1226D01*
X0Y1225D02*
X7Y1225D01*
X210Y1225D02*
X218Y1225D01*
X402Y1225D02*
X409Y1225D01*
X602Y1225D02*
X609Y1225D01*
X0Y1224D02*
X7Y1224D01*
X209Y1224D02*
X218Y1224D01*
X402Y1224D02*
X409Y1224D01*
X602Y1224D02*
X609Y1224D01*
X0Y1223D02*
X7Y1223D01*
X209Y1223D02*
X217Y1223D01*
X402Y1223D02*
X409Y1223D01*
X602Y1223D02*
X609Y1223D01*
X0Y1222D02*
X7Y1222D01*
X208Y1222D02*
X216Y1222D01*
X402Y1222D02*
X409Y1222D01*
X602Y1222D02*
X609Y1222D01*
X0Y1221D02*
X7Y1221D01*
X207Y1221D02*
X216Y1221D01*
X402Y1221D02*
X409Y1221D01*
X602Y1221D02*
X609Y1221D01*
X0Y1220D02*
X7Y1220D01*
X207Y1220D02*
X215Y1220D01*
X402Y1220D02*
X409Y1220D01*
X602Y1220D02*
X609Y1220D01*
X0Y1219D02*
X7Y1219D01*
X206Y1219D02*
X214Y1219D01*
X402Y1219D02*
X409Y1219D01*
X602Y1219D02*
X609Y1219D01*
X0Y1218D02*
X7Y1218D01*
X206Y1218D02*
X214Y1218D01*
X402Y1218D02*
X409Y1218D01*
X602Y1218D02*
X609Y1218D01*
X0Y1217D02*
X7Y1217D01*
X205Y1217D02*
X213Y1217D01*
X402Y1217D02*
X409Y1217D01*
X602Y1217D02*
X609Y1217D01*
X0Y1216D02*
X7Y1216D01*
X204Y1216D02*
X213Y1216D01*
X402Y1216D02*
X409Y1216D01*
X602Y1216D02*
X609Y1216D01*
X0Y1215D02*
X7Y1215D01*
X204Y1215D02*
X212Y1215D01*
X402Y1215D02*
X409Y1215D01*
X602Y1215D02*
X609Y1215D01*
X0Y1214D02*
X7Y1214D01*
X203Y1214D02*
X211Y1214D01*
X402Y1214D02*
X409Y1214D01*
X602Y1214D02*
X609Y1214D01*
X0Y1213D02*
X7Y1213D01*
X203Y1213D02*
X211Y1213D01*
X402Y1213D02*
X409Y1213D01*
X602Y1213D02*
X609Y1213D01*
X0Y1212D02*
X7Y1212D01*
X202Y1212D02*
X210Y1212D01*
X402Y1212D02*
X409Y1212D01*
X602Y1212D02*
X609Y1212D01*
X0Y1211D02*
X7Y1211D01*
X202Y1211D02*
X210Y1211D01*
X402Y1211D02*
X409Y1211D01*
X602Y1211D02*
X609Y1211D01*
X0Y1210D02*
X7Y1210D01*
X201Y1210D02*
X209Y1210D01*
X402Y1210D02*
X409Y1210D01*
X602Y1210D02*
X609Y1210D01*
X0Y1209D02*
X7Y1209D01*
X201Y1209D02*
X209Y1209D01*
X402Y1209D02*
X409Y1209D01*
X602Y1209D02*
X609Y1209D01*
X0Y1208D02*
X7Y1208D01*
X201Y1208D02*
X208Y1208D01*
X402Y1208D02*
X409Y1208D01*
X602Y1208D02*
X609Y1208D01*
X0Y1207D02*
X7Y1207D01*
X200Y1207D02*
X208Y1207D01*
X402Y1207D02*
X409Y1207D01*
X602Y1207D02*
X609Y1207D01*
X0Y1206D02*
X7Y1206D01*
X200Y1206D02*
X207Y1206D01*
X402Y1206D02*
X409Y1206D01*
X602Y1206D02*
X609Y1206D01*
X0Y1205D02*
X7Y1205D01*
X199Y1205D02*
X207Y1205D01*
X402Y1205D02*
X409Y1205D01*
X602Y1205D02*
X609Y1205D01*
X0Y1204D02*
X7Y1204D01*
X199Y1204D02*
X206Y1204D01*
X402Y1204D02*
X409Y1204D01*
X602Y1204D02*
X609Y1204D01*
X0Y1203D02*
X7Y1203D01*
X198Y1203D02*
X206Y1203D01*
X402Y1203D02*
X409Y1203D01*
X602Y1203D02*
X609Y1203D01*
X0Y1202D02*
X7Y1202D01*
X198Y1202D02*
X205Y1202D01*
X402Y1202D02*
X409Y1202D01*
X602Y1202D02*
X609Y1202D01*
X0Y1201D02*
X7Y1201D01*
X198Y1201D02*
X205Y1201D01*
X402Y1201D02*
X409Y1201D01*
X602Y1201D02*
X609Y1201D01*
X0Y1200D02*
X7Y1200D01*
X197Y1200D02*
X205Y1200D01*
X402Y1200D02*
X409Y1200D01*
X602Y1200D02*
X609Y1200D01*
X0Y1199D02*
X7Y1199D01*
X197Y1199D02*
X204Y1199D01*
X402Y1199D02*
X409Y1199D01*
X602Y1199D02*
X609Y1199D01*
X0Y1198D02*
X7Y1198D01*
X197Y1198D02*
X204Y1198D01*
X402Y1198D02*
X409Y1198D01*
X602Y1198D02*
X609Y1198D01*
X0Y1197D02*
X7Y1197D01*
X196Y1197D02*
X203Y1197D01*
X402Y1197D02*
X409Y1197D01*
X602Y1197D02*
X609Y1197D01*
X0Y1196D02*
X7Y1196D01*
X196Y1196D02*
X203Y1196D01*
X402Y1196D02*
X409Y1196D01*
X602Y1196D02*
X609Y1196D01*
X0Y1195D02*
X7Y1195D01*
X196Y1195D02*
X203Y1195D01*
X402Y1195D02*
X409Y1195D01*
X602Y1195D02*
X609Y1195D01*
X0Y1194D02*
X7Y1194D01*
X195Y1194D02*
X202Y1194D01*
X402Y1194D02*
X409Y1194D01*
X602Y1194D02*
X609Y1194D01*
X0Y1193D02*
X7Y1193D01*
X195Y1193D02*
X202Y1193D01*
X402Y1193D02*
X409Y1193D01*
X602Y1193D02*
X609Y1193D01*
X0Y1192D02*
X7Y1192D01*
X195Y1192D02*
X202Y1192D01*
X402Y1192D02*
X409Y1192D01*
X602Y1192D02*
X609Y1192D01*
X0Y1191D02*
X7Y1191D01*
X194Y1191D02*
X201Y1191D01*
X402Y1191D02*
X409Y1191D01*
X602Y1191D02*
X609Y1191D01*
X0Y1190D02*
X7Y1190D01*
X194Y1190D02*
X201Y1190D01*
X402Y1190D02*
X409Y1190D01*
X602Y1190D02*
X609Y1190D01*
X0Y1189D02*
X7Y1189D01*
X194Y1189D02*
X201Y1189D01*
X402Y1189D02*
X409Y1189D01*
X602Y1189D02*
X609Y1189D01*
X0Y1188D02*
X7Y1188D01*
X194Y1188D02*
X201Y1188D01*
X402Y1188D02*
X409Y1188D01*
X602Y1188D02*
X609Y1188D01*
X0Y1187D02*
X7Y1187D01*
X193Y1187D02*
X200Y1187D01*
X402Y1187D02*
X409Y1187D01*
X602Y1187D02*
X609Y1187D01*
X0Y1186D02*
X7Y1186D01*
X193Y1186D02*
X200Y1186D01*
X402Y1186D02*
X409Y1186D01*
X602Y1186D02*
X609Y1186D01*
X0Y1185D02*
X7Y1185D01*
X193Y1185D02*
X200Y1185D01*
X402Y1185D02*
X409Y1185D01*
X602Y1185D02*
X609Y1185D01*
X0Y1184D02*
X7Y1184D01*
X193Y1184D02*
X200Y1184D01*
X402Y1184D02*
X409Y1184D01*
X602Y1184D02*
X609Y1184D01*
X0Y1183D02*
X7Y1183D01*
X192Y1183D02*
X199Y1183D01*
X402Y1183D02*
X409Y1183D01*
X602Y1183D02*
X609Y1183D01*
X0Y1182D02*
X7Y1182D01*
X192Y1182D02*
X199Y1182D01*
X402Y1182D02*
X409Y1182D01*
X602Y1182D02*
X609Y1182D01*
X0Y1181D02*
X7Y1181D01*
X192Y1181D02*
X199Y1181D01*
X402Y1181D02*
X409Y1181D01*
X602Y1181D02*
X609Y1181D01*
X0Y1180D02*
X7Y1180D01*
X192Y1180D02*
X199Y1180D01*
X402Y1180D02*
X409Y1180D01*
X602Y1180D02*
X609Y1180D01*
X0Y1179D02*
X7Y1179D01*
X192Y1179D02*
X199Y1179D01*
X402Y1179D02*
X409Y1179D01*
X602Y1179D02*
X609Y1179D01*
X0Y1178D02*
X7Y1178D01*
X192Y1178D02*
X198Y1178D01*
X402Y1178D02*
X409Y1178D01*
X602Y1178D02*
X609Y1178D01*
X0Y1177D02*
X7Y1177D01*
X191Y1177D02*
X198Y1177D01*
X402Y1177D02*
X409Y1177D01*
X602Y1177D02*
X609Y1177D01*
X0Y1176D02*
X7Y1176D01*
X191Y1176D02*
X198Y1176D01*
X402Y1176D02*
X409Y1176D01*
X602Y1176D02*
X609Y1176D01*
X0Y1175D02*
X7Y1175D01*
X191Y1175D02*
X198Y1175D01*
X402Y1175D02*
X409Y1175D01*
X602Y1175D02*
X609Y1175D01*
X0Y1174D02*
X7Y1174D01*
X191Y1174D02*
X198Y1174D01*
X402Y1174D02*
X409Y1174D01*
X602Y1174D02*
X609Y1174D01*
X0Y1173D02*
X7Y1173D01*
X191Y1173D02*
X198Y1173D01*
X402Y1173D02*
X409Y1173D01*
X602Y1173D02*
X609Y1173D01*
X0Y1172D02*
X7Y1172D01*
X191Y1172D02*
X198Y1172D01*
X402Y1172D02*
X409Y1172D01*
X602Y1172D02*
X609Y1172D01*
X0Y1171D02*
X7Y1171D01*
X191Y1171D02*
X197Y1171D01*
X402Y1171D02*
X409Y1171D01*
X602Y1171D02*
X609Y1171D01*
X0Y1170D02*
X7Y1170D01*
X190Y1170D02*
X197Y1170D01*
X402Y1170D02*
X409Y1170D01*
X602Y1170D02*
X609Y1170D01*
X0Y1169D02*
X7Y1169D01*
X190Y1169D02*
X197Y1169D01*
X402Y1169D02*
X409Y1169D01*
X602Y1169D02*
X609Y1169D01*
X0Y1168D02*
X7Y1168D01*
X190Y1168D02*
X197Y1168D01*
X402Y1168D02*
X409Y1168D01*
X602Y1168D02*
X609Y1168D01*
X0Y1167D02*
X7Y1167D01*
X190Y1167D02*
X197Y1167D01*
X402Y1167D02*
X409Y1167D01*
X602Y1167D02*
X609Y1167D01*
X0Y1166D02*
X7Y1166D01*
X190Y1166D02*
X197Y1166D01*
X402Y1166D02*
X409Y1166D01*
X602Y1166D02*
X609Y1166D01*
X0Y1165D02*
X7Y1165D01*
X190Y1165D02*
X197Y1165D01*
X402Y1165D02*
X409Y1165D01*
X602Y1165D02*
X609Y1165D01*
X0Y1164D02*
X7Y1164D01*
X190Y1164D02*
X197Y1164D01*
X402Y1164D02*
X409Y1164D01*
X602Y1164D02*
X609Y1164D01*
X0Y1163D02*
X7Y1163D01*
X190Y1163D02*
X197Y1163D01*
X402Y1163D02*
X409Y1163D01*
X602Y1163D02*
X609Y1163D01*
X0Y1162D02*
X7Y1162D01*
X190Y1162D02*
X197Y1162D01*
X402Y1162D02*
X409Y1162D01*
X602Y1162D02*
X609Y1162D01*
X0Y1161D02*
X7Y1161D01*
X190Y1161D02*
X197Y1161D01*
X402Y1161D02*
X409Y1161D01*
X602Y1161D02*
X609Y1161D01*
X0Y1160D02*
X7Y1160D01*
X190Y1160D02*
X197Y1160D01*
X402Y1160D02*
X409Y1160D01*
X602Y1160D02*
X609Y1160D01*
X0Y1159D02*
X7Y1159D01*
X190Y1159D02*
X197Y1159D01*
X402Y1159D02*
X409Y1159D01*
X602Y1159D02*
X609Y1159D01*
X0Y1158D02*
X7Y1158D01*
X190Y1158D02*
X197Y1158D01*
X402Y1158D02*
X409Y1158D01*
X602Y1158D02*
X609Y1158D01*
X0Y1157D02*
X7Y1157D01*
X190Y1157D02*
X197Y1157D01*
X402Y1157D02*
X409Y1157D01*
X602Y1157D02*
X609Y1157D01*
X0Y1156D02*
X7Y1156D01*
X190Y1156D02*
X197Y1156D01*
X402Y1156D02*
X409Y1156D01*
X602Y1156D02*
X609Y1156D01*
X0Y1155D02*
X7Y1155D01*
X190Y1155D02*
X197Y1155D01*
X402Y1155D02*
X409Y1155D01*
X602Y1155D02*
X609Y1155D01*
X0Y1154D02*
X7Y1154D01*
X190Y1154D02*
X197Y1154D01*
X402Y1154D02*
X409Y1154D01*
X602Y1154D02*
X609Y1154D01*
X0Y1153D02*
X7Y1153D01*
X190Y1153D02*
X197Y1153D01*
X402Y1153D02*
X409Y1153D01*
X602Y1153D02*
X609Y1153D01*
X0Y1152D02*
X7Y1152D01*
X190Y1152D02*
X197Y1152D01*
X402Y1152D02*
X409Y1152D01*
X602Y1152D02*
X609Y1152D01*
X0Y1151D02*
X7Y1151D01*
X190Y1151D02*
X197Y1151D01*
X402Y1151D02*
X409Y1151D01*
X602Y1151D02*
X609Y1151D01*
X0Y1150D02*
X7Y1150D01*
X190Y1150D02*
X197Y1150D01*
X402Y1150D02*
X409Y1150D01*
X602Y1150D02*
X609Y1150D01*
X0Y1149D02*
X7Y1149D01*
X190Y1149D02*
X197Y1149D01*
X402Y1149D02*
X409Y1149D01*
X602Y1149D02*
X609Y1149D01*
X0Y1148D02*
X7Y1148D01*
X190Y1148D02*
X197Y1148D01*
X402Y1148D02*
X409Y1148D01*
X602Y1148D02*
X609Y1148D01*
X0Y1147D02*
X7Y1147D01*
X190Y1147D02*
X197Y1147D01*
X402Y1147D02*
X409Y1147D01*
X602Y1147D02*
X609Y1147D01*
X0Y1146D02*
X7Y1146D01*
X190Y1146D02*
X197Y1146D01*
X402Y1146D02*
X409Y1146D01*
X602Y1146D02*
X609Y1146D01*
X0Y1145D02*
X7Y1145D01*
X191Y1145D02*
X197Y1145D01*
X402Y1145D02*
X409Y1145D01*
X602Y1145D02*
X609Y1145D01*
X0Y1144D02*
X7Y1144D01*
X191Y1144D02*
X198Y1144D01*
X402Y1144D02*
X409Y1144D01*
X602Y1144D02*
X609Y1144D01*
X0Y1143D02*
X7Y1143D01*
X191Y1143D02*
X198Y1143D01*
X402Y1143D02*
X409Y1143D01*
X602Y1143D02*
X609Y1143D01*
X0Y1142D02*
X7Y1142D01*
X191Y1142D02*
X198Y1142D01*
X402Y1142D02*
X409Y1142D01*
X602Y1142D02*
X609Y1142D01*
X0Y1141D02*
X7Y1141D01*
X191Y1141D02*
X198Y1141D01*
X402Y1141D02*
X409Y1141D01*
X602Y1141D02*
X609Y1141D01*
X0Y1140D02*
X7Y1140D01*
X191Y1140D02*
X198Y1140D01*
X402Y1140D02*
X409Y1140D01*
X602Y1140D02*
X609Y1140D01*
X0Y1139D02*
X7Y1139D01*
X191Y1139D02*
X198Y1139D01*
X402Y1139D02*
X409Y1139D01*
X602Y1139D02*
X609Y1139D01*
X0Y1138D02*
X7Y1138D01*
X192Y1138D02*
X199Y1138D01*
X402Y1138D02*
X409Y1138D01*
X602Y1138D02*
X609Y1138D01*
X0Y1137D02*
X7Y1137D01*
X192Y1137D02*
X199Y1137D01*
X402Y1137D02*
X409Y1137D01*
X602Y1137D02*
X609Y1137D01*
X0Y1136D02*
X7Y1136D01*
X192Y1136D02*
X199Y1136D01*
X402Y1136D02*
X409Y1136D01*
X602Y1136D02*
X609Y1136D01*
X0Y1135D02*
X7Y1135D01*
X192Y1135D02*
X199Y1135D01*
X402Y1135D02*
X409Y1135D01*
X602Y1135D02*
X609Y1135D01*
X0Y1134D02*
X7Y1134D01*
X192Y1134D02*
X199Y1134D01*
X402Y1134D02*
X409Y1134D01*
X602Y1134D02*
X609Y1134D01*
X0Y1133D02*
X7Y1133D01*
X192Y1133D02*
X200Y1133D01*
X402Y1133D02*
X409Y1133D01*
X602Y1133D02*
X609Y1133D01*
X0Y1132D02*
X7Y1132D01*
X193Y1132D02*
X200Y1132D01*
X402Y1132D02*
X409Y1132D01*
X602Y1132D02*
X609Y1132D01*
X0Y1131D02*
X7Y1131D01*
X193Y1131D02*
X200Y1131D01*
X402Y1131D02*
X409Y1131D01*
X602Y1131D02*
X609Y1131D01*
X0Y1130D02*
X7Y1130D01*
X193Y1130D02*
X200Y1130D01*
X402Y1130D02*
X409Y1130D01*
X602Y1130D02*
X609Y1130D01*
X0Y1129D02*
X7Y1129D01*
X193Y1129D02*
X200Y1129D01*
X402Y1129D02*
X409Y1129D01*
X602Y1129D02*
X609Y1129D01*
X0Y1128D02*
X7Y1128D01*
X194Y1128D02*
X201Y1128D01*
X402Y1128D02*
X409Y1128D01*
X602Y1128D02*
X609Y1128D01*
X0Y1127D02*
X7Y1127D01*
X194Y1127D02*
X201Y1127D01*
X402Y1127D02*
X409Y1127D01*
X602Y1127D02*
X609Y1127D01*
X0Y1126D02*
X7Y1126D01*
X194Y1126D02*
X201Y1126D01*
X402Y1126D02*
X409Y1126D01*
X602Y1126D02*
X609Y1126D01*
X0Y1125D02*
X7Y1125D01*
X194Y1125D02*
X202Y1125D01*
X402Y1125D02*
X409Y1125D01*
X602Y1125D02*
X609Y1125D01*
X0Y1124D02*
X7Y1124D01*
X195Y1124D02*
X202Y1124D01*
X402Y1124D02*
X409Y1124D01*
X602Y1124D02*
X609Y1124D01*
X0Y1123D02*
X7Y1123D01*
X195Y1123D02*
X202Y1123D01*
X402Y1123D02*
X409Y1123D01*
X602Y1123D02*
X609Y1123D01*
X0Y1122D02*
X7Y1122D01*
X195Y1122D02*
X203Y1122D01*
X402Y1122D02*
X409Y1122D01*
X602Y1122D02*
X609Y1122D01*
X0Y1121D02*
X7Y1121D01*
X196Y1121D02*
X203Y1121D01*
X402Y1121D02*
X409Y1121D01*
X602Y1121D02*
X609Y1121D01*
X0Y1120D02*
X7Y1120D01*
X196Y1120D02*
X203Y1120D01*
X402Y1120D02*
X409Y1120D01*
X602Y1120D02*
X609Y1120D01*
X0Y1119D02*
X7Y1119D01*
X196Y1119D02*
X204Y1119D01*
X402Y1119D02*
X409Y1119D01*
X602Y1119D02*
X609Y1119D01*
X0Y1118D02*
X7Y1118D01*
X197Y1118D02*
X204Y1118D01*
X402Y1118D02*
X409Y1118D01*
X602Y1118D02*
X609Y1118D01*
X0Y1117D02*
X7Y1117D01*
X197Y1117D02*
X204Y1117D01*
X402Y1117D02*
X409Y1117D01*
X602Y1117D02*
X609Y1117D01*
X0Y1116D02*
X7Y1116D01*
X197Y1116D02*
X205Y1116D01*
X402Y1116D02*
X409Y1116D01*
X602Y1116D02*
X609Y1116D01*
X0Y1115D02*
X7Y1115D01*
X198Y1115D02*
X205Y1115D01*
X402Y1115D02*
X409Y1115D01*
X602Y1115D02*
X609Y1115D01*
X0Y1114D02*
X7Y1114D01*
X198Y1114D02*
X206Y1114D01*
X402Y1114D02*
X409Y1114D01*
X602Y1114D02*
X609Y1114D01*
X0Y1113D02*
X7Y1113D01*
X199Y1113D02*
X206Y1113D01*
X402Y1113D02*
X409Y1113D01*
X602Y1113D02*
X609Y1113D01*
X0Y1112D02*
X7Y1112D01*
X199Y1112D02*
X206Y1112D01*
X402Y1112D02*
X409Y1112D01*
X602Y1112D02*
X609Y1112D01*
X0Y1111D02*
X7Y1111D01*
X199Y1111D02*
X207Y1111D01*
X402Y1111D02*
X409Y1111D01*
X602Y1111D02*
X609Y1111D01*
X0Y1110D02*
X7Y1110D01*
X200Y1110D02*
X207Y1110D01*
X402Y1110D02*
X409Y1110D01*
X602Y1110D02*
X609Y1110D01*
X0Y1109D02*
X7Y1109D01*
X200Y1109D02*
X208Y1109D01*
X402Y1109D02*
X409Y1109D01*
X602Y1109D02*
X609Y1109D01*
X0Y1108D02*
X7Y1108D01*
X201Y1108D02*
X208Y1108D01*
X402Y1108D02*
X409Y1108D01*
X602Y1108D02*
X609Y1108D01*
X0Y1107D02*
X7Y1107D01*
X201Y1107D02*
X209Y1107D01*
X402Y1107D02*
X409Y1107D01*
X602Y1107D02*
X609Y1107D01*
X0Y1106D02*
X7Y1106D01*
X202Y1106D02*
X209Y1106D01*
X402Y1106D02*
X409Y1106D01*
X602Y1106D02*
X609Y1106D01*
X0Y1105D02*
X7Y1105D01*
X202Y1105D02*
X210Y1105D01*
X402Y1105D02*
X409Y1105D01*
X602Y1105D02*
X609Y1105D01*
X0Y1104D02*
X7Y1104D01*
X203Y1104D02*
X210Y1104D01*
X402Y1104D02*
X409Y1104D01*
X602Y1104D02*
X609Y1104D01*
X0Y1103D02*
X7Y1103D01*
X203Y1103D02*
X211Y1103D01*
X402Y1103D02*
X409Y1103D01*
X602Y1103D02*
X609Y1103D01*
X0Y1102D02*
X7Y1102D01*
X204Y1102D02*
X211Y1102D01*
X402Y1102D02*
X409Y1102D01*
X602Y1102D02*
X609Y1102D01*
X0Y1101D02*
X7Y1101D01*
X204Y1101D02*
X212Y1101D01*
X402Y1101D02*
X409Y1101D01*
X602Y1101D02*
X609Y1101D01*
X0Y1100D02*
X7Y1100D01*
X205Y1100D02*
X212Y1100D01*
X402Y1100D02*
X409Y1100D01*
X602Y1100D02*
X609Y1100D01*
X0Y1099D02*
X7Y1099D01*
X205Y1099D02*
X213Y1099D01*
X402Y1099D02*
X409Y1099D01*
X602Y1099D02*
X609Y1099D01*
X0Y1098D02*
X7Y1098D01*
X206Y1098D02*
X214Y1098D01*
X402Y1098D02*
X409Y1098D01*
X602Y1098D02*
X609Y1098D01*
X0Y1097D02*
X7Y1097D01*
X206Y1097D02*
X214Y1097D01*
X402Y1097D02*
X409Y1097D01*
X602Y1097D02*
X609Y1097D01*
X0Y1096D02*
X7Y1096D01*
X207Y1096D02*
X215Y1096D01*
X402Y1096D02*
X409Y1096D01*
X602Y1096D02*
X609Y1096D01*
X0Y1095D02*
X7Y1095D01*
X207Y1095D02*
X216Y1095D01*
X402Y1095D02*
X409Y1095D01*
X602Y1095D02*
X609Y1095D01*
X0Y1094D02*
X7Y1094D01*
X208Y1094D02*
X216Y1094D01*
X402Y1094D02*
X409Y1094D01*
X602Y1094D02*
X609Y1094D01*
X0Y1093D02*
X7Y1093D01*
X209Y1093D02*
X217Y1093D01*
X402Y1093D02*
X409Y1093D01*
X602Y1093D02*
X609Y1093D01*
X0Y1092D02*
X7Y1092D01*
X209Y1092D02*
X218Y1092D01*
X402Y1092D02*
X409Y1092D01*
X602Y1092D02*
X609Y1092D01*
X0Y1091D02*
X7Y1091D01*
X210Y1091D02*
X218Y1091D01*
X402Y1091D02*
X409Y1091D01*
X602Y1091D02*
X609Y1091D01*
X0Y1090D02*
X7Y1090D01*
X211Y1090D02*
X219Y1090D01*
X402Y1090D02*
X409Y1090D01*
X602Y1090D02*
X609Y1090D01*
X0Y1089D02*
X7Y1089D01*
X211Y1089D02*
X220Y1089D01*
X402Y1089D02*
X409Y1089D01*
X602Y1089D02*
X609Y1089D01*
X0Y1088D02*
X7Y1088D01*
X212Y1088D02*
X221Y1088D01*
X402Y1088D02*
X409Y1088D01*
X602Y1088D02*
X609Y1088D01*
X0Y1087D02*
X7Y1087D01*
X213Y1087D02*
X221Y1087D01*
X401Y1087D02*
X409Y1087D01*
X602Y1087D02*
X609Y1087D01*
X0Y1086D02*
X7Y1086D01*
X213Y1086D02*
X222Y1086D01*
X400Y1086D02*
X409Y1086D01*
X602Y1086D02*
X609Y1086D01*
X0Y1085D02*
X7Y1085D01*
X214Y1085D02*
X223Y1085D01*
X399Y1085D02*
X408Y1085D01*
X602Y1085D02*
X609Y1085D01*
X0Y1084D02*
X7Y1084D01*
X215Y1084D02*
X224Y1084D01*
X399Y1084D02*
X408Y1084D01*
X602Y1084D02*
X609Y1084D01*
X0Y1083D02*
X7Y1083D01*
X216Y1083D02*
X225Y1083D01*
X398Y1083D02*
X407Y1083D01*
X602Y1083D02*
X609Y1083D01*
X0Y1082D02*
X7Y1082D01*
X216Y1082D02*
X226Y1082D01*
X397Y1082D02*
X406Y1082D01*
X602Y1082D02*
X609Y1082D01*
X0Y1081D02*
X7Y1081D01*
X217Y1081D02*
X227Y1081D01*
X396Y1081D02*
X405Y1081D01*
X602Y1081D02*
X609Y1081D01*
X0Y1080D02*
X7Y1080D01*
X218Y1080D02*
X228Y1080D01*
X395Y1080D02*
X404Y1080D01*
X602Y1080D02*
X609Y1080D01*
X0Y1079D02*
X7Y1079D01*
X219Y1079D02*
X228Y1079D01*
X394Y1079D02*
X404Y1079D01*
X602Y1079D02*
X609Y1079D01*
X0Y1078D02*
X7Y1078D01*
X220Y1078D02*
X229Y1078D01*
X393Y1078D02*
X403Y1078D01*
X602Y1078D02*
X609Y1078D01*
X0Y1077D02*
X7Y1077D01*
X221Y1077D02*
X230Y1077D01*
X392Y1077D02*
X402Y1077D01*
X602Y1077D02*
X609Y1077D01*
X0Y1076D02*
X7Y1076D01*
X222Y1076D02*
X232Y1076D01*
X391Y1076D02*
X401Y1076D01*
X602Y1076D02*
X609Y1076D01*
X0Y1075D02*
X7Y1075D01*
X223Y1075D02*
X233Y1075D01*
X390Y1075D02*
X400Y1075D01*
X602Y1075D02*
X609Y1075D01*
X0Y1074D02*
X7Y1074D01*
X223Y1074D02*
X234Y1074D01*
X389Y1074D02*
X399Y1074D01*
X602Y1074D02*
X609Y1074D01*
X0Y1073D02*
X7Y1073D01*
X224Y1073D02*
X235Y1073D01*
X388Y1073D02*
X398Y1073D01*
X602Y1073D02*
X609Y1073D01*
X0Y1072D02*
X7Y1072D01*
X225Y1072D02*
X236Y1072D01*
X387Y1072D02*
X397Y1072D01*
X602Y1072D02*
X609Y1072D01*
X0Y1071D02*
X7Y1071D01*
X226Y1071D02*
X237Y1071D01*
X386Y1071D02*
X396Y1071D01*
X602Y1071D02*
X609Y1071D01*
X0Y1070D02*
X7Y1070D01*
X227Y1070D02*
X238Y1070D01*
X384Y1070D02*
X395Y1070D01*
X602Y1070D02*
X609Y1070D01*
X0Y1069D02*
X7Y1069D01*
X228Y1069D02*
X240Y1069D01*
X383Y1069D02*
X394Y1069D01*
X602Y1069D02*
X609Y1069D01*
X0Y1068D02*
X7Y1068D01*
X230Y1068D02*
X241Y1068D01*
X382Y1068D02*
X393Y1068D01*
X602Y1068D02*
X609Y1068D01*
X0Y1067D02*
X7Y1067D01*
X231Y1067D02*
X242Y1067D01*
X381Y1067D02*
X392Y1067D01*
X602Y1067D02*
X609Y1067D01*
X0Y1066D02*
X7Y1066D01*
X232Y1066D02*
X243Y1066D01*
X379Y1066D02*
X391Y1066D01*
X602Y1066D02*
X609Y1066D01*
X0Y1065D02*
X7Y1065D01*
X233Y1065D02*
X245Y1065D01*
X378Y1065D02*
X390Y1065D01*
X602Y1065D02*
X609Y1065D01*
X0Y1064D02*
X7Y1064D01*
X234Y1064D02*
X246Y1064D01*
X376Y1064D02*
X388Y1064D01*
X602Y1064D02*
X609Y1064D01*
X0Y1063D02*
X7Y1063D01*
X235Y1063D02*
X248Y1063D01*
X375Y1063D02*
X387Y1063D01*
X602Y1063D02*
X609Y1063D01*
X0Y1062D02*
X7Y1062D01*
X237Y1062D02*
X249Y1062D01*
X374Y1062D02*
X386Y1062D01*
X602Y1062D02*
X609Y1062D01*
X0Y1061D02*
X7Y1061D01*
X238Y1061D02*
X251Y1061D01*
X372Y1061D02*
X385Y1061D01*
X602Y1061D02*
X609Y1061D01*
X0Y1060D02*
X7Y1060D01*
X239Y1060D02*
X252Y1060D01*
X370Y1060D02*
X383Y1060D01*
X602Y1060D02*
X609Y1060D01*
X0Y1059D02*
X7Y1059D01*
X241Y1059D02*
X254Y1059D01*
X369Y1059D02*
X382Y1059D01*
X602Y1059D02*
X609Y1059D01*
X0Y1058D02*
X7Y1058D01*
X242Y1058D02*
X256Y1058D01*
X367Y1058D02*
X380Y1058D01*
X602Y1058D02*
X609Y1058D01*
X0Y1057D02*
X7Y1057D01*
X244Y1057D02*
X258Y1057D01*
X365Y1057D02*
X379Y1057D01*
X602Y1057D02*
X609Y1057D01*
X0Y1056D02*
X7Y1056D01*
X245Y1056D02*
X260Y1056D01*
X363Y1056D02*
X377Y1056D01*
X602Y1056D02*
X609Y1056D01*
X0Y1055D02*
X7Y1055D01*
X247Y1055D02*
X262Y1055D01*
X361Y1055D02*
X376Y1055D01*
X602Y1055D02*
X609Y1055D01*
X0Y1054D02*
X7Y1054D01*
X248Y1054D02*
X264Y1054D01*
X359Y1054D02*
X374Y1054D01*
X602Y1054D02*
X609Y1054D01*
X0Y1053D02*
X7Y1053D01*
X250Y1053D02*
X266Y1053D01*
X356Y1053D02*
X373Y1053D01*
X602Y1053D02*
X609Y1053D01*
X0Y1052D02*
X7Y1052D01*
X252Y1052D02*
X269Y1052D01*
X354Y1052D02*
X371Y1052D01*
X602Y1052D02*
X609Y1052D01*
X0Y1051D02*
X7Y1051D01*
X253Y1051D02*
X271Y1051D01*
X351Y1051D02*
X369Y1051D01*
X602Y1051D02*
X609Y1051D01*
X0Y1050D02*
X7Y1050D01*
X255Y1050D02*
X274Y1050D01*
X349Y1050D02*
X367Y1050D01*
X602Y1050D02*
X609Y1050D01*
X0Y1049D02*
X7Y1049D01*
X257Y1049D02*
X277Y1049D01*
X345Y1049D02*
X365Y1049D01*
X602Y1049D02*
X609Y1049D01*
X0Y1048D02*
X7Y1048D01*
X259Y1048D02*
X280Y1048D01*
X342Y1048D02*
X363Y1048D01*
X602Y1048D02*
X609Y1048D01*
X0Y1047D02*
X7Y1047D01*
X261Y1047D02*
X284Y1047D01*
X338Y1047D02*
X361Y1047D01*
X602Y1047D02*
X609Y1047D01*
X0Y1046D02*
X7Y1046D01*
X264Y1046D02*
X289Y1046D01*
X333Y1046D02*
X359Y1046D01*
X602Y1046D02*
X609Y1046D01*
X0Y1045D02*
X7Y1045D01*
X266Y1045D02*
X295Y1045D01*
X327Y1045D02*
X356Y1045D01*
X602Y1045D02*
X609Y1045D01*
X0Y1044D02*
X7Y1044D01*
X269Y1044D02*
X307Y1044D01*
X315Y1044D02*
X354Y1044D01*
X602Y1044D02*
X609Y1044D01*
X0Y1043D02*
X7Y1043D01*
X271Y1043D02*
X351Y1043D01*
X602Y1043D02*
X609Y1043D01*
X0Y1042D02*
X7Y1042D01*
X274Y1042D02*
X348Y1042D01*
X602Y1042D02*
X609Y1042D01*
X0Y1041D02*
X7Y1041D01*
X278Y1041D02*
X345Y1041D01*
X602Y1041D02*
X609Y1041D01*
X0Y1040D02*
X7Y1040D01*
X281Y1040D02*
X341Y1040D01*
X602Y1040D02*
X609Y1040D01*
X0Y1039D02*
X7Y1039D01*
X286Y1039D02*
X337Y1039D01*
X602Y1039D02*
X609Y1039D01*
X0Y1038D02*
X7Y1038D01*
X291Y1038D02*
X332Y1038D01*
X602Y1038D02*
X609Y1038D01*
X0Y1037D02*
X7Y1037D01*
X297Y1037D02*
X326Y1037D01*
X602Y1037D02*
X609Y1037D01*
X0Y1036D02*
X7Y1036D01*
X602Y1036D02*
X609Y1036D01*
X0Y1035D02*
X7Y1035D01*
X602Y1035D02*
X609Y1035D01*
X0Y1034D02*
X7Y1034D01*
X602Y1034D02*
X609Y1034D01*
X0Y1033D02*
X7Y1033D01*
X602Y1033D02*
X609Y1033D01*
X0Y1032D02*
X7Y1032D01*
X602Y1032D02*
X609Y1032D01*
X0Y1031D02*
X7Y1031D01*
X602Y1031D02*
X609Y1031D01*
X0Y1030D02*
X7Y1030D01*
X602Y1030D02*
X609Y1030D01*
X0Y1029D02*
X7Y1029D01*
X602Y1029D02*
X609Y1029D01*
X0Y1028D02*
X7Y1028D01*
X602Y1028D02*
X609Y1028D01*
X0Y1027D02*
X7Y1027D01*
X602Y1027D02*
X609Y1027D01*
X0Y1026D02*
X7Y1026D01*
X602Y1026D02*
X609Y1026D01*
X0Y1025D02*
X7Y1025D01*
X602Y1025D02*
X609Y1025D01*
X0Y1024D02*
X7Y1024D01*
X602Y1024D02*
X609Y1024D01*
X0Y1023D02*
X7Y1023D01*
X602Y1023D02*
X609Y1023D01*
X0Y1022D02*
X7Y1022D01*
X602Y1022D02*
X609Y1022D01*
X0Y1021D02*
X7Y1021D01*
X602Y1021D02*
X609Y1021D01*
X0Y1020D02*
X7Y1020D01*
X602Y1020D02*
X609Y1020D01*
X0Y1019D02*
X7Y1019D01*
X602Y1019D02*
X609Y1019D01*
X0Y1018D02*
X7Y1018D01*
X602Y1018D02*
X609Y1018D01*
X0Y1017D02*
X7Y1017D01*
X602Y1017D02*
X609Y1017D01*
X0Y1016D02*
X7Y1016D01*
X602Y1016D02*
X609Y1016D01*
X0Y1015D02*
X7Y1015D01*
X602Y1015D02*
X609Y1015D01*
X0Y1014D02*
X7Y1014D01*
X602Y1014D02*
X609Y1014D01*
X0Y1013D02*
X7Y1013D01*
X602Y1013D02*
X609Y1013D01*
X0Y1012D02*
X7Y1012D01*
X602Y1012D02*
X609Y1012D01*
X0Y1011D02*
X7Y1011D01*
X602Y1011D02*
X609Y1011D01*
X0Y1010D02*
X7Y1010D01*
X602Y1010D02*
X609Y1010D01*
X0Y1009D02*
X7Y1009D01*
X602Y1009D02*
X609Y1009D01*
X0Y1008D02*
X7Y1008D01*
X602Y1008D02*
X609Y1008D01*
X0Y1007D02*
X7Y1007D01*
X602Y1007D02*
X609Y1007D01*
X0Y1006D02*
X7Y1006D01*
X602Y1006D02*
X609Y1006D01*
X0Y1005D02*
X7Y1005D01*
X602Y1005D02*
X609Y1005D01*
X0Y1004D02*
X7Y1004D01*
X602Y1004D02*
X609Y1004D01*
X0Y1003D02*
X7Y1003D01*
X602Y1003D02*
X609Y1003D01*
X0Y1002D02*
X7Y1002D01*
X602Y1002D02*
X609Y1002D01*
X0Y1001D02*
X7Y1001D01*
X602Y1001D02*
X609Y1001D01*
X0Y1000D02*
X7Y1000D01*
X602Y1000D02*
X609Y1000D01*
X0Y999D02*
X7Y999D01*
X602Y999D02*
X609Y999D01*
X0Y998D02*
X7Y998D01*
X602Y998D02*
X609Y998D01*
X0Y997D02*
X7Y997D01*
X602Y997D02*
X609Y997D01*
X0Y996D02*
X7Y996D01*
X602Y996D02*
X609Y996D01*
X0Y995D02*
X7Y995D01*
X602Y995D02*
X609Y995D01*
X0Y994D02*
X7Y994D01*
X602Y994D02*
X609Y994D01*
X0Y993D02*
X7Y993D01*
X602Y993D02*
X609Y993D01*
X0Y992D02*
X7Y992D01*
X602Y992D02*
X609Y992D01*
X0Y991D02*
X7Y991D01*
X602Y991D02*
X609Y991D01*
X0Y990D02*
X7Y990D01*
X602Y990D02*
X609Y990D01*
X0Y989D02*
X7Y989D01*
X602Y989D02*
X609Y989D01*
X0Y988D02*
X7Y988D01*
X602Y988D02*
X609Y988D01*
X0Y987D02*
X7Y987D01*
X602Y987D02*
X609Y987D01*
X0Y986D02*
X7Y986D01*
X602Y986D02*
X609Y986D01*
X0Y985D02*
X7Y985D01*
X602Y985D02*
X609Y985D01*
X0Y984D02*
X7Y984D01*
X602Y984D02*
X609Y984D01*
X0Y983D02*
X7Y983D01*
X602Y983D02*
X609Y983D01*
X0Y982D02*
X7Y982D01*
X602Y982D02*
X609Y982D01*
X0Y981D02*
X7Y981D01*
X602Y981D02*
X609Y981D01*
X0Y980D02*
X7Y980D01*
X602Y980D02*
X609Y980D01*
X0Y979D02*
X7Y979D01*
X602Y979D02*
X609Y979D01*
X0Y978D02*
X7Y978D01*
X602Y978D02*
X609Y978D01*
X0Y977D02*
X7Y977D01*
X602Y977D02*
X609Y977D01*
X0Y976D02*
X7Y976D01*
X602Y976D02*
X609Y976D01*
X0Y975D02*
X7Y975D01*
X602Y975D02*
X609Y975D01*
X0Y974D02*
X7Y974D01*
X602Y974D02*
X609Y974D01*
X0Y973D02*
X7Y973D01*
X602Y973D02*
X609Y973D01*
X0Y972D02*
X7Y972D01*
X602Y972D02*
X609Y972D01*
X0Y971D02*
X7Y971D01*
X602Y971D02*
X609Y971D01*
X0Y970D02*
X7Y970D01*
X602Y970D02*
X609Y970D01*
X0Y969D02*
X7Y969D01*
X602Y969D02*
X609Y969D01*
X0Y968D02*
X7Y968D01*
X602Y968D02*
X609Y968D01*
X0Y967D02*
X7Y967D01*
X602Y967D02*
X609Y967D01*
X0Y966D02*
X7Y966D01*
X602Y966D02*
X609Y966D01*
X0Y965D02*
X7Y965D01*
X602Y965D02*
X609Y965D01*
X0Y964D02*
X7Y964D01*
X602Y964D02*
X609Y964D01*
X0Y963D02*
X7Y963D01*
X602Y963D02*
X609Y963D01*
X0Y962D02*
X7Y962D01*
X602Y962D02*
X609Y962D01*
X0Y961D02*
X7Y961D01*
X602Y961D02*
X609Y961D01*
X0Y960D02*
X7Y960D01*
X602Y960D02*
X609Y960D01*
X0Y959D02*
X7Y959D01*
X602Y959D02*
X609Y959D01*
X0Y958D02*
X7Y958D01*
X602Y958D02*
X609Y958D01*
X0Y957D02*
X7Y957D01*
X602Y957D02*
X609Y957D01*
X0Y956D02*
X7Y956D01*
X602Y956D02*
X609Y956D01*
X0Y955D02*
X7Y955D01*
X602Y955D02*
X609Y955D01*
X0Y954D02*
X7Y954D01*
X602Y954D02*
X609Y954D01*
X0Y953D02*
X7Y953D01*
X602Y953D02*
X609Y953D01*
X0Y952D02*
X7Y952D01*
X602Y952D02*
X609Y952D01*
X0Y951D02*
X7Y951D01*
X602Y951D02*
X609Y951D01*
X0Y950D02*
X7Y950D01*
X602Y950D02*
X609Y950D01*
X0Y949D02*
X7Y949D01*
X602Y949D02*
X609Y949D01*
X0Y948D02*
X7Y948D01*
X602Y948D02*
X609Y948D01*
X0Y947D02*
X7Y947D01*
X602Y947D02*
X609Y947D01*
X0Y946D02*
X7Y946D01*
X602Y946D02*
X609Y946D01*
X0Y945D02*
X7Y945D01*
X602Y945D02*
X609Y945D01*
X0Y944D02*
X7Y944D01*
X602Y944D02*
X609Y944D01*
X0Y943D02*
X7Y943D01*
X602Y943D02*
X609Y943D01*
X0Y942D02*
X7Y942D01*
X602Y942D02*
X609Y942D01*
X0Y941D02*
X7Y941D01*
X602Y941D02*
X609Y941D01*
X0Y940D02*
X7Y940D01*
X602Y940D02*
X609Y940D01*
X0Y939D02*
X7Y939D01*
X602Y939D02*
X609Y939D01*
X0Y938D02*
X7Y938D01*
X602Y938D02*
X609Y938D01*
X0Y937D02*
X7Y937D01*
X602Y937D02*
X609Y937D01*
X0Y936D02*
X7Y936D01*
X602Y936D02*
X609Y936D01*
X0Y935D02*
X7Y935D01*
X602Y935D02*
X609Y935D01*
X0Y934D02*
X7Y934D01*
X602Y934D02*
X609Y934D01*
X0Y933D02*
X7Y933D01*
X602Y933D02*
X609Y933D01*
X0Y932D02*
X7Y932D01*
X602Y932D02*
X609Y932D01*
X0Y931D02*
X7Y931D01*
X602Y931D02*
X609Y931D01*
X0Y930D02*
X7Y930D01*
X602Y930D02*
X609Y930D01*
X0Y929D02*
X7Y929D01*
X602Y929D02*
X609Y929D01*
X0Y928D02*
X7Y928D01*
X602Y928D02*
X609Y928D01*
X0Y927D02*
X7Y927D01*
X602Y927D02*
X609Y927D01*
X0Y926D02*
X7Y926D01*
X602Y926D02*
X609Y926D01*
X0Y925D02*
X7Y925D01*
X602Y925D02*
X609Y925D01*
X0Y924D02*
X7Y924D01*
X602Y924D02*
X609Y924D01*
X0Y923D02*
X7Y923D01*
X602Y923D02*
X609Y923D01*
X0Y922D02*
X7Y922D01*
X602Y922D02*
X609Y922D01*
X0Y921D02*
X7Y921D01*
X602Y921D02*
X609Y921D01*
X0Y920D02*
X7Y920D01*
X602Y920D02*
X609Y920D01*
X0Y919D02*
X7Y919D01*
X602Y919D02*
X609Y919D01*
X0Y918D02*
X7Y918D01*
X602Y918D02*
X609Y918D01*
X0Y917D02*
X7Y917D01*
X602Y917D02*
X609Y917D01*
X0Y916D02*
X7Y916D01*
X602Y916D02*
X609Y916D01*
X0Y915D02*
X7Y915D01*
X602Y915D02*
X609Y915D01*
X0Y914D02*
X7Y914D01*
X602Y914D02*
X609Y914D01*
X0Y913D02*
X7Y913D01*
X602Y913D02*
X609Y913D01*
X0Y912D02*
X7Y912D01*
X602Y912D02*
X609Y912D01*
X0Y911D02*
X7Y911D01*
X602Y911D02*
X609Y911D01*
X0Y910D02*
X7Y910D01*
X602Y910D02*
X609Y910D01*
X0Y909D02*
X7Y909D01*
X602Y909D02*
X609Y909D01*
X0Y908D02*
X7Y908D01*
X602Y908D02*
X609Y908D01*
X0Y907D02*
X7Y907D01*
X602Y907D02*
X609Y907D01*
X0Y906D02*
X7Y906D01*
X602Y906D02*
X609Y906D01*
X0Y905D02*
X7Y905D01*
X602Y905D02*
X609Y905D01*
X0Y904D02*
X7Y904D01*
X602Y904D02*
X609Y904D01*
X0Y903D02*
X7Y903D01*
X602Y903D02*
X609Y903D01*
X0Y902D02*
X7Y902D01*
X602Y902D02*
X609Y902D01*
X0Y901D02*
X7Y901D01*
X602Y901D02*
X609Y901D01*
X0Y900D02*
X7Y900D01*
X602Y900D02*
X609Y900D01*
X0Y899D02*
X7Y899D01*
X602Y899D02*
X609Y899D01*
X0Y898D02*
X7Y898D01*
X602Y898D02*
X609Y898D01*
X0Y897D02*
X7Y897D01*
X602Y897D02*
X609Y897D01*
X0Y896D02*
X7Y896D01*
X602Y896D02*
X609Y896D01*
X0Y895D02*
X7Y895D01*
X602Y895D02*
X609Y895D01*
X0Y894D02*
X7Y894D01*
X602Y894D02*
X609Y894D01*
X0Y893D02*
X7Y893D01*
X602Y893D02*
X609Y893D01*
X0Y892D02*
X7Y892D01*
X602Y892D02*
X609Y892D01*
X0Y891D02*
X7Y891D01*
X602Y891D02*
X609Y891D01*
X0Y890D02*
X7Y890D01*
X602Y890D02*
X609Y890D01*
X0Y889D02*
X7Y889D01*
X602Y889D02*
X609Y889D01*
X0Y888D02*
X7Y888D01*
X602Y888D02*
X609Y888D01*
X0Y887D02*
X7Y887D01*
X602Y887D02*
X609Y887D01*
X0Y886D02*
X7Y886D01*
X602Y886D02*
X609Y886D01*
X0Y885D02*
X7Y885D01*
X602Y885D02*
X609Y885D01*
X0Y884D02*
X7Y884D01*
X602Y884D02*
X609Y884D01*
X0Y883D02*
X7Y883D01*
X602Y883D02*
X609Y883D01*
X0Y882D02*
X7Y882D01*
X602Y882D02*
X609Y882D01*
X0Y881D02*
X7Y881D01*
X602Y881D02*
X609Y881D01*
X0Y880D02*
X7Y880D01*
X602Y880D02*
X609Y880D01*
X0Y879D02*
X7Y879D01*
X602Y879D02*
X609Y879D01*
X0Y878D02*
X7Y878D01*
X602Y878D02*
X609Y878D01*
X0Y877D02*
X7Y877D01*
X602Y877D02*
X609Y877D01*
X0Y876D02*
X7Y876D01*
X602Y876D02*
X609Y876D01*
X0Y875D02*
X7Y875D01*
X602Y875D02*
X609Y875D01*
X0Y874D02*
X7Y874D01*
X602Y874D02*
X609Y874D01*
X0Y873D02*
X7Y873D01*
X602Y873D02*
X609Y873D01*
X0Y872D02*
X7Y872D01*
X602Y872D02*
X609Y872D01*
X0Y871D02*
X7Y871D01*
X602Y871D02*
X609Y871D01*
X0Y870D02*
X7Y870D01*
X602Y870D02*
X609Y870D01*
X0Y869D02*
X7Y869D01*
X602Y869D02*
X609Y869D01*
X0Y868D02*
X7Y868D01*
X602Y868D02*
X609Y868D01*
X0Y867D02*
X7Y867D01*
X602Y867D02*
X609Y867D01*
X0Y866D02*
X7Y866D01*
X602Y866D02*
X609Y866D01*
X0Y865D02*
X7Y865D01*
X602Y865D02*
X609Y865D01*
X0Y864D02*
X7Y864D01*
X602Y864D02*
X609Y864D01*
X0Y863D02*
X7Y863D01*
X602Y863D02*
X609Y863D01*
X0Y862D02*
X7Y862D01*
X602Y862D02*
X609Y862D01*
X0Y861D02*
X7Y861D01*
X602Y861D02*
X609Y861D01*
X0Y860D02*
X7Y860D01*
X602Y860D02*
X609Y860D01*
X0Y859D02*
X7Y859D01*
X602Y859D02*
X609Y859D01*
X0Y858D02*
X7Y858D01*
X602Y858D02*
X609Y858D01*
X0Y857D02*
X7Y857D01*
X602Y857D02*
X609Y857D01*
X0Y856D02*
X7Y856D01*
X602Y856D02*
X609Y856D01*
X0Y855D02*
X7Y855D01*
X602Y855D02*
X609Y855D01*
X0Y854D02*
X7Y854D01*
X602Y854D02*
X609Y854D01*
X0Y853D02*
X7Y853D01*
X602Y853D02*
X609Y853D01*
X0Y852D02*
X7Y852D01*
X602Y852D02*
X609Y852D01*
X0Y851D02*
X7Y851D01*
X602Y851D02*
X609Y851D01*
X0Y850D02*
X7Y850D01*
X602Y850D02*
X609Y850D01*
X0Y849D02*
X7Y849D01*
X602Y849D02*
X609Y849D01*
X0Y848D02*
X7Y848D01*
X602Y848D02*
X609Y848D01*
X0Y847D02*
X7Y847D01*
X602Y847D02*
X609Y847D01*
X0Y846D02*
X7Y846D01*
X602Y846D02*
X609Y846D01*
X0Y845D02*
X7Y845D01*
X602Y845D02*
X609Y845D01*
X0Y844D02*
X7Y844D01*
X602Y844D02*
X609Y844D01*
X0Y843D02*
X7Y843D01*
X602Y843D02*
X609Y843D01*
X0Y842D02*
X7Y842D01*
X602Y842D02*
X609Y842D01*
X0Y841D02*
X7Y841D01*
X602Y841D02*
X609Y841D01*
X0Y840D02*
X7Y840D01*
X602Y840D02*
X609Y840D01*
X0Y839D02*
X7Y839D01*
X602Y839D02*
X609Y839D01*
X0Y838D02*
X7Y838D01*
X602Y838D02*
X609Y838D01*
X0Y837D02*
X7Y837D01*
X602Y837D02*
X609Y837D01*
X0Y836D02*
X7Y836D01*
X602Y836D02*
X609Y836D01*
X0Y835D02*
X7Y835D01*
X602Y835D02*
X609Y835D01*
X0Y834D02*
X7Y834D01*
X602Y834D02*
X609Y834D01*
X0Y833D02*
X7Y833D01*
X602Y833D02*
X609Y833D01*
X0Y832D02*
X7Y832D01*
X602Y832D02*
X609Y832D01*
X0Y831D02*
X7Y831D01*
X602Y831D02*
X609Y831D01*
X0Y830D02*
X7Y830D01*
X602Y830D02*
X609Y830D01*
X0Y829D02*
X7Y829D01*
X602Y829D02*
X609Y829D01*
X0Y828D02*
X7Y828D01*
X602Y828D02*
X609Y828D01*
X0Y827D02*
X7Y827D01*
X602Y827D02*
X609Y827D01*
X0Y826D02*
X7Y826D01*
X602Y826D02*
X609Y826D01*
X0Y825D02*
X7Y825D01*
X602Y825D02*
X609Y825D01*
X0Y824D02*
X7Y824D01*
X602Y824D02*
X609Y824D01*
X0Y823D02*
X7Y823D01*
X602Y823D02*
X609Y823D01*
X0Y822D02*
X7Y822D01*
X602Y822D02*
X609Y822D01*
X0Y821D02*
X7Y821D01*
X602Y821D02*
X609Y821D01*
X0Y820D02*
X7Y820D01*
X602Y820D02*
X609Y820D01*
X0Y819D02*
X7Y819D01*
X602Y819D02*
X609Y819D01*
X0Y818D02*
X7Y818D01*
X602Y818D02*
X609Y818D01*
X0Y817D02*
X7Y817D01*
X602Y817D02*
X609Y817D01*
X0Y816D02*
X7Y816D01*
X156Y816D02*
X156Y816D01*
X602Y816D02*
X609Y816D01*
X0Y815D02*
X7Y815D01*
X156Y815D02*
X165Y815D01*
X256Y815D02*
X265Y815D01*
X356Y815D02*
X365Y815D01*
X602Y815D02*
X609Y815D01*
X0Y814D02*
X7Y814D01*
X156Y814D02*
X165Y814D01*
X256Y814D02*
X265Y814D01*
X356Y814D02*
X365Y814D01*
X602Y814D02*
X609Y814D01*
X0Y813D02*
X7Y813D01*
X156Y813D02*
X165Y813D01*
X256Y813D02*
X265Y813D01*
X356Y813D02*
X365Y813D01*
X602Y813D02*
X609Y813D01*
X0Y812D02*
X7Y812D01*
X156Y812D02*
X165Y812D01*
X256Y812D02*
X265Y812D01*
X356Y812D02*
X365Y812D01*
X602Y812D02*
X609Y812D01*
X0Y811D02*
X7Y811D01*
X156Y811D02*
X165Y811D01*
X256Y811D02*
X265Y811D01*
X356Y811D02*
X365Y811D01*
X602Y811D02*
X609Y811D01*
X0Y810D02*
X7Y810D01*
X156Y810D02*
X165Y810D01*
X256Y810D02*
X265Y810D01*
X356Y810D02*
X365Y810D01*
X602Y810D02*
X609Y810D01*
X0Y809D02*
X7Y809D01*
X156Y809D02*
X165Y809D01*
X256Y809D02*
X265Y809D01*
X356Y809D02*
X365Y809D01*
X602Y809D02*
X609Y809D01*
X0Y808D02*
X7Y808D01*
X156Y808D02*
X165Y808D01*
X256Y808D02*
X265Y808D01*
X356Y808D02*
X365Y808D01*
X602Y808D02*
X609Y808D01*
X0Y807D02*
X7Y807D01*
X156Y807D02*
X165Y807D01*
X256Y807D02*
X265Y807D01*
X356Y807D02*
X365Y807D01*
X602Y807D02*
X609Y807D01*
X0Y806D02*
X7Y806D01*
X156Y806D02*
X165Y806D01*
X256Y806D02*
X265Y806D01*
X356Y806D02*
X365Y806D01*
X602Y806D02*
X609Y806D01*
X0Y805D02*
X7Y805D01*
X156Y805D02*
X165Y805D01*
X256Y805D02*
X265Y805D01*
X356Y805D02*
X365Y805D01*
X602Y805D02*
X609Y805D01*
X0Y804D02*
X7Y804D01*
X156Y804D02*
X165Y804D01*
X256Y804D02*
X265Y804D01*
X356Y804D02*
X365Y804D01*
X602Y804D02*
X609Y804D01*
X0Y803D02*
X7Y803D01*
X156Y803D02*
X165Y803D01*
X256Y803D02*
X265Y803D01*
X356Y803D02*
X365Y803D01*
X602Y803D02*
X609Y803D01*
X0Y802D02*
X7Y802D01*
X156Y802D02*
X165Y802D01*
X256Y802D02*
X265Y802D01*
X356Y802D02*
X365Y802D01*
X602Y802D02*
X609Y802D01*
X0Y801D02*
X7Y801D01*
X156Y801D02*
X165Y801D01*
X256Y801D02*
X265Y801D01*
X356Y801D02*
X365Y801D01*
X602Y801D02*
X609Y801D01*
X0Y800D02*
X7Y800D01*
X156Y800D02*
X165Y800D01*
X256Y800D02*
X265Y800D01*
X356Y800D02*
X365Y800D01*
X602Y800D02*
X609Y800D01*
X0Y799D02*
X7Y799D01*
X156Y799D02*
X165Y799D01*
X256Y799D02*
X265Y799D01*
X356Y799D02*
X365Y799D01*
X602Y799D02*
X609Y799D01*
X0Y798D02*
X7Y798D01*
X156Y798D02*
X165Y798D01*
X256Y798D02*
X265Y798D01*
X356Y798D02*
X365Y798D01*
X602Y798D02*
X609Y798D01*
X0Y797D02*
X7Y797D01*
X156Y797D02*
X165Y797D01*
X256Y797D02*
X265Y797D01*
X356Y797D02*
X365Y797D01*
X602Y797D02*
X609Y797D01*
X0Y796D02*
X7Y796D01*
X156Y796D02*
X165Y796D01*
X256Y796D02*
X265Y796D01*
X356Y796D02*
X365Y796D01*
X602Y796D02*
X609Y796D01*
X0Y795D02*
X7Y795D01*
X156Y795D02*
X165Y795D01*
X256Y795D02*
X265Y795D01*
X356Y795D02*
X365Y795D01*
X602Y795D02*
X609Y795D01*
X0Y794D02*
X7Y794D01*
X156Y794D02*
X165Y794D01*
X256Y794D02*
X265Y794D01*
X356Y794D02*
X365Y794D01*
X602Y794D02*
X609Y794D01*
X0Y793D02*
X7Y793D01*
X156Y793D02*
X165Y793D01*
X256Y793D02*
X265Y793D01*
X356Y793D02*
X365Y793D01*
X602Y793D02*
X609Y793D01*
X0Y792D02*
X7Y792D01*
X156Y792D02*
X165Y792D01*
X256Y792D02*
X265Y792D01*
X356Y792D02*
X365Y792D01*
X602Y792D02*
X609Y792D01*
X0Y791D02*
X7Y791D01*
X156Y791D02*
X165Y791D01*
X256Y791D02*
X265Y791D01*
X356Y791D02*
X365Y791D01*
X602Y791D02*
X609Y791D01*
X0Y790D02*
X7Y790D01*
X156Y790D02*
X165Y790D01*
X256Y790D02*
X265Y790D01*
X356Y790D02*
X365Y790D01*
X602Y790D02*
X609Y790D01*
X0Y789D02*
X7Y789D01*
X156Y789D02*
X165Y789D01*
X256Y789D02*
X265Y789D01*
X356Y789D02*
X365Y789D01*
X602Y789D02*
X609Y789D01*
X0Y788D02*
X7Y788D01*
X156Y788D02*
X165Y788D01*
X256Y788D02*
X265Y788D01*
X356Y788D02*
X365Y788D01*
X602Y788D02*
X609Y788D01*
X0Y787D02*
X7Y787D01*
X156Y787D02*
X165Y787D01*
X256Y787D02*
X265Y787D01*
X356Y787D02*
X365Y787D01*
X602Y787D02*
X609Y787D01*
X0Y786D02*
X7Y786D01*
X156Y786D02*
X165Y786D01*
X256Y786D02*
X265Y786D01*
X356Y786D02*
X365Y786D01*
X602Y786D02*
X609Y786D01*
X0Y785D02*
X7Y785D01*
X156Y785D02*
X165Y785D01*
X256Y785D02*
X265Y785D01*
X356Y785D02*
X365Y785D01*
X602Y785D02*
X609Y785D01*
X0Y784D02*
X7Y784D01*
X156Y784D02*
X165Y784D01*
X256Y784D02*
X265Y784D01*
X356Y784D02*
X365Y784D01*
X602Y784D02*
X609Y784D01*
X0Y783D02*
X7Y783D01*
X156Y783D02*
X165Y783D01*
X256Y783D02*
X265Y783D01*
X356Y783D02*
X365Y783D01*
X602Y783D02*
X609Y783D01*
X0Y782D02*
X7Y782D01*
X156Y782D02*
X165Y782D01*
X256Y782D02*
X265Y782D01*
X356Y782D02*
X365Y782D01*
X602Y782D02*
X609Y782D01*
X0Y781D02*
X7Y781D01*
X156Y781D02*
X165Y781D01*
X256Y781D02*
X265Y781D01*
X356Y781D02*
X365Y781D01*
X602Y781D02*
X609Y781D01*
X0Y780D02*
X7Y780D01*
X156Y780D02*
X165Y780D01*
X256Y780D02*
X265Y780D01*
X356Y780D02*
X365Y780D01*
X602Y780D02*
X609Y780D01*
X0Y779D02*
X7Y779D01*
X156Y779D02*
X165Y779D01*
X256Y779D02*
X265Y779D01*
X356Y779D02*
X365Y779D01*
X602Y779D02*
X609Y779D01*
X0Y778D02*
X7Y778D01*
X156Y778D02*
X165Y778D01*
X256Y778D02*
X265Y778D01*
X356Y778D02*
X365Y778D01*
X602Y778D02*
X609Y778D01*
X0Y777D02*
X7Y777D01*
X156Y777D02*
X165Y777D01*
X256Y777D02*
X265Y777D01*
X356Y777D02*
X365Y777D01*
X602Y777D02*
X609Y777D01*
X0Y776D02*
X7Y776D01*
X156Y776D02*
X165Y776D01*
X256Y776D02*
X265Y776D01*
X356Y776D02*
X365Y776D01*
X602Y776D02*
X609Y776D01*
X0Y775D02*
X7Y775D01*
X156Y775D02*
X165Y775D01*
X256Y775D02*
X265Y775D01*
X356Y775D02*
X365Y775D01*
X602Y775D02*
X609Y775D01*
X0Y774D02*
X7Y774D01*
X156Y774D02*
X165Y774D01*
X256Y774D02*
X265Y774D01*
X356Y774D02*
X365Y774D01*
X602Y774D02*
X609Y774D01*
X0Y773D02*
X7Y773D01*
X156Y773D02*
X165Y773D01*
X256Y773D02*
X265Y773D01*
X356Y773D02*
X365Y773D01*
X602Y773D02*
X609Y773D01*
X0Y772D02*
X7Y772D01*
X156Y772D02*
X165Y772D01*
X256Y772D02*
X265Y772D01*
X356Y772D02*
X365Y772D01*
X602Y772D02*
X609Y772D01*
X0Y771D02*
X7Y771D01*
X156Y771D02*
X165Y771D01*
X256Y771D02*
X265Y771D01*
X356Y771D02*
X365Y771D01*
X602Y771D02*
X609Y771D01*
X0Y770D02*
X7Y770D01*
X156Y770D02*
X165Y770D01*
X256Y770D02*
X265Y770D01*
X356Y770D02*
X365Y770D01*
X602Y770D02*
X609Y770D01*
X0Y769D02*
X7Y769D01*
X156Y769D02*
X165Y769D01*
X256Y769D02*
X265Y769D01*
X356Y769D02*
X365Y769D01*
X602Y769D02*
X609Y769D01*
X0Y768D02*
X7Y768D01*
X156Y768D02*
X165Y768D01*
X256Y768D02*
X265Y768D01*
X356Y768D02*
X365Y768D01*
X602Y768D02*
X609Y768D01*
X0Y767D02*
X7Y767D01*
X602Y767D02*
X609Y767D01*
X0Y766D02*
X7Y766D01*
X602Y766D02*
X609Y766D01*
X0Y765D02*
X7Y765D01*
X602Y765D02*
X609Y765D01*
X0Y764D02*
X7Y764D01*
X602Y764D02*
X609Y764D01*
X0Y763D02*
X7Y763D01*
X602Y763D02*
X609Y763D01*
X0Y762D02*
X7Y762D01*
X602Y762D02*
X609Y762D01*
X0Y761D02*
X7Y761D01*
X602Y761D02*
X609Y761D01*
X0Y760D02*
X7Y760D01*
X602Y760D02*
X609Y760D01*
X0Y759D02*
X7Y759D01*
X602Y759D02*
X609Y759D01*
X0Y758D02*
X7Y758D01*
X602Y758D02*
X609Y758D01*
X0Y757D02*
X7Y757D01*
X602Y757D02*
X609Y757D01*
X0Y756D02*
X7Y756D01*
X602Y756D02*
X609Y756D01*
X0Y755D02*
X7Y755D01*
X602Y755D02*
X609Y755D01*
X0Y754D02*
X7Y754D01*
X602Y754D02*
X609Y754D01*
X0Y753D02*
X7Y753D01*
X602Y753D02*
X609Y753D01*
X0Y752D02*
X7Y752D01*
X602Y752D02*
X609Y752D01*
X0Y751D02*
X7Y751D01*
X602Y751D02*
X609Y751D01*
X0Y750D02*
X7Y750D01*
X602Y750D02*
X609Y750D01*
X0Y749D02*
X7Y749D01*
X602Y749D02*
X609Y749D01*
X0Y748D02*
X7Y748D01*
X602Y748D02*
X609Y748D01*
X0Y747D02*
X7Y747D01*
X602Y747D02*
X609Y747D01*
X0Y746D02*
X7Y746D01*
X602Y746D02*
X609Y746D01*
X0Y745D02*
X7Y745D01*
X602Y745D02*
X609Y745D01*
X0Y744D02*
X7Y744D01*
X602Y744D02*
X609Y744D01*
X0Y743D02*
X7Y743D01*
X602Y743D02*
X609Y743D01*
X0Y742D02*
X7Y742D01*
X602Y742D02*
X609Y742D01*
X0Y741D02*
X7Y741D01*
X602Y741D02*
X609Y741D01*
X0Y740D02*
X7Y740D01*
X602Y740D02*
X609Y740D01*
X0Y739D02*
X7Y739D01*
X602Y739D02*
X609Y739D01*
X0Y738D02*
X7Y738D01*
X602Y738D02*
X609Y738D01*
X0Y737D02*
X7Y737D01*
X602Y737D02*
X609Y737D01*
X0Y736D02*
X7Y736D01*
X602Y736D02*
X609Y736D01*
X0Y735D02*
X7Y735D01*
X602Y735D02*
X609Y735D01*
X0Y734D02*
X7Y734D01*
X602Y734D02*
X609Y734D01*
X0Y733D02*
X7Y733D01*
X602Y733D02*
X609Y733D01*
X0Y732D02*
X7Y732D01*
X602Y732D02*
X609Y732D01*
X0Y731D02*
X7Y731D01*
X602Y731D02*
X609Y731D01*
X0Y730D02*
X7Y730D01*
X602Y730D02*
X609Y730D01*
X0Y729D02*
X7Y729D01*
X602Y729D02*
X609Y729D01*
X0Y728D02*
X7Y728D01*
X602Y728D02*
X609Y728D01*
X0Y727D02*
X7Y727D01*
X602Y727D02*
X609Y727D01*
X0Y726D02*
X7Y726D01*
X602Y726D02*
X609Y726D01*
X0Y725D02*
X7Y725D01*
X602Y725D02*
X609Y725D01*
X0Y724D02*
X7Y724D01*
X602Y724D02*
X609Y724D01*
X0Y723D02*
X7Y723D01*
X602Y723D02*
X609Y723D01*
X0Y722D02*
X7Y722D01*
X602Y722D02*
X609Y722D01*
X0Y721D02*
X7Y721D01*
X602Y721D02*
X609Y721D01*
X0Y720D02*
X7Y720D01*
X602Y720D02*
X609Y720D01*
X0Y719D02*
X7Y719D01*
X602Y719D02*
X609Y719D01*
X0Y718D02*
X7Y718D01*
X602Y718D02*
X609Y718D01*
X0Y717D02*
X7Y717D01*
X602Y717D02*
X609Y717D01*
X0Y716D02*
X7Y716D01*
X602Y716D02*
X609Y716D01*
X0Y715D02*
X7Y715D01*
X602Y715D02*
X609Y715D01*
X0Y714D02*
X7Y714D01*
X602Y714D02*
X609Y714D01*
X0Y713D02*
X7Y713D01*
X602Y713D02*
X609Y713D01*
X0Y712D02*
X7Y712D01*
X602Y712D02*
X609Y712D01*
X0Y711D02*
X7Y711D01*
X167Y711D02*
X186Y711D01*
X347Y711D02*
X363Y711D01*
X374Y711D02*
X390Y711D01*
X602Y711D02*
X609Y711D01*
X0Y710D02*
X7Y710D01*
X166Y710D02*
X187Y710D01*
X345Y710D02*
X366Y710D01*
X371Y710D02*
X392Y710D01*
X602Y710D02*
X609Y710D01*
X0Y709D02*
X7Y709D01*
X165Y709D02*
X188Y709D01*
X344Y709D02*
X367Y709D01*
X370Y709D02*
X393Y709D01*
X602Y709D02*
X609Y709D01*
X0Y708D02*
X7Y708D01*
X165Y708D02*
X188Y708D01*
X343Y708D02*
X394Y708D01*
X602Y708D02*
X609Y708D01*
X0Y707D02*
X7Y707D01*
X165Y707D02*
X188Y707D01*
X343Y707D02*
X395Y707D01*
X602Y707D02*
X609Y707D01*
X0Y706D02*
X7Y706D01*
X165Y706D02*
X188Y706D01*
X342Y706D02*
X395Y706D01*
X602Y706D02*
X609Y706D01*
X0Y705D02*
X7Y705D01*
X166Y705D02*
X188Y705D01*
X342Y705D02*
X395Y705D01*
X602Y705D02*
X609Y705D01*
X0Y704D02*
X7Y704D01*
X182Y704D02*
X188Y704D01*
X242Y704D02*
X261Y704D01*
X286Y704D02*
X288Y704D01*
X342Y704D02*
X348Y704D01*
X363Y704D02*
X374Y704D01*
X389Y704D02*
X395Y704D01*
X602Y704D02*
X609Y704D01*
X0Y703D02*
X7Y703D01*
X182Y703D02*
X188Y703D01*
X240Y703D02*
X263Y703D01*
X285Y703D02*
X289Y703D01*
X342Y703D02*
X348Y703D01*
X365Y703D02*
X373Y703D01*
X389Y703D02*
X395Y703D01*
X602Y703D02*
X609Y703D01*
X0Y702D02*
X7Y702D01*
X182Y702D02*
X188Y702D01*
X239Y702D02*
X264Y702D01*
X284Y702D02*
X290Y702D01*
X342Y702D02*
X348Y702D01*
X365Y702D02*
X372Y702D01*
X389Y702D02*
X395Y702D01*
X602Y702D02*
X609Y702D01*
X0Y701D02*
X7Y701D01*
X182Y701D02*
X188Y701D01*
X238Y701D02*
X265Y701D01*
X284Y701D02*
X290Y701D01*
X342Y701D02*
X348Y701D01*
X365Y701D02*
X372Y701D01*
X389Y701D02*
X395Y701D01*
X602Y701D02*
X609Y701D01*
X0Y700D02*
X7Y700D01*
X182Y700D02*
X188Y700D01*
X237Y700D02*
X266Y700D01*
X284Y700D02*
X290Y700D01*
X342Y700D02*
X348Y700D01*
X366Y700D02*
X372Y700D01*
X389Y700D02*
X395Y700D01*
X602Y700D02*
X609Y700D01*
X0Y699D02*
X7Y699D01*
X182Y699D02*
X188Y699D01*
X237Y699D02*
X266Y699D01*
X284Y699D02*
X290Y699D01*
X342Y699D02*
X348Y699D01*
X366Y699D02*
X372Y699D01*
X389Y699D02*
X395Y699D01*
X602Y699D02*
X609Y699D01*
X0Y698D02*
X7Y698D01*
X182Y698D02*
X188Y698D01*
X237Y698D02*
X266Y698D01*
X284Y698D02*
X290Y698D01*
X342Y698D02*
X348Y698D01*
X366Y698D02*
X372Y698D01*
X389Y698D02*
X395Y698D01*
X602Y698D02*
X609Y698D01*
X0Y697D02*
X7Y697D01*
X135Y697D02*
X188Y697D01*
X237Y697D02*
X243Y697D01*
X260Y697D02*
X266Y697D01*
X284Y697D02*
X290Y697D01*
X342Y697D02*
X348Y697D01*
X366Y697D02*
X372Y697D01*
X389Y697D02*
X395Y697D01*
X602Y697D02*
X609Y697D01*
X0Y696D02*
X7Y696D01*
X135Y696D02*
X188Y696D01*
X237Y696D02*
X243Y696D01*
X260Y696D02*
X266Y696D01*
X284Y696D02*
X290Y696D01*
X342Y696D02*
X348Y696D01*
X366Y696D02*
X372Y696D01*
X389Y696D02*
X395Y696D01*
X602Y696D02*
X609Y696D01*
X0Y695D02*
X7Y695D01*
X135Y695D02*
X188Y695D01*
X237Y695D02*
X243Y695D01*
X260Y695D02*
X266Y695D01*
X284Y695D02*
X290Y695D01*
X342Y695D02*
X348Y695D01*
X366Y695D02*
X372Y695D01*
X389Y695D02*
X395Y695D01*
X602Y695D02*
X609Y695D01*
X0Y694D02*
X7Y694D01*
X135Y694D02*
X188Y694D01*
X237Y694D02*
X243Y694D01*
X260Y694D02*
X266Y694D01*
X284Y694D02*
X290Y694D01*
X342Y694D02*
X348Y694D01*
X366Y694D02*
X372Y694D01*
X389Y694D02*
X395Y694D01*
X602Y694D02*
X609Y694D01*
X0Y693D02*
X7Y693D01*
X135Y693D02*
X188Y693D01*
X237Y693D02*
X243Y693D01*
X260Y693D02*
X266Y693D01*
X284Y693D02*
X290Y693D01*
X342Y693D02*
X348Y693D01*
X366Y693D02*
X372Y693D01*
X389Y693D02*
X395Y693D01*
X602Y693D02*
X609Y693D01*
X0Y692D02*
X7Y692D01*
X135Y692D02*
X188Y692D01*
X237Y692D02*
X243Y692D01*
X260Y692D02*
X266Y692D01*
X284Y692D02*
X290Y692D01*
X342Y692D02*
X348Y692D01*
X366Y692D02*
X372Y692D01*
X389Y692D02*
X395Y692D01*
X602Y692D02*
X609Y692D01*
X0Y691D02*
X7Y691D01*
X135Y691D02*
X188Y691D01*
X237Y691D02*
X243Y691D01*
X260Y691D02*
X266Y691D01*
X284Y691D02*
X290Y691D01*
X342Y691D02*
X348Y691D01*
X366Y691D02*
X372Y691D01*
X389Y691D02*
X395Y691D01*
X602Y691D02*
X609Y691D01*
X0Y690D02*
X7Y690D01*
X135Y690D02*
X141Y690D01*
X182Y690D02*
X188Y690D01*
X237Y690D02*
X243Y690D01*
X260Y690D02*
X266Y690D01*
X284Y690D02*
X290Y690D01*
X342Y690D02*
X348Y690D01*
X366Y690D02*
X372Y690D01*
X389Y690D02*
X395Y690D01*
X602Y690D02*
X609Y690D01*
X0Y689D02*
X7Y689D01*
X135Y689D02*
X141Y689D01*
X182Y689D02*
X188Y689D01*
X237Y689D02*
X243Y689D01*
X260Y689D02*
X266Y689D01*
X284Y689D02*
X290Y689D01*
X342Y689D02*
X348Y689D01*
X366Y689D02*
X372Y689D01*
X389Y689D02*
X395Y689D01*
X602Y689D02*
X609Y689D01*
X0Y688D02*
X7Y688D01*
X135Y688D02*
X141Y688D01*
X182Y688D02*
X188Y688D01*
X237Y688D02*
X243Y688D01*
X260Y688D02*
X266Y688D01*
X284Y688D02*
X290Y688D01*
X342Y688D02*
X348Y688D01*
X366Y688D02*
X372Y688D01*
X389Y688D02*
X395Y688D01*
X602Y688D02*
X609Y688D01*
X0Y687D02*
X7Y687D01*
X135Y687D02*
X141Y687D01*
X182Y687D02*
X188Y687D01*
X237Y687D02*
X243Y687D01*
X260Y687D02*
X266Y687D01*
X284Y687D02*
X290Y687D01*
X342Y687D02*
X348Y687D01*
X366Y687D02*
X372Y687D01*
X389Y687D02*
X395Y687D01*
X602Y687D02*
X609Y687D01*
X0Y686D02*
X7Y686D01*
X135Y686D02*
X141Y686D01*
X182Y686D02*
X188Y686D01*
X237Y686D02*
X243Y686D01*
X260Y686D02*
X266Y686D01*
X284Y686D02*
X290Y686D01*
X342Y686D02*
X348Y686D01*
X366Y686D02*
X371Y686D01*
X389Y686D02*
X395Y686D01*
X602Y686D02*
X609Y686D01*
X0Y685D02*
X7Y685D01*
X135Y685D02*
X141Y685D01*
X182Y685D02*
X188Y685D01*
X237Y685D02*
X243Y685D01*
X260Y685D02*
X266Y685D01*
X284Y685D02*
X290Y685D01*
X342Y685D02*
X348Y685D01*
X366Y685D02*
X371Y685D01*
X389Y685D02*
X395Y685D01*
X602Y685D02*
X609Y685D01*
X0Y684D02*
X7Y684D01*
X135Y684D02*
X141Y684D01*
X182Y684D02*
X188Y684D01*
X237Y684D02*
X243Y684D01*
X260Y684D02*
X266Y684D01*
X284Y684D02*
X290Y684D01*
X342Y684D02*
X348Y684D01*
X367Y684D02*
X370Y684D01*
X389Y684D02*
X395Y684D01*
X602Y684D02*
X609Y684D01*
X0Y683D02*
X7Y683D01*
X135Y683D02*
X141Y683D01*
X182Y683D02*
X188Y683D01*
X237Y683D02*
X243Y683D01*
X260Y683D02*
X266Y683D01*
X284Y683D02*
X290Y683D01*
X342Y683D02*
X348Y683D01*
X389Y683D02*
X395Y683D01*
X602Y683D02*
X609Y683D01*
X0Y682D02*
X7Y682D01*
X135Y682D02*
X141Y682D01*
X182Y682D02*
X188Y682D01*
X237Y682D02*
X243Y682D01*
X260Y682D02*
X266Y682D01*
X284Y682D02*
X290Y682D01*
X342Y682D02*
X348Y682D01*
X389Y682D02*
X395Y682D01*
X602Y682D02*
X609Y682D01*
X0Y681D02*
X7Y681D01*
X135Y681D02*
X141Y681D01*
X182Y681D02*
X188Y681D01*
X237Y681D02*
X243Y681D01*
X260Y681D02*
X266Y681D01*
X284Y681D02*
X290Y681D01*
X342Y681D02*
X348Y681D01*
X389Y681D02*
X395Y681D01*
X602Y681D02*
X609Y681D01*
X0Y680D02*
X7Y680D01*
X135Y680D02*
X141Y680D01*
X182Y680D02*
X188Y680D01*
X237Y680D02*
X243Y680D01*
X260Y680D02*
X266Y680D01*
X284Y680D02*
X290Y680D01*
X342Y680D02*
X348Y680D01*
X389Y680D02*
X395Y680D01*
X602Y680D02*
X609Y680D01*
X0Y679D02*
X7Y679D01*
X136Y679D02*
X141Y679D01*
X183Y679D02*
X188Y679D01*
X237Y679D02*
X243Y679D01*
X260Y679D02*
X266Y679D01*
X284Y679D02*
X290Y679D01*
X342Y679D02*
X348Y679D01*
X389Y679D02*
X395Y679D01*
X602Y679D02*
X609Y679D01*
X0Y678D02*
X7Y678D01*
X136Y678D02*
X140Y678D01*
X183Y678D02*
X188Y678D01*
X237Y678D02*
X243Y678D01*
X260Y678D02*
X266Y678D01*
X284Y678D02*
X290Y678D01*
X343Y678D02*
X347Y678D01*
X390Y678D02*
X394Y678D01*
X602Y678D02*
X609Y678D01*
X0Y677D02*
X7Y677D01*
X137Y677D02*
X139Y677D01*
X185Y677D02*
X186Y677D01*
X237Y677D02*
X243Y677D01*
X260Y677D02*
X266Y677D01*
X284Y677D02*
X290Y677D01*
X344Y677D02*
X346Y677D01*
X391Y677D02*
X393Y677D01*
X602Y677D02*
X609Y677D01*
X0Y676D02*
X7Y676D01*
X237Y676D02*
X243Y676D01*
X260Y676D02*
X290Y676D01*
X602Y676D02*
X609Y676D01*
X0Y675D02*
X7Y675D01*
X237Y675D02*
X243Y675D01*
X260Y675D02*
X290Y675D01*
X602Y675D02*
X609Y675D01*
X0Y674D02*
X7Y674D01*
X237Y674D02*
X243Y674D01*
X261Y674D02*
X290Y674D01*
X602Y674D02*
X609Y674D01*
X0Y673D02*
X7Y673D01*
X237Y673D02*
X243Y673D01*
X261Y673D02*
X290Y673D01*
X602Y673D02*
X609Y673D01*
X0Y672D02*
X7Y672D01*
X237Y672D02*
X242Y672D01*
X262Y672D02*
X290Y672D01*
X602Y672D02*
X609Y672D01*
X0Y671D02*
X7Y671D01*
X238Y671D02*
X242Y671D01*
X263Y671D02*
X290Y671D01*
X602Y671D02*
X609Y671D01*
X0Y670D02*
X7Y670D01*
X239Y670D02*
X240Y670D01*
X265Y670D02*
X290Y670D01*
X602Y670D02*
X609Y670D01*
X0Y669D02*
X7Y669D01*
X602Y669D02*
X609Y669D01*
X0Y668D02*
X7Y668D01*
X602Y668D02*
X609Y668D01*
X0Y667D02*
X7Y667D01*
X602Y667D02*
X609Y667D01*
X0Y666D02*
X7Y666D01*
X602Y666D02*
X609Y666D01*
X0Y665D02*
X7Y665D01*
X602Y665D02*
X609Y665D01*
X0Y664D02*
X7Y664D01*
X602Y664D02*
X609Y664D01*
X0Y663D02*
X7Y663D01*
X602Y663D02*
X609Y663D01*
X0Y662D02*
X7Y662D01*
X602Y662D02*
X609Y662D01*
X0Y661D02*
X7Y661D01*
X145Y661D02*
X149Y661D01*
X352Y661D02*
X356Y661D01*
X602Y661D02*
X609Y661D01*
X0Y660D02*
X7Y660D01*
X141Y660D02*
X153Y660D01*
X183Y660D02*
X187Y660D01*
X348Y660D02*
X360Y660D01*
X390Y660D02*
X394Y660D01*
X602Y660D02*
X609Y660D01*
X0Y659D02*
X7Y659D01*
X140Y659D02*
X155Y659D01*
X181Y659D02*
X188Y659D01*
X346Y659D02*
X361Y659D01*
X388Y659D02*
X395Y659D01*
X602Y659D02*
X609Y659D01*
X0Y658D02*
X7Y658D01*
X139Y658D02*
X156Y658D01*
X180Y658D02*
X188Y658D01*
X345Y658D02*
X362Y658D01*
X386Y658D02*
X395Y658D01*
X602Y658D02*
X609Y658D01*
X0Y657D02*
X7Y657D01*
X138Y657D02*
X157Y657D01*
X178Y657D02*
X188Y657D01*
X344Y657D02*
X363Y657D01*
X385Y657D02*
X395Y657D01*
X602Y657D02*
X609Y657D01*
X0Y656D02*
X7Y656D01*
X137Y656D02*
X157Y656D01*
X176Y656D02*
X188Y656D01*
X344Y656D02*
X364Y656D01*
X383Y656D02*
X395Y656D01*
X602Y656D02*
X609Y656D01*
X0Y655D02*
X7Y655D01*
X136Y655D02*
X158Y655D01*
X175Y655D02*
X187Y655D01*
X343Y655D02*
X365Y655D01*
X381Y655D02*
X394Y655D01*
X602Y655D02*
X609Y655D01*
X0Y654D02*
X7Y654D01*
X136Y654D02*
X145Y654D01*
X150Y654D02*
X158Y654D01*
X173Y654D02*
X186Y654D01*
X246Y654D02*
X251Y654D01*
X287Y654D02*
X287Y654D01*
X343Y654D02*
X351Y654D01*
X356Y654D02*
X365Y654D01*
X380Y654D02*
X393Y654D01*
X602Y654D02*
X609Y654D01*
X0Y653D02*
X7Y653D01*
X136Y653D02*
X142Y653D01*
X152Y653D02*
X159Y653D01*
X171Y653D02*
X184Y653D01*
X243Y653D02*
X254Y653D01*
X284Y653D02*
X289Y653D01*
X342Y653D02*
X349Y653D01*
X359Y653D02*
X365Y653D01*
X378Y653D02*
X391Y653D01*
X602Y653D02*
X609Y653D01*
X0Y652D02*
X7Y652D01*
X135Y652D02*
X142Y652D01*
X153Y652D02*
X159Y652D01*
X169Y652D02*
X182Y652D01*
X241Y652D02*
X256Y652D01*
X283Y652D02*
X289Y652D01*
X342Y652D02*
X348Y652D01*
X359Y652D02*
X366Y652D01*
X376Y652D02*
X389Y652D01*
X602Y652D02*
X609Y652D01*
X0Y651D02*
X7Y651D01*
X135Y651D02*
X141Y651D01*
X153Y651D02*
X159Y651D01*
X168Y651D02*
X181Y651D01*
X240Y651D02*
X257Y651D01*
X281Y651D02*
X290Y651D01*
X342Y651D02*
X348Y651D01*
X360Y651D02*
X366Y651D01*
X374Y651D02*
X388Y651D01*
X602Y651D02*
X609Y651D01*
X0Y650D02*
X7Y650D01*
X135Y650D02*
X141Y650D01*
X153Y650D02*
X159Y650D01*
X166Y650D02*
X179Y650D01*
X239Y650D02*
X258Y650D01*
X279Y650D02*
X290Y650D01*
X342Y650D02*
X348Y650D01*
X360Y650D02*
X366Y650D01*
X373Y650D02*
X386Y650D01*
X602Y650D02*
X609Y650D01*
X0Y649D02*
X7Y649D01*
X135Y649D02*
X141Y649D01*
X153Y649D02*
X159Y649D01*
X164Y649D02*
X177Y649D01*
X238Y649D02*
X259Y649D01*
X278Y649D02*
X289Y649D01*
X342Y649D02*
X348Y649D01*
X360Y649D02*
X366Y649D01*
X371Y649D02*
X384Y649D01*
X602Y649D02*
X609Y649D01*
X0Y648D02*
X7Y648D01*
X135Y648D02*
X141Y648D01*
X153Y648D02*
X159Y648D01*
X163Y648D02*
X176Y648D01*
X238Y648D02*
X259Y648D01*
X276Y648D02*
X288Y648D01*
X342Y648D02*
X348Y648D01*
X360Y648D02*
X366Y648D01*
X369Y648D02*
X382Y648D01*
X602Y648D02*
X609Y648D01*
X0Y647D02*
X7Y647D01*
X135Y647D02*
X141Y647D01*
X153Y647D02*
X159Y647D01*
X161Y647D02*
X174Y647D01*
X237Y647D02*
X246Y647D01*
X251Y647D02*
X260Y647D01*
X274Y647D02*
X287Y647D01*
X342Y647D02*
X348Y647D01*
X360Y647D02*
X366Y647D01*
X368Y647D02*
X381Y647D01*
X602Y647D02*
X609Y647D01*
X0Y646D02*
X7Y646D01*
X135Y646D02*
X141Y646D01*
X153Y646D02*
X172Y646D01*
X237Y646D02*
X244Y646D01*
X253Y646D02*
X260Y646D01*
X272Y646D02*
X285Y646D01*
X342Y646D02*
X348Y646D01*
X360Y646D02*
X379Y646D01*
X602Y646D02*
X609Y646D01*
X0Y645D02*
X7Y645D01*
X135Y645D02*
X141Y645D01*
X153Y645D02*
X171Y645D01*
X237Y645D02*
X243Y645D01*
X254Y645D02*
X260Y645D01*
X271Y645D02*
X284Y645D01*
X342Y645D02*
X348Y645D01*
X360Y645D02*
X377Y645D01*
X602Y645D02*
X609Y645D01*
X0Y644D02*
X7Y644D01*
X135Y644D02*
X141Y644D01*
X153Y644D02*
X169Y644D01*
X237Y644D02*
X243Y644D01*
X254Y644D02*
X260Y644D01*
X269Y644D02*
X282Y644D01*
X342Y644D02*
X348Y644D01*
X360Y644D02*
X376Y644D01*
X602Y644D02*
X609Y644D01*
X0Y643D02*
X7Y643D01*
X135Y643D02*
X141Y643D01*
X153Y643D02*
X167Y643D01*
X237Y643D02*
X243Y643D01*
X254Y643D02*
X260Y643D01*
X267Y643D02*
X280Y643D01*
X342Y643D02*
X348Y643D01*
X360Y643D02*
X374Y643D01*
X602Y643D02*
X609Y643D01*
X0Y642D02*
X7Y642D01*
X135Y642D02*
X141Y642D01*
X153Y642D02*
X165Y642D01*
X237Y642D02*
X243Y642D01*
X254Y642D02*
X260Y642D01*
X266Y642D02*
X279Y642D01*
X342Y642D02*
X348Y642D01*
X360Y642D02*
X372Y642D01*
X602Y642D02*
X609Y642D01*
X0Y641D02*
X7Y641D01*
X135Y641D02*
X141Y641D01*
X153Y641D02*
X164Y641D01*
X237Y641D02*
X243Y641D01*
X254Y641D02*
X260Y641D01*
X264Y641D02*
X277Y641D01*
X342Y641D02*
X348Y641D01*
X360Y641D02*
X370Y641D01*
X602Y641D02*
X609Y641D01*
X0Y640D02*
X7Y640D01*
X135Y640D02*
X141Y640D01*
X153Y640D02*
X162Y640D01*
X237Y640D02*
X243Y640D01*
X254Y640D02*
X275Y640D01*
X342Y640D02*
X348Y640D01*
X360Y640D02*
X369Y640D01*
X602Y640D02*
X609Y640D01*
X0Y639D02*
X7Y639D01*
X135Y639D02*
X141Y639D01*
X153Y639D02*
X160Y639D01*
X237Y639D02*
X243Y639D01*
X254Y639D02*
X273Y639D01*
X342Y639D02*
X348Y639D01*
X360Y639D02*
X367Y639D01*
X602Y639D02*
X609Y639D01*
X0Y638D02*
X7Y638D01*
X135Y638D02*
X141Y638D01*
X153Y638D02*
X159Y638D01*
X237Y638D02*
X243Y638D01*
X254Y638D02*
X272Y638D01*
X342Y638D02*
X348Y638D01*
X360Y638D02*
X366Y638D01*
X602Y638D02*
X609Y638D01*
X0Y637D02*
X7Y637D01*
X135Y637D02*
X141Y637D01*
X153Y637D02*
X159Y637D01*
X237Y637D02*
X243Y637D01*
X254Y637D02*
X270Y637D01*
X342Y637D02*
X348Y637D01*
X360Y637D02*
X366Y637D01*
X602Y637D02*
X609Y637D01*
X0Y636D02*
X7Y636D01*
X135Y636D02*
X141Y636D01*
X153Y636D02*
X159Y636D01*
X237Y636D02*
X243Y636D01*
X254Y636D02*
X268Y636D01*
X342Y636D02*
X348Y636D01*
X360Y636D02*
X366Y636D01*
X602Y636D02*
X609Y636D01*
X0Y635D02*
X7Y635D01*
X135Y635D02*
X141Y635D01*
X153Y635D02*
X159Y635D01*
X237Y635D02*
X243Y635D01*
X254Y635D02*
X267Y635D01*
X342Y635D02*
X348Y635D01*
X360Y635D02*
X366Y635D01*
X602Y635D02*
X609Y635D01*
X0Y634D02*
X7Y634D01*
X135Y634D02*
X141Y634D01*
X153Y634D02*
X159Y634D01*
X237Y634D02*
X243Y634D01*
X254Y634D02*
X265Y634D01*
X342Y634D02*
X348Y634D01*
X360Y634D02*
X366Y634D01*
X602Y634D02*
X609Y634D01*
X0Y633D02*
X7Y633D01*
X135Y633D02*
X187Y633D01*
X237Y633D02*
X243Y633D01*
X254Y633D02*
X263Y633D01*
X342Y633D02*
X393Y633D01*
X602Y633D02*
X609Y633D01*
X0Y632D02*
X7Y632D01*
X135Y632D02*
X188Y632D01*
X237Y632D02*
X243Y632D01*
X254Y632D02*
X261Y632D01*
X342Y632D02*
X394Y632D01*
X602Y632D02*
X609Y632D01*
X0Y631D02*
X7Y631D01*
X135Y631D02*
X188Y631D01*
X237Y631D02*
X243Y631D01*
X254Y631D02*
X260Y631D01*
X342Y631D02*
X395Y631D01*
X602Y631D02*
X609Y631D01*
X0Y630D02*
X7Y630D01*
X135Y630D02*
X188Y630D01*
X237Y630D02*
X243Y630D01*
X254Y630D02*
X260Y630D01*
X342Y630D02*
X395Y630D01*
X602Y630D02*
X609Y630D01*
X0Y629D02*
X7Y629D01*
X135Y629D02*
X188Y629D01*
X237Y629D02*
X243Y629D01*
X254Y629D02*
X260Y629D01*
X342Y629D02*
X395Y629D01*
X602Y629D02*
X609Y629D01*
X0Y628D02*
X7Y628D01*
X135Y628D02*
X188Y628D01*
X237Y628D02*
X243Y628D01*
X254Y628D02*
X260Y628D01*
X342Y628D02*
X394Y628D01*
X602Y628D02*
X609Y628D01*
X0Y627D02*
X7Y627D01*
X135Y627D02*
X187Y627D01*
X237Y627D02*
X243Y627D01*
X254Y627D02*
X260Y627D01*
X342Y627D02*
X393Y627D01*
X602Y627D02*
X609Y627D01*
X0Y626D02*
X7Y626D01*
X237Y626D02*
X288Y626D01*
X602Y626D02*
X609Y626D01*
X0Y625D02*
X7Y625D01*
X237Y625D02*
X289Y625D01*
X602Y625D02*
X609Y625D01*
X0Y624D02*
X7Y624D01*
X237Y624D02*
X290Y624D01*
X602Y624D02*
X609Y624D01*
X0Y623D02*
X7Y623D01*
X237Y623D02*
X290Y623D01*
X602Y623D02*
X609Y623D01*
X0Y622D02*
X7Y622D01*
X237Y622D02*
X290Y622D01*
X602Y622D02*
X609Y622D01*
X0Y621D02*
X7Y621D01*
X237Y621D02*
X289Y621D01*
X602Y621D02*
X609Y621D01*
X0Y620D02*
X7Y620D01*
X237Y620D02*
X288Y620D01*
X602Y620D02*
X609Y620D01*
X0Y619D02*
X7Y619D01*
X602Y619D02*
X609Y619D01*
X0Y618D02*
X7Y618D01*
X602Y618D02*
X609Y618D01*
X0Y617D02*
X7Y617D01*
X602Y617D02*
X609Y617D01*
X0Y616D02*
X7Y616D01*
X602Y616D02*
X609Y616D01*
X0Y615D02*
X7Y615D01*
X602Y615D02*
X609Y615D01*
X0Y614D02*
X7Y614D01*
X602Y614D02*
X609Y614D01*
X0Y613D02*
X7Y613D01*
X602Y613D02*
X609Y613D01*
X0Y612D02*
X7Y612D01*
X602Y612D02*
X609Y612D01*
X0Y611D02*
X7Y611D01*
X602Y611D02*
X609Y611D01*
X0Y610D02*
X7Y610D01*
X602Y610D02*
X609Y610D01*
X0Y609D02*
X7Y609D01*
X602Y609D02*
X609Y609D01*
X0Y608D02*
X7Y608D01*
X602Y608D02*
X609Y608D01*
X0Y607D02*
X7Y607D01*
X602Y607D02*
X609Y607D01*
X0Y606D02*
X7Y606D01*
X602Y606D02*
X609Y606D01*
X0Y605D02*
X7Y605D01*
X602Y605D02*
X609Y605D01*
X0Y604D02*
X7Y604D01*
X602Y604D02*
X609Y604D01*
X0Y603D02*
X7Y603D01*
X602Y603D02*
X609Y603D01*
X0Y602D02*
X7Y602D01*
X602Y602D02*
X609Y602D01*
X0Y601D02*
X7Y601D01*
X602Y601D02*
X609Y601D01*
X0Y600D02*
X7Y600D01*
X602Y600D02*
X609Y600D01*
X0Y599D02*
X7Y599D01*
X602Y599D02*
X609Y599D01*
X0Y598D02*
X7Y598D01*
X602Y598D02*
X609Y598D01*
X0Y597D02*
X7Y597D01*
X602Y597D02*
X609Y597D01*
X0Y596D02*
X7Y596D01*
X602Y596D02*
X609Y596D01*
X0Y595D02*
X7Y595D01*
X602Y595D02*
X609Y595D01*
X0Y594D02*
X7Y594D01*
X602Y594D02*
X609Y594D01*
X0Y593D02*
X7Y593D01*
X602Y593D02*
X609Y593D01*
X0Y592D02*
X7Y592D01*
X602Y592D02*
X609Y592D01*
X0Y591D02*
X7Y591D01*
X602Y591D02*
X609Y591D01*
X0Y590D02*
X7Y590D01*
X602Y590D02*
X609Y590D01*
X0Y589D02*
X7Y589D01*
X602Y589D02*
X609Y589D01*
X0Y588D02*
X7Y588D01*
X602Y588D02*
X609Y588D01*
X0Y587D02*
X7Y587D01*
X602Y587D02*
X609Y587D01*
X0Y586D02*
X7Y586D01*
X602Y586D02*
X609Y586D01*
X0Y585D02*
X7Y585D01*
X602Y585D02*
X609Y585D01*
X0Y584D02*
X7Y584D01*
X602Y584D02*
X609Y584D01*
X0Y583D02*
X7Y583D01*
X602Y583D02*
X609Y583D01*
X0Y582D02*
X7Y582D01*
X602Y582D02*
X609Y582D01*
X0Y581D02*
X7Y581D01*
X602Y581D02*
X609Y581D01*
X0Y580D02*
X7Y580D01*
X602Y580D02*
X609Y580D01*
X0Y579D02*
X7Y579D01*
X602Y579D02*
X609Y579D01*
X0Y578D02*
X7Y578D01*
X602Y578D02*
X609Y578D01*
X0Y577D02*
X7Y577D01*
X602Y577D02*
X609Y577D01*
X0Y576D02*
X7Y576D01*
X602Y576D02*
X609Y576D01*
X0Y575D02*
X7Y575D01*
X602Y575D02*
X609Y575D01*
X0Y574D02*
X7Y574D01*
X602Y574D02*
X609Y574D01*
X0Y573D02*
X7Y573D01*
X602Y573D02*
X609Y573D01*
X0Y572D02*
X7Y572D01*
X602Y572D02*
X609Y572D01*
X0Y571D02*
X7Y571D01*
X602Y571D02*
X609Y571D01*
X0Y570D02*
X7Y570D01*
X602Y570D02*
X609Y570D01*
X0Y569D02*
X7Y569D01*
X602Y569D02*
X609Y569D01*
X0Y568D02*
X7Y568D01*
X602Y568D02*
X609Y568D01*
X0Y567D02*
X7Y567D01*
X156Y567D02*
X165Y567D01*
X256Y567D02*
X265Y567D01*
X356Y567D02*
X365Y567D01*
X602Y567D02*
X609Y567D01*
X0Y566D02*
X7Y566D01*
X156Y566D02*
X165Y566D01*
X256Y566D02*
X265Y566D01*
X356Y566D02*
X365Y566D01*
X602Y566D02*
X609Y566D01*
X0Y565D02*
X7Y565D01*
X156Y565D02*
X165Y565D01*
X256Y565D02*
X265Y565D01*
X356Y565D02*
X365Y565D01*
X602Y565D02*
X609Y565D01*
X0Y564D02*
X7Y564D01*
X156Y564D02*
X165Y564D01*
X256Y564D02*
X265Y564D01*
X356Y564D02*
X365Y564D01*
X602Y564D02*
X609Y564D01*
X0Y563D02*
X7Y563D01*
X156Y563D02*
X165Y563D01*
X256Y563D02*
X265Y563D01*
X356Y563D02*
X365Y563D01*
X602Y563D02*
X609Y563D01*
X0Y562D02*
X7Y562D01*
X156Y562D02*
X165Y562D01*
X256Y562D02*
X265Y562D01*
X356Y562D02*
X365Y562D01*
X602Y562D02*
X609Y562D01*
X0Y561D02*
X7Y561D01*
X156Y561D02*
X165Y561D01*
X256Y561D02*
X265Y561D01*
X356Y561D02*
X365Y561D01*
X602Y561D02*
X609Y561D01*
X0Y560D02*
X7Y560D01*
X156Y560D02*
X165Y560D01*
X256Y560D02*
X265Y560D01*
X356Y560D02*
X365Y560D01*
X602Y560D02*
X609Y560D01*
X0Y559D02*
X7Y559D01*
X156Y559D02*
X165Y559D01*
X256Y559D02*
X265Y559D01*
X356Y559D02*
X365Y559D01*
X602Y559D02*
X609Y559D01*
X0Y558D02*
X7Y558D01*
X156Y558D02*
X165Y558D01*
X256Y558D02*
X265Y558D01*
X356Y558D02*
X365Y558D01*
X602Y558D02*
X609Y558D01*
X0Y557D02*
X7Y557D01*
X156Y557D02*
X165Y557D01*
X256Y557D02*
X265Y557D01*
X356Y557D02*
X365Y557D01*
X602Y557D02*
X609Y557D01*
X0Y556D02*
X7Y556D01*
X156Y556D02*
X165Y556D01*
X256Y556D02*
X265Y556D01*
X356Y556D02*
X365Y556D01*
X602Y556D02*
X609Y556D01*
X0Y555D02*
X7Y555D01*
X156Y555D02*
X165Y555D01*
X256Y555D02*
X265Y555D01*
X356Y555D02*
X365Y555D01*
X602Y555D02*
X609Y555D01*
X0Y554D02*
X7Y554D01*
X156Y554D02*
X165Y554D01*
X256Y554D02*
X265Y554D01*
X356Y554D02*
X365Y554D01*
X602Y554D02*
X609Y554D01*
X0Y553D02*
X7Y553D01*
X156Y553D02*
X165Y553D01*
X256Y553D02*
X265Y553D01*
X356Y553D02*
X365Y553D01*
X602Y553D02*
X609Y553D01*
X0Y552D02*
X7Y552D01*
X156Y552D02*
X165Y552D01*
X256Y552D02*
X265Y552D01*
X356Y552D02*
X365Y552D01*
X602Y552D02*
X609Y552D01*
X0Y551D02*
X7Y551D01*
X156Y551D02*
X165Y551D01*
X256Y551D02*
X265Y551D01*
X356Y551D02*
X365Y551D01*
X602Y551D02*
X609Y551D01*
X0Y550D02*
X7Y550D01*
X156Y550D02*
X165Y550D01*
X256Y550D02*
X265Y550D01*
X356Y550D02*
X365Y550D01*
X602Y550D02*
X609Y550D01*
X0Y549D02*
X7Y549D01*
X156Y549D02*
X165Y549D01*
X256Y549D02*
X265Y549D01*
X356Y549D02*
X365Y549D01*
X602Y549D02*
X609Y549D01*
X0Y548D02*
X7Y548D01*
X156Y548D02*
X165Y548D01*
X256Y548D02*
X265Y548D01*
X356Y548D02*
X365Y548D01*
X602Y548D02*
X609Y548D01*
X0Y547D02*
X7Y547D01*
X156Y547D02*
X165Y547D01*
X256Y547D02*
X265Y547D01*
X356Y547D02*
X365Y547D01*
X602Y547D02*
X609Y547D01*
X0Y546D02*
X7Y546D01*
X156Y546D02*
X165Y546D01*
X256Y546D02*
X265Y546D01*
X356Y546D02*
X365Y546D01*
X602Y546D02*
X609Y546D01*
X0Y545D02*
X7Y545D01*
X156Y545D02*
X165Y545D01*
X256Y545D02*
X265Y545D01*
X356Y545D02*
X365Y545D01*
X602Y545D02*
X609Y545D01*
X0Y544D02*
X7Y544D01*
X156Y544D02*
X165Y544D01*
X256Y544D02*
X265Y544D01*
X356Y544D02*
X365Y544D01*
X602Y544D02*
X609Y544D01*
X0Y543D02*
X7Y543D01*
X156Y543D02*
X165Y543D01*
X256Y543D02*
X265Y543D01*
X356Y543D02*
X365Y543D01*
X602Y543D02*
X609Y543D01*
X0Y542D02*
X7Y542D01*
X156Y542D02*
X165Y542D01*
X256Y542D02*
X265Y542D01*
X356Y542D02*
X365Y542D01*
X602Y542D02*
X609Y542D01*
X0Y541D02*
X7Y541D01*
X156Y541D02*
X165Y541D01*
X256Y541D02*
X265Y541D01*
X356Y541D02*
X365Y541D01*
X602Y541D02*
X609Y541D01*
X0Y540D02*
X7Y540D01*
X156Y540D02*
X165Y540D01*
X256Y540D02*
X265Y540D01*
X356Y540D02*
X365Y540D01*
X602Y540D02*
X609Y540D01*
X0Y539D02*
X7Y539D01*
X156Y539D02*
X165Y539D01*
X256Y539D02*
X265Y539D01*
X356Y539D02*
X365Y539D01*
X602Y539D02*
X609Y539D01*
X0Y538D02*
X7Y538D01*
X156Y538D02*
X165Y538D01*
X256Y538D02*
X265Y538D01*
X356Y538D02*
X365Y538D01*
X602Y538D02*
X609Y538D01*
X0Y537D02*
X7Y537D01*
X156Y537D02*
X165Y537D01*
X256Y537D02*
X265Y537D01*
X356Y537D02*
X365Y537D01*
X602Y537D02*
X609Y537D01*
X0Y536D02*
X7Y536D01*
X156Y536D02*
X165Y536D01*
X256Y536D02*
X265Y536D01*
X356Y536D02*
X365Y536D01*
X602Y536D02*
X609Y536D01*
X0Y535D02*
X7Y535D01*
X156Y535D02*
X165Y535D01*
X256Y535D02*
X265Y535D01*
X356Y535D02*
X365Y535D01*
X602Y535D02*
X609Y535D01*
X0Y534D02*
X7Y534D01*
X156Y534D02*
X165Y534D01*
X256Y534D02*
X265Y534D01*
X356Y534D02*
X365Y534D01*
X602Y534D02*
X609Y534D01*
X0Y533D02*
X7Y533D01*
X156Y533D02*
X165Y533D01*
X256Y533D02*
X265Y533D01*
X356Y533D02*
X365Y533D01*
X602Y533D02*
X609Y533D01*
X0Y532D02*
X7Y532D01*
X156Y532D02*
X165Y532D01*
X256Y532D02*
X265Y532D01*
X356Y532D02*
X365Y532D01*
X602Y532D02*
X609Y532D01*
X0Y531D02*
X7Y531D01*
X156Y531D02*
X165Y531D01*
X256Y531D02*
X265Y531D01*
X356Y531D02*
X365Y531D01*
X602Y531D02*
X609Y531D01*
X0Y530D02*
X7Y530D01*
X156Y530D02*
X165Y530D01*
X256Y530D02*
X265Y530D01*
X356Y530D02*
X365Y530D01*
X602Y530D02*
X609Y530D01*
X0Y529D02*
X7Y529D01*
X156Y529D02*
X165Y529D01*
X256Y529D02*
X265Y529D01*
X356Y529D02*
X365Y529D01*
X602Y529D02*
X609Y529D01*
X0Y528D02*
X7Y528D01*
X156Y528D02*
X165Y528D01*
X256Y528D02*
X265Y528D01*
X356Y528D02*
X365Y528D01*
X602Y528D02*
X609Y528D01*
X0Y527D02*
X7Y527D01*
X156Y527D02*
X165Y527D01*
X256Y527D02*
X265Y527D01*
X356Y527D02*
X365Y527D01*
X602Y527D02*
X609Y527D01*
X0Y526D02*
X7Y526D01*
X156Y526D02*
X165Y526D01*
X256Y526D02*
X265Y526D01*
X356Y526D02*
X365Y526D01*
X602Y526D02*
X609Y526D01*
X0Y525D02*
X7Y525D01*
X156Y525D02*
X165Y525D01*
X256Y525D02*
X265Y525D01*
X356Y525D02*
X365Y525D01*
X602Y525D02*
X609Y525D01*
X0Y524D02*
X7Y524D01*
X156Y524D02*
X165Y524D01*
X256Y524D02*
X265Y524D01*
X356Y524D02*
X365Y524D01*
X602Y524D02*
X609Y524D01*
X0Y523D02*
X7Y523D01*
X156Y523D02*
X165Y523D01*
X256Y523D02*
X265Y523D01*
X356Y523D02*
X365Y523D01*
X602Y523D02*
X609Y523D01*
X0Y522D02*
X7Y522D01*
X156Y522D02*
X165Y522D01*
X256Y522D02*
X265Y522D01*
X356Y522D02*
X365Y522D01*
X602Y522D02*
X609Y522D01*
X0Y521D02*
X7Y521D01*
X156Y521D02*
X165Y521D01*
X256Y521D02*
X265Y521D01*
X356Y521D02*
X365Y521D01*
X602Y521D02*
X609Y521D01*
X0Y520D02*
X7Y520D01*
X156Y520D02*
X165Y520D01*
X256Y520D02*
X265Y520D01*
X356Y520D02*
X365Y520D01*
X602Y520D02*
X609Y520D01*
X0Y519D02*
X7Y519D01*
X156Y519D02*
X165Y519D01*
X256Y519D02*
X265Y519D01*
X356Y519D02*
X365Y519D01*
X602Y519D02*
X609Y519D01*
X0Y518D02*
X7Y518D01*
X156Y518D02*
X165Y518D01*
X256Y518D02*
X265Y518D01*
X356Y518D02*
X365Y518D01*
X602Y518D02*
X609Y518D01*
X0Y517D02*
X7Y517D01*
X156Y517D02*
X165Y517D01*
X256Y517D02*
X265Y517D01*
X356Y517D02*
X365Y517D01*
X602Y517D02*
X609Y517D01*
X0Y516D02*
X7Y516D01*
X156Y516D02*
X165Y516D01*
X256Y516D02*
X265Y516D01*
X356Y516D02*
X365Y516D01*
X602Y516D02*
X609Y516D01*
X0Y515D02*
X7Y515D01*
X156Y515D02*
X165Y515D01*
X256Y515D02*
X265Y515D01*
X356Y515D02*
X365Y515D01*
X602Y515D02*
X609Y515D01*
X0Y514D02*
X7Y514D01*
X156Y514D02*
X165Y514D01*
X256Y514D02*
X265Y514D01*
X356Y514D02*
X365Y514D01*
X602Y514D02*
X609Y514D01*
X0Y513D02*
X7Y513D01*
X156Y513D02*
X165Y513D01*
X256Y513D02*
X265Y513D01*
X356Y513D02*
X365Y513D01*
X602Y513D02*
X609Y513D01*
X0Y512D02*
X7Y512D01*
X156Y512D02*
X165Y512D01*
X256Y512D02*
X265Y512D01*
X356Y512D02*
X365Y512D01*
X602Y512D02*
X609Y512D01*
X0Y511D02*
X7Y511D01*
X156Y511D02*
X165Y511D01*
X256Y511D02*
X265Y511D01*
X356Y511D02*
X365Y511D01*
X602Y511D02*
X609Y511D01*
X0Y510D02*
X7Y510D01*
X156Y510D02*
X165Y510D01*
X256Y510D02*
X265Y510D01*
X356Y510D02*
X365Y510D01*
X602Y510D02*
X609Y510D01*
X0Y509D02*
X7Y509D01*
X156Y509D02*
X165Y509D01*
X256Y509D02*
X265Y509D01*
X356Y509D02*
X365Y509D01*
X602Y509D02*
X609Y509D01*
X0Y508D02*
X7Y508D01*
X156Y508D02*
X165Y508D01*
X256Y508D02*
X265Y508D01*
X356Y508D02*
X365Y508D01*
X602Y508D02*
X609Y508D01*
X0Y507D02*
X7Y507D01*
X156Y507D02*
X165Y507D01*
X256Y507D02*
X265Y507D01*
X356Y507D02*
X365Y507D01*
X602Y507D02*
X609Y507D01*
X0Y506D02*
X7Y506D01*
X156Y506D02*
X165Y506D01*
X256Y506D02*
X265Y506D01*
X356Y506D02*
X365Y506D01*
X602Y506D02*
X609Y506D01*
X0Y505D02*
X7Y505D01*
X156Y505D02*
X165Y505D01*
X256Y505D02*
X265Y505D01*
X356Y505D02*
X365Y505D01*
X602Y505D02*
X609Y505D01*
X0Y504D02*
X7Y504D01*
X156Y504D02*
X165Y504D01*
X256Y504D02*
X265Y504D01*
X356Y504D02*
X365Y504D01*
X602Y504D02*
X609Y504D01*
X0Y503D02*
X7Y503D01*
X156Y503D02*
X165Y503D01*
X256Y503D02*
X265Y503D01*
X356Y503D02*
X365Y503D01*
X602Y503D02*
X609Y503D01*
X0Y502D02*
X7Y502D01*
X156Y502D02*
X165Y502D01*
X256Y502D02*
X265Y502D01*
X356Y502D02*
X365Y502D01*
X602Y502D02*
X609Y502D01*
X0Y501D02*
X7Y501D01*
X156Y501D02*
X165Y501D01*
X256Y501D02*
X265Y501D01*
X356Y501D02*
X365Y501D01*
X602Y501D02*
X609Y501D01*
X0Y500D02*
X7Y500D01*
X602Y500D02*
X609Y500D01*
X0Y499D02*
X7Y499D01*
X602Y499D02*
X609Y499D01*
X0Y498D02*
X7Y498D01*
X602Y498D02*
X609Y498D01*
X0Y497D02*
X7Y497D01*
X602Y497D02*
X609Y497D01*
X0Y496D02*
X7Y496D01*
X602Y496D02*
X609Y496D01*
X0Y495D02*
X7Y495D01*
X602Y495D02*
X609Y495D01*
X0Y494D02*
X7Y494D01*
X602Y494D02*
X609Y494D01*
X0Y493D02*
X7Y493D01*
X602Y493D02*
X609Y493D01*
X0Y492D02*
X7Y492D01*
X602Y492D02*
X609Y492D01*
X0Y491D02*
X7Y491D01*
X602Y491D02*
X609Y491D01*
X0Y490D02*
X7Y490D01*
X602Y490D02*
X609Y490D01*
X0Y489D02*
X7Y489D01*
X602Y489D02*
X609Y489D01*
X0Y488D02*
X7Y488D01*
X602Y488D02*
X609Y488D01*
X0Y487D02*
X7Y487D01*
X602Y487D02*
X609Y487D01*
X0Y486D02*
X7Y486D01*
X602Y486D02*
X609Y486D01*
X0Y485D02*
X7Y485D01*
X602Y485D02*
X609Y485D01*
X0Y484D02*
X7Y484D01*
X602Y484D02*
X609Y484D01*
X0Y483D02*
X7Y483D01*
X602Y483D02*
X609Y483D01*
X0Y482D02*
X7Y482D01*
X602Y482D02*
X609Y482D01*
X0Y481D02*
X7Y481D01*
X602Y481D02*
X609Y481D01*
X0Y480D02*
X7Y480D01*
X602Y480D02*
X609Y480D01*
X0Y479D02*
X7Y479D01*
X602Y479D02*
X609Y479D01*
X0Y478D02*
X7Y478D01*
X602Y478D02*
X609Y478D01*
X0Y477D02*
X7Y477D01*
X602Y477D02*
X609Y477D01*
X0Y476D02*
X7Y476D01*
X602Y476D02*
X609Y476D01*
X0Y475D02*
X7Y475D01*
X602Y475D02*
X609Y475D01*
X0Y474D02*
X7Y474D01*
X602Y474D02*
X609Y474D01*
X0Y473D02*
X7Y473D01*
X602Y473D02*
X609Y473D01*
X0Y472D02*
X7Y472D01*
X602Y472D02*
X609Y472D01*
X0Y471D02*
X7Y471D01*
X602Y471D02*
X609Y471D01*
X0Y470D02*
X7Y470D01*
X602Y470D02*
X609Y470D01*
X0Y469D02*
X7Y469D01*
X602Y469D02*
X609Y469D01*
X0Y468D02*
X7Y468D01*
X602Y468D02*
X609Y468D01*
X0Y467D02*
X7Y467D01*
X602Y467D02*
X609Y467D01*
X0Y466D02*
X7Y466D01*
X602Y466D02*
X609Y466D01*
X0Y465D02*
X7Y465D01*
X602Y465D02*
X609Y465D01*
X0Y464D02*
X7Y464D01*
X602Y464D02*
X609Y464D01*
X0Y463D02*
X7Y463D01*
X602Y463D02*
X609Y463D01*
X0Y462D02*
X7Y462D01*
X602Y462D02*
X609Y462D01*
X0Y461D02*
X7Y461D01*
X602Y461D02*
X609Y461D01*
X0Y460D02*
X7Y460D01*
X602Y460D02*
X609Y460D01*
X0Y459D02*
X7Y459D01*
X602Y459D02*
X609Y459D01*
X0Y458D02*
X7Y458D01*
X602Y458D02*
X609Y458D01*
X0Y457D02*
X7Y457D01*
X602Y457D02*
X609Y457D01*
X0Y456D02*
X7Y456D01*
X602Y456D02*
X609Y456D01*
X0Y455D02*
X7Y455D01*
X602Y455D02*
X609Y455D01*
X0Y454D02*
X7Y454D01*
X602Y454D02*
X609Y454D01*
X0Y453D02*
X7Y453D01*
X602Y453D02*
X609Y453D01*
X0Y452D02*
X7Y452D01*
X602Y452D02*
X609Y452D01*
X0Y451D02*
X7Y451D01*
X602Y451D02*
X609Y451D01*
X0Y450D02*
X7Y450D01*
X602Y450D02*
X609Y450D01*
X0Y449D02*
X7Y449D01*
X602Y449D02*
X609Y449D01*
X0Y448D02*
X7Y448D01*
X602Y448D02*
X609Y448D01*
X0Y447D02*
X7Y447D01*
X602Y447D02*
X609Y447D01*
X0Y446D02*
X7Y446D01*
X602Y446D02*
X609Y446D01*
X0Y445D02*
X7Y445D01*
X602Y445D02*
X609Y445D01*
X0Y444D02*
X7Y444D01*
X602Y444D02*
X609Y444D01*
X0Y443D02*
X7Y443D01*
X602Y443D02*
X609Y443D01*
X0Y442D02*
X7Y442D01*
X602Y442D02*
X609Y442D01*
X0Y441D02*
X7Y441D01*
X602Y441D02*
X609Y441D01*
X0Y440D02*
X7Y440D01*
X602Y440D02*
X609Y440D01*
X0Y439D02*
X7Y439D01*
X602Y439D02*
X609Y439D01*
X0Y438D02*
X7Y438D01*
X602Y438D02*
X609Y438D01*
X0Y437D02*
X7Y437D01*
X602Y437D02*
X609Y437D01*
X0Y436D02*
X7Y436D01*
X602Y436D02*
X609Y436D01*
X0Y435D02*
X7Y435D01*
X602Y435D02*
X609Y435D01*
X0Y434D02*
X7Y434D01*
X602Y434D02*
X609Y434D01*
X0Y433D02*
X7Y433D01*
X602Y433D02*
X609Y433D01*
X0Y432D02*
X7Y432D01*
X602Y432D02*
X609Y432D01*
X0Y431D02*
X7Y431D01*
X602Y431D02*
X609Y431D01*
X0Y430D02*
X7Y430D01*
X602Y430D02*
X609Y430D01*
X0Y429D02*
X7Y429D01*
X602Y429D02*
X609Y429D01*
X0Y428D02*
X7Y428D01*
X602Y428D02*
X609Y428D01*
X0Y427D02*
X7Y427D01*
X602Y427D02*
X609Y427D01*
X0Y426D02*
X7Y426D01*
X602Y426D02*
X609Y426D01*
X0Y425D02*
X7Y425D01*
X602Y425D02*
X609Y425D01*
X0Y424D02*
X7Y424D01*
X602Y424D02*
X609Y424D01*
X0Y423D02*
X7Y423D01*
X602Y423D02*
X609Y423D01*
X0Y422D02*
X7Y422D01*
X602Y422D02*
X609Y422D01*
X0Y421D02*
X7Y421D01*
X602Y421D02*
X609Y421D01*
X0Y420D02*
X7Y420D01*
X602Y420D02*
X609Y420D01*
X0Y419D02*
X7Y419D01*
X602Y419D02*
X609Y419D01*
X0Y418D02*
X7Y418D01*
X602Y418D02*
X609Y418D01*
X0Y417D02*
X7Y417D01*
X602Y417D02*
X609Y417D01*
X0Y416D02*
X7Y416D01*
X602Y416D02*
X609Y416D01*
X0Y415D02*
X7Y415D01*
X602Y415D02*
X609Y415D01*
X0Y414D02*
X7Y414D01*
X602Y414D02*
X609Y414D01*
X0Y413D02*
X7Y413D01*
X602Y413D02*
X609Y413D01*
X0Y412D02*
X7Y412D01*
X602Y412D02*
X609Y412D01*
X0Y411D02*
X7Y411D01*
X602Y411D02*
X609Y411D01*
X0Y410D02*
X7Y410D01*
X602Y410D02*
X609Y410D01*
X0Y409D02*
X7Y409D01*
X602Y409D02*
X609Y409D01*
X0Y408D02*
X7Y408D01*
X602Y408D02*
X609Y408D01*
X0Y407D02*
X7Y407D01*
X602Y407D02*
X609Y407D01*
X0Y406D02*
X7Y406D01*
X602Y406D02*
X609Y406D01*
X0Y405D02*
X7Y405D01*
X602Y405D02*
X609Y405D01*
X0Y404D02*
X7Y404D01*
X602Y404D02*
X609Y404D01*
X0Y403D02*
X7Y403D01*
X602Y403D02*
X609Y403D01*
X0Y402D02*
X7Y402D01*
X602Y402D02*
X609Y402D01*
X0Y401D02*
X7Y401D01*
X602Y401D02*
X609Y401D01*
X0Y400D02*
X7Y400D01*
X602Y400D02*
X609Y400D01*
X0Y399D02*
X7Y399D01*
X602Y399D02*
X609Y399D01*
X0Y398D02*
X7Y398D01*
X602Y398D02*
X609Y398D01*
X0Y397D02*
X7Y397D01*
X602Y397D02*
X609Y397D01*
X0Y396D02*
X7Y396D01*
X602Y396D02*
X609Y396D01*
X0Y395D02*
X7Y395D01*
X602Y395D02*
X609Y395D01*
X0Y394D02*
X7Y394D01*
X602Y394D02*
X609Y394D01*
X0Y393D02*
X7Y393D01*
X602Y393D02*
X609Y393D01*
X0Y392D02*
X7Y392D01*
X602Y392D02*
X609Y392D01*
X0Y391D02*
X7Y391D01*
X602Y391D02*
X609Y391D01*
X0Y390D02*
X7Y390D01*
X602Y390D02*
X609Y390D01*
X0Y389D02*
X7Y389D01*
X602Y389D02*
X609Y389D01*
X0Y388D02*
X7Y388D01*
X602Y388D02*
X609Y388D01*
X0Y387D02*
X7Y387D01*
X602Y387D02*
X609Y387D01*
X0Y386D02*
X7Y386D01*
X602Y386D02*
X609Y386D01*
X0Y385D02*
X7Y385D01*
X602Y385D02*
X609Y385D01*
X0Y384D02*
X7Y384D01*
X602Y384D02*
X609Y384D01*
X0Y383D02*
X7Y383D01*
X602Y383D02*
X609Y383D01*
X0Y382D02*
X7Y382D01*
X602Y382D02*
X609Y382D01*
X0Y381D02*
X7Y381D01*
X602Y381D02*
X609Y381D01*
X0Y380D02*
X7Y380D01*
X602Y380D02*
X609Y380D01*
X0Y379D02*
X7Y379D01*
X602Y379D02*
X609Y379D01*
X0Y378D02*
X7Y378D01*
X602Y378D02*
X609Y378D01*
X0Y377D02*
X7Y377D01*
X602Y377D02*
X609Y377D01*
X0Y376D02*
X7Y376D01*
X602Y376D02*
X609Y376D01*
X0Y375D02*
X7Y375D01*
X602Y375D02*
X609Y375D01*
X0Y374D02*
X7Y374D01*
X602Y374D02*
X609Y374D01*
X0Y373D02*
X7Y373D01*
X602Y373D02*
X609Y373D01*
X0Y372D02*
X7Y372D01*
X602Y372D02*
X609Y372D01*
X0Y371D02*
X7Y371D01*
X602Y371D02*
X609Y371D01*
X0Y370D02*
X7Y370D01*
X602Y370D02*
X609Y370D01*
X0Y369D02*
X7Y369D01*
X602Y369D02*
X609Y369D01*
X0Y368D02*
X7Y368D01*
X602Y368D02*
X609Y368D01*
X0Y367D02*
X7Y367D01*
X602Y367D02*
X609Y367D01*
X0Y366D02*
X7Y366D01*
X602Y366D02*
X609Y366D01*
X0Y365D02*
X7Y365D01*
X602Y365D02*
X609Y365D01*
X0Y364D02*
X7Y364D01*
X602Y364D02*
X609Y364D01*
X0Y363D02*
X7Y363D01*
X602Y363D02*
X609Y363D01*
X0Y362D02*
X7Y362D01*
X602Y362D02*
X609Y362D01*
X0Y361D02*
X7Y361D01*
X602Y361D02*
X609Y361D01*
X0Y360D02*
X7Y360D01*
X602Y360D02*
X609Y360D01*
X0Y359D02*
X7Y359D01*
X602Y359D02*
X609Y359D01*
X0Y358D02*
X7Y358D01*
X602Y358D02*
X609Y358D01*
X0Y357D02*
X7Y357D01*
X602Y357D02*
X609Y357D01*
X0Y356D02*
X7Y356D01*
X602Y356D02*
X609Y356D01*
X0Y355D02*
X7Y355D01*
X602Y355D02*
X609Y355D01*
X0Y354D02*
X7Y354D01*
X602Y354D02*
X609Y354D01*
X0Y353D02*
X7Y353D01*
X602Y353D02*
X609Y353D01*
X0Y352D02*
X7Y352D01*
X602Y352D02*
X609Y352D01*
X0Y351D02*
X7Y351D01*
X602Y351D02*
X609Y351D01*
X0Y350D02*
X7Y350D01*
X602Y350D02*
X609Y350D01*
X0Y349D02*
X7Y349D01*
X602Y349D02*
X609Y349D01*
X0Y348D02*
X7Y348D01*
X602Y348D02*
X609Y348D01*
X0Y347D02*
X7Y347D01*
X602Y347D02*
X609Y347D01*
X0Y346D02*
X7Y346D01*
X602Y346D02*
X609Y346D01*
X0Y345D02*
X7Y345D01*
X602Y345D02*
X609Y345D01*
X0Y344D02*
X7Y344D01*
X602Y344D02*
X609Y344D01*
X0Y343D02*
X7Y343D01*
X602Y343D02*
X609Y343D01*
X0Y342D02*
X7Y342D01*
X602Y342D02*
X609Y342D01*
X0Y341D02*
X7Y341D01*
X602Y341D02*
X609Y341D01*
X0Y340D02*
X7Y340D01*
X602Y340D02*
X609Y340D01*
X0Y339D02*
X7Y339D01*
X602Y339D02*
X609Y339D01*
X0Y338D02*
X7Y338D01*
X602Y338D02*
X609Y338D01*
X0Y337D02*
X7Y337D01*
X602Y337D02*
X609Y337D01*
X0Y336D02*
X7Y336D01*
X602Y336D02*
X609Y336D01*
X0Y335D02*
X7Y335D01*
X602Y335D02*
X609Y335D01*
X0Y334D02*
X7Y334D01*
X602Y334D02*
X609Y334D01*
X0Y333D02*
X7Y333D01*
X602Y333D02*
X609Y333D01*
X0Y332D02*
X7Y332D01*
X602Y332D02*
X609Y332D01*
X0Y331D02*
X7Y331D01*
X602Y331D02*
X609Y331D01*
X0Y330D02*
X7Y330D01*
X602Y330D02*
X609Y330D01*
X0Y329D02*
X7Y329D01*
X602Y329D02*
X609Y329D01*
X0Y328D02*
X7Y328D01*
X602Y328D02*
X609Y328D01*
X0Y327D02*
X7Y327D01*
X602Y327D02*
X609Y327D01*
X0Y326D02*
X7Y326D01*
X602Y326D02*
X609Y326D01*
X0Y325D02*
X7Y325D01*
X602Y325D02*
X609Y325D01*
X0Y324D02*
X7Y324D01*
X602Y324D02*
X609Y324D01*
X0Y323D02*
X7Y323D01*
X602Y323D02*
X609Y323D01*
X0Y322D02*
X7Y322D01*
X602Y322D02*
X609Y322D01*
X0Y321D02*
X7Y321D01*
X602Y321D02*
X609Y321D01*
X0Y320D02*
X7Y320D01*
X602Y320D02*
X609Y320D01*
X0Y319D02*
X7Y319D01*
X602Y319D02*
X609Y319D01*
X0Y318D02*
X7Y318D01*
X602Y318D02*
X609Y318D01*
X0Y317D02*
X7Y317D01*
X602Y317D02*
X609Y317D01*
X0Y316D02*
X7Y316D01*
X602Y316D02*
X609Y316D01*
X0Y315D02*
X7Y315D01*
X602Y315D02*
X609Y315D01*
X0Y314D02*
X7Y314D01*
X602Y314D02*
X609Y314D01*
X0Y313D02*
X7Y313D01*
X602Y313D02*
X609Y313D01*
X0Y312D02*
X7Y312D01*
X602Y312D02*
X609Y312D01*
X0Y311D02*
X7Y311D01*
X602Y311D02*
X609Y311D01*
X0Y310D02*
X7Y310D01*
X602Y310D02*
X609Y310D01*
X0Y309D02*
X7Y309D01*
X602Y309D02*
X609Y309D01*
X0Y308D02*
X7Y308D01*
X602Y308D02*
X609Y308D01*
X0Y307D02*
X7Y307D01*
X602Y307D02*
X609Y307D01*
X0Y306D02*
X7Y306D01*
X602Y306D02*
X609Y306D01*
X0Y305D02*
X7Y305D01*
X602Y305D02*
X609Y305D01*
X0Y304D02*
X7Y304D01*
X602Y304D02*
X609Y304D01*
X0Y303D02*
X7Y303D01*
X602Y303D02*
X609Y303D01*
X0Y302D02*
X7Y302D01*
X602Y302D02*
X609Y302D01*
X0Y301D02*
X7Y301D01*
X602Y301D02*
X609Y301D01*
X0Y300D02*
X7Y300D01*
X602Y300D02*
X609Y300D01*
X0Y299D02*
X7Y299D01*
X602Y299D02*
X609Y299D01*
X0Y298D02*
X7Y298D01*
X602Y298D02*
X609Y298D01*
X0Y297D02*
X7Y297D01*
X602Y297D02*
X609Y297D01*
X0Y296D02*
X7Y296D01*
X602Y296D02*
X609Y296D01*
X0Y295D02*
X7Y295D01*
X602Y295D02*
X609Y295D01*
X0Y294D02*
X7Y294D01*
X602Y294D02*
X609Y294D01*
X0Y293D02*
X7Y293D01*
X602Y293D02*
X609Y293D01*
X0Y292D02*
X7Y292D01*
X602Y292D02*
X609Y292D01*
X0Y291D02*
X7Y291D01*
X602Y291D02*
X609Y291D01*
X0Y290D02*
X7Y290D01*
X602Y290D02*
X609Y290D01*
X0Y289D02*
X7Y289D01*
X602Y289D02*
X609Y289D01*
X0Y288D02*
X7Y288D01*
X602Y288D02*
X609Y288D01*
X0Y287D02*
X7Y287D01*
X602Y287D02*
X609Y287D01*
X0Y286D02*
X7Y286D01*
X602Y286D02*
X609Y286D01*
X0Y285D02*
X7Y285D01*
X602Y285D02*
X609Y285D01*
X0Y284D02*
X7Y284D01*
X602Y284D02*
X609Y284D01*
X0Y283D02*
X7Y283D01*
X602Y283D02*
X609Y283D01*
X0Y282D02*
X7Y282D01*
X602Y282D02*
X609Y282D01*
X0Y281D02*
X7Y281D01*
X602Y281D02*
X609Y281D01*
X0Y280D02*
X7Y280D01*
X602Y280D02*
X609Y280D01*
X0Y279D02*
X7Y279D01*
X602Y279D02*
X609Y279D01*
X0Y278D02*
X7Y278D01*
X602Y278D02*
X609Y278D01*
X0Y277D02*
X7Y277D01*
X602Y277D02*
X609Y277D01*
X0Y276D02*
X7Y276D01*
X602Y276D02*
X609Y276D01*
X0Y275D02*
X7Y275D01*
X602Y275D02*
X609Y275D01*
X0Y274D02*
X7Y274D01*
X602Y274D02*
X609Y274D01*
X0Y273D02*
X7Y273D01*
X602Y273D02*
X609Y273D01*
X0Y272D02*
X7Y272D01*
X602Y272D02*
X609Y272D01*
X0Y271D02*
X7Y271D01*
X602Y271D02*
X609Y271D01*
X0Y270D02*
X7Y270D01*
X602Y270D02*
X609Y270D01*
X0Y269D02*
X7Y269D01*
X602Y269D02*
X609Y269D01*
X0Y268D02*
X7Y268D01*
X602Y268D02*
X609Y268D01*
X0Y267D02*
X7Y267D01*
X602Y267D02*
X609Y267D01*
X0Y266D02*
X7Y266D01*
X602Y266D02*
X609Y266D01*
X0Y265D02*
X7Y265D01*
X602Y265D02*
X609Y265D01*
X0Y264D02*
X7Y264D01*
X602Y264D02*
X609Y264D01*
X0Y263D02*
X7Y263D01*
X602Y263D02*
X609Y263D01*
X0Y262D02*
X7Y262D01*
X602Y262D02*
X609Y262D01*
X0Y261D02*
X7Y261D01*
X602Y261D02*
X609Y261D01*
X0Y260D02*
X7Y260D01*
X602Y260D02*
X609Y260D01*
X0Y259D02*
X7Y259D01*
X602Y259D02*
X609Y259D01*
X0Y258D02*
X7Y258D01*
X602Y258D02*
X609Y258D01*
X0Y257D02*
X7Y257D01*
X602Y257D02*
X609Y257D01*
X0Y256D02*
X7Y256D01*
X602Y256D02*
X609Y256D01*
X0Y255D02*
X7Y255D01*
X602Y255D02*
X609Y255D01*
X0Y254D02*
X7Y254D01*
X602Y254D02*
X609Y254D01*
X0Y253D02*
X7Y253D01*
X602Y253D02*
X609Y253D01*
X0Y252D02*
X7Y252D01*
X602Y252D02*
X609Y252D01*
X0Y251D02*
X7Y251D01*
X602Y251D02*
X609Y251D01*
X0Y250D02*
X7Y250D01*
X602Y250D02*
X609Y250D01*
X0Y249D02*
X7Y249D01*
X602Y249D02*
X609Y249D01*
X0Y248D02*
X7Y248D01*
X602Y248D02*
X609Y248D01*
X0Y247D02*
X7Y247D01*
X602Y247D02*
X609Y247D01*
X0Y246D02*
X7Y246D01*
X602Y246D02*
X609Y246D01*
X0Y245D02*
X7Y245D01*
X602Y245D02*
X609Y245D01*
X0Y244D02*
X7Y244D01*
X602Y244D02*
X609Y244D01*
X0Y243D02*
X7Y243D01*
X602Y243D02*
X609Y243D01*
X0Y242D02*
X7Y242D01*
X602Y242D02*
X609Y242D01*
X0Y241D02*
X7Y241D01*
X602Y241D02*
X609Y241D01*
X0Y240D02*
X7Y240D01*
X602Y240D02*
X609Y240D01*
X0Y239D02*
X7Y239D01*
X602Y239D02*
X609Y239D01*
X0Y238D02*
X7Y238D01*
X602Y238D02*
X609Y238D01*
X0Y237D02*
X7Y237D01*
X602Y237D02*
X609Y237D01*
X0Y236D02*
X7Y236D01*
X602Y236D02*
X609Y236D01*
X0Y235D02*
X7Y235D01*
X602Y235D02*
X609Y235D01*
X0Y234D02*
X7Y234D01*
X602Y234D02*
X609Y234D01*
X0Y233D02*
X7Y233D01*
X602Y233D02*
X609Y233D01*
X0Y232D02*
X7Y232D01*
X602Y232D02*
X609Y232D01*
X0Y231D02*
X7Y231D01*
X602Y231D02*
X609Y231D01*
X0Y230D02*
X7Y230D01*
X602Y230D02*
X609Y230D01*
X0Y229D02*
X7Y229D01*
X602Y229D02*
X609Y229D01*
X0Y228D02*
X7Y228D01*
X602Y228D02*
X609Y228D01*
X0Y227D02*
X7Y227D01*
X602Y227D02*
X609Y227D01*
X0Y226D02*
X7Y226D01*
X602Y226D02*
X609Y226D01*
X0Y225D02*
X7Y225D01*
X602Y225D02*
X609Y225D01*
X0Y224D02*
X7Y224D01*
X602Y224D02*
X609Y224D01*
X0Y223D02*
X7Y223D01*
X602Y223D02*
X609Y223D01*
X0Y222D02*
X7Y222D01*
X602Y222D02*
X609Y222D01*
X0Y221D02*
X7Y221D01*
X602Y221D02*
X609Y221D01*
X0Y220D02*
X7Y220D01*
X602Y220D02*
X609Y220D01*
X0Y219D02*
X7Y219D01*
X602Y219D02*
X609Y219D01*
X0Y218D02*
X7Y218D01*
X602Y218D02*
X609Y218D01*
X0Y217D02*
X7Y217D01*
X602Y217D02*
X609Y217D01*
X0Y216D02*
X7Y216D01*
X602Y216D02*
X609Y216D01*
X0Y215D02*
X7Y215D01*
X602Y215D02*
X609Y215D01*
X0Y214D02*
X7Y214D01*
X602Y214D02*
X609Y214D01*
X0Y213D02*
X7Y213D01*
X602Y213D02*
X609Y213D01*
X0Y212D02*
X7Y212D01*
X602Y212D02*
X609Y212D01*
X0Y211D02*
X7Y211D01*
X602Y211D02*
X609Y211D01*
X0Y210D02*
X7Y210D01*
X602Y210D02*
X609Y210D01*
X0Y209D02*
X7Y209D01*
X602Y209D02*
X609Y209D01*
X0Y208D02*
X7Y208D01*
X602Y208D02*
X609Y208D01*
X0Y207D02*
X7Y207D01*
X602Y207D02*
X609Y207D01*
X0Y206D02*
X7Y206D01*
X602Y206D02*
X609Y206D01*
X0Y205D02*
X7Y205D01*
X602Y205D02*
X609Y205D01*
X0Y204D02*
X7Y204D01*
X602Y204D02*
X609Y204D01*
X0Y203D02*
X7Y203D01*
X602Y203D02*
X609Y203D01*
X0Y202D02*
X7Y202D01*
X602Y202D02*
X609Y202D01*
X0Y201D02*
X7Y201D01*
X602Y201D02*
X609Y201D01*
X0Y200D02*
X7Y200D01*
X602Y200D02*
X609Y200D01*
X0Y199D02*
X7Y199D01*
X602Y199D02*
X609Y199D01*
X0Y198D02*
X7Y198D01*
X602Y198D02*
X609Y198D01*
X0Y197D02*
X7Y197D01*
X602Y197D02*
X609Y197D01*
X0Y196D02*
X7Y196D01*
X602Y196D02*
X609Y196D01*
X0Y195D02*
X7Y195D01*
X602Y195D02*
X609Y195D01*
X0Y194D02*
X7Y194D01*
X602Y194D02*
X609Y194D01*
X0Y193D02*
X7Y193D01*
X602Y193D02*
X609Y193D01*
X0Y192D02*
X7Y192D01*
X602Y192D02*
X609Y192D01*
X0Y191D02*
X7Y191D01*
X602Y191D02*
X609Y191D01*
X0Y190D02*
X7Y190D01*
X602Y190D02*
X609Y190D01*
X0Y189D02*
X7Y189D01*
X602Y189D02*
X609Y189D01*
X0Y188D02*
X7Y188D01*
X602Y188D02*
X609Y188D01*
X0Y187D02*
X7Y187D01*
X602Y187D02*
X609Y187D01*
X0Y186D02*
X7Y186D01*
X602Y186D02*
X609Y186D01*
X0Y185D02*
X7Y185D01*
X602Y185D02*
X609Y185D01*
X0Y184D02*
X7Y184D01*
X602Y184D02*
X609Y184D01*
X0Y183D02*
X7Y183D01*
X602Y183D02*
X609Y183D01*
X0Y182D02*
X7Y182D01*
X602Y182D02*
X609Y182D01*
X0Y181D02*
X7Y181D01*
X602Y181D02*
X609Y181D01*
X0Y180D02*
X7Y180D01*
X602Y180D02*
X609Y180D01*
X0Y179D02*
X7Y179D01*
X602Y179D02*
X609Y179D01*
X0Y178D02*
X7Y178D01*
X602Y178D02*
X609Y178D01*
X0Y177D02*
X7Y177D01*
X602Y177D02*
X609Y177D01*
X0Y176D02*
X7Y176D01*
X602Y176D02*
X609Y176D01*
X0Y175D02*
X7Y175D01*
X602Y175D02*
X609Y175D01*
X0Y174D02*
X7Y174D01*
X602Y174D02*
X609Y174D01*
X0Y173D02*
X7Y173D01*
X602Y173D02*
X609Y173D01*
X0Y172D02*
X7Y172D01*
X602Y172D02*
X609Y172D01*
X0Y171D02*
X7Y171D01*
X602Y171D02*
X609Y171D01*
X0Y170D02*
X7Y170D01*
X602Y170D02*
X609Y170D01*
X0Y169D02*
X7Y169D01*
X602Y169D02*
X609Y169D01*
X0Y168D02*
X7Y168D01*
X602Y168D02*
X609Y168D01*
X0Y167D02*
X7Y167D01*
X602Y167D02*
X609Y167D01*
X0Y166D02*
X7Y166D01*
X602Y166D02*
X609Y166D01*
X0Y165D02*
X7Y165D01*
X602Y165D02*
X609Y165D01*
X0Y164D02*
X7Y164D01*
X602Y164D02*
X609Y164D01*
X0Y163D02*
X7Y163D01*
X126Y163D02*
X152Y163D01*
X178Y163D02*
X207Y163D01*
X226Y163D02*
X234Y163D01*
X256Y163D02*
X258Y163D01*
X602Y163D02*
X609Y163D01*
X0Y162D02*
X7Y162D01*
X126Y162D02*
X154Y162D01*
X177Y162D02*
X209Y162D01*
X226Y162D02*
X235Y162D01*
X254Y162D02*
X259Y162D01*
X602Y162D02*
X609Y162D01*
X0Y161D02*
X7Y161D01*
X126Y161D02*
X155Y161D01*
X176Y161D02*
X209Y161D01*
X226Y161D02*
X235Y161D01*
X254Y161D02*
X259Y161D01*
X602Y161D02*
X609Y161D01*
X0Y160D02*
X7Y160D01*
X126Y160D02*
X156Y160D01*
X176Y160D02*
X209Y160D01*
X226Y160D02*
X236Y160D01*
X254Y160D02*
X260Y160D01*
X602Y160D02*
X609Y160D01*
X0Y159D02*
X7Y159D01*
X126Y159D02*
X157Y159D01*
X176Y159D02*
X209Y159D01*
X226Y159D02*
X236Y159D01*
X254Y159D02*
X260Y159D01*
X602Y159D02*
X609Y159D01*
X0Y158D02*
X7Y158D01*
X126Y158D02*
X158Y158D01*
X177Y158D02*
X209Y158D01*
X226Y158D02*
X237Y158D01*
X254Y158D02*
X260Y158D01*
X602Y158D02*
X609Y158D01*
X0Y157D02*
X7Y157D01*
X126Y157D02*
X158Y157D01*
X178Y157D02*
X208Y157D01*
X226Y157D02*
X237Y157D01*
X254Y157D02*
X260Y157D01*
X602Y157D02*
X609Y157D01*
X0Y156D02*
X7Y156D01*
X126Y156D02*
X132Y156D01*
X151Y156D02*
X159Y156D01*
X190Y156D02*
X196Y156D01*
X226Y156D02*
X238Y156D01*
X254Y156D02*
X260Y156D01*
X602Y156D02*
X609Y156D01*
X0Y155D02*
X7Y155D01*
X126Y155D02*
X132Y155D01*
X152Y155D02*
X159Y155D01*
X190Y155D02*
X196Y155D01*
X226Y155D02*
X238Y155D01*
X254Y155D02*
X260Y155D01*
X602Y155D02*
X609Y155D01*
X0Y154D02*
X7Y154D01*
X126Y154D02*
X132Y154D01*
X153Y154D02*
X159Y154D01*
X190Y154D02*
X196Y154D01*
X226Y154D02*
X238Y154D01*
X254Y154D02*
X260Y154D01*
X602Y154D02*
X609Y154D01*
X0Y153D02*
X7Y153D01*
X126Y153D02*
X132Y153D01*
X153Y153D02*
X159Y153D01*
X190Y153D02*
X196Y153D01*
X226Y153D02*
X239Y153D01*
X254Y153D02*
X260Y153D01*
X602Y153D02*
X609Y153D01*
X0Y152D02*
X7Y152D01*
X126Y152D02*
X132Y152D01*
X153Y152D02*
X159Y152D01*
X190Y152D02*
X196Y152D01*
X226Y152D02*
X239Y152D01*
X254Y152D02*
X260Y152D01*
X602Y152D02*
X609Y152D01*
X0Y151D02*
X7Y151D01*
X126Y151D02*
X132Y151D01*
X153Y151D02*
X159Y151D01*
X190Y151D02*
X196Y151D01*
X226Y151D02*
X240Y151D01*
X254Y151D02*
X260Y151D01*
X602Y151D02*
X609Y151D01*
X0Y150D02*
X7Y150D01*
X126Y150D02*
X132Y150D01*
X153Y150D02*
X159Y150D01*
X190Y150D02*
X196Y150D01*
X226Y150D02*
X240Y150D01*
X254Y150D02*
X260Y150D01*
X602Y150D02*
X609Y150D01*
X0Y149D02*
X7Y149D01*
X126Y149D02*
X132Y149D01*
X153Y149D02*
X159Y149D01*
X190Y149D02*
X196Y149D01*
X226Y149D02*
X232Y149D01*
X234Y149D02*
X241Y149D01*
X254Y149D02*
X260Y149D01*
X602Y149D02*
X609Y149D01*
X0Y148D02*
X7Y148D01*
X126Y148D02*
X132Y148D01*
X153Y148D02*
X159Y148D01*
X190Y148D02*
X196Y148D01*
X226Y148D02*
X232Y148D01*
X234Y148D02*
X241Y148D01*
X254Y148D02*
X260Y148D01*
X283Y148D02*
X303Y148D01*
X602Y148D02*
X609Y148D01*
X0Y147D02*
X7Y147D01*
X126Y147D02*
X132Y147D01*
X153Y147D02*
X159Y147D01*
X190Y147D02*
X196Y147D01*
X226Y147D02*
X232Y147D01*
X235Y147D02*
X241Y147D01*
X254Y147D02*
X260Y147D01*
X281Y147D02*
X305Y147D01*
X602Y147D02*
X609Y147D01*
X0Y146D02*
X7Y146D01*
X126Y146D02*
X132Y146D01*
X153Y146D02*
X159Y146D01*
X190Y146D02*
X196Y146D01*
X226Y146D02*
X232Y146D01*
X235Y146D02*
X242Y146D01*
X254Y146D02*
X260Y146D01*
X280Y146D02*
X307Y146D01*
X602Y146D02*
X609Y146D01*
X0Y145D02*
X7Y145D01*
X126Y145D02*
X132Y145D01*
X153Y145D02*
X159Y145D01*
X190Y145D02*
X196Y145D01*
X226Y145D02*
X232Y145D01*
X236Y145D02*
X242Y145D01*
X254Y145D02*
X260Y145D01*
X279Y145D02*
X308Y145D01*
X602Y145D02*
X609Y145D01*
X0Y144D02*
X7Y144D01*
X126Y144D02*
X132Y144D01*
X153Y144D02*
X159Y144D01*
X190Y144D02*
X196Y144D01*
X226Y144D02*
X232Y144D01*
X236Y144D02*
X243Y144D01*
X254Y144D02*
X260Y144D01*
X278Y144D02*
X308Y144D01*
X602Y144D02*
X609Y144D01*
X0Y143D02*
X7Y143D01*
X126Y143D02*
X132Y143D01*
X153Y143D02*
X159Y143D01*
X190Y143D02*
X196Y143D01*
X226Y143D02*
X232Y143D01*
X237Y143D02*
X243Y143D01*
X254Y143D02*
X260Y143D01*
X278Y143D02*
X309Y143D01*
X602Y143D02*
X609Y143D01*
X0Y142D02*
X7Y142D01*
X126Y142D02*
X132Y142D01*
X153Y142D02*
X159Y142D01*
X190Y142D02*
X196Y142D01*
X226Y142D02*
X232Y142D01*
X237Y142D02*
X244Y142D01*
X254Y142D02*
X260Y142D01*
X277Y142D02*
X309Y142D01*
X602Y142D02*
X609Y142D01*
X0Y141D02*
X7Y141D01*
X126Y141D02*
X132Y141D01*
X153Y141D02*
X159Y141D01*
X190Y141D02*
X196Y141D01*
X226Y141D02*
X232Y141D01*
X237Y141D02*
X244Y141D01*
X254Y141D02*
X260Y141D01*
X277Y141D02*
X284Y141D01*
X303Y141D02*
X309Y141D01*
X602Y141D02*
X609Y141D01*
X0Y140D02*
X7Y140D01*
X126Y140D02*
X132Y140D01*
X153Y140D02*
X159Y140D01*
X190Y140D02*
X196Y140D01*
X226Y140D02*
X232Y140D01*
X238Y140D02*
X245Y140D01*
X254Y140D02*
X260Y140D01*
X277Y140D02*
X283Y140D01*
X304Y140D02*
X308Y140D01*
X602Y140D02*
X609Y140D01*
X0Y139D02*
X7Y139D01*
X126Y139D02*
X132Y139D01*
X153Y139D02*
X159Y139D01*
X190Y139D02*
X196Y139D01*
X226Y139D02*
X232Y139D01*
X238Y139D02*
X245Y139D01*
X254Y139D02*
X260Y139D01*
X277Y139D02*
X283Y139D01*
X305Y139D02*
X307Y139D01*
X602Y139D02*
X609Y139D01*
X0Y138D02*
X7Y138D01*
X126Y138D02*
X132Y138D01*
X152Y138D02*
X159Y138D01*
X190Y138D02*
X196Y138D01*
X226Y138D02*
X232Y138D01*
X239Y138D02*
X245Y138D01*
X254Y138D02*
X260Y138D01*
X277Y138D02*
X284Y138D01*
X602Y138D02*
X609Y138D01*
X0Y137D02*
X7Y137D01*
X126Y137D02*
X132Y137D01*
X150Y137D02*
X159Y137D01*
X190Y137D02*
X196Y137D01*
X226Y137D02*
X232Y137D01*
X239Y137D02*
X246Y137D01*
X254Y137D02*
X260Y137D01*
X278Y137D02*
X286Y137D01*
X602Y137D02*
X609Y137D01*
X0Y136D02*
X7Y136D01*
X126Y136D02*
X158Y136D01*
X190Y136D02*
X196Y136D01*
X226Y136D02*
X232Y136D01*
X240Y136D02*
X246Y136D01*
X254Y136D02*
X260Y136D01*
X278Y136D02*
X289Y136D01*
X602Y136D02*
X609Y136D01*
X0Y135D02*
X7Y135D01*
X126Y135D02*
X158Y135D01*
X190Y135D02*
X196Y135D01*
X226Y135D02*
X232Y135D01*
X240Y135D02*
X247Y135D01*
X254Y135D02*
X260Y135D01*
X279Y135D02*
X291Y135D01*
X602Y135D02*
X609Y135D01*
X0Y134D02*
X7Y134D01*
X126Y134D02*
X157Y134D01*
X190Y134D02*
X196Y134D01*
X226Y134D02*
X232Y134D01*
X240Y134D02*
X247Y134D01*
X254Y134D02*
X260Y134D01*
X279Y134D02*
X293Y134D01*
X602Y134D02*
X609Y134D01*
X0Y133D02*
X7Y133D01*
X126Y133D02*
X156Y133D01*
X190Y133D02*
X196Y133D01*
X226Y133D02*
X232Y133D01*
X241Y133D02*
X248Y133D01*
X254Y133D02*
X260Y133D01*
X280Y133D02*
X296Y133D01*
X602Y133D02*
X609Y133D01*
X0Y132D02*
X7Y132D01*
X126Y132D02*
X155Y132D01*
X190Y132D02*
X196Y132D01*
X226Y132D02*
X232Y132D01*
X241Y132D02*
X248Y132D01*
X254Y132D02*
X260Y132D01*
X282Y132D02*
X298Y132D01*
X602Y132D02*
X609Y132D01*
X0Y131D02*
X7Y131D01*
X126Y131D02*
X153Y131D01*
X190Y131D02*
X196Y131D01*
X226Y131D02*
X232Y131D01*
X242Y131D02*
X249Y131D01*
X254Y131D02*
X260Y131D01*
X284Y131D02*
X300Y131D01*
X602Y131D02*
X609Y131D01*
X0Y130D02*
X7Y130D01*
X126Y130D02*
X150Y130D01*
X190Y130D02*
X196Y130D01*
X226Y130D02*
X232Y130D01*
X242Y130D02*
X249Y130D01*
X254Y130D02*
X260Y130D01*
X286Y130D02*
X303Y130D01*
X602Y130D02*
X609Y130D01*
X0Y129D02*
X7Y129D01*
X126Y129D02*
X132Y129D01*
X190Y129D02*
X196Y129D01*
X226Y129D02*
X232Y129D01*
X243Y129D02*
X249Y129D01*
X254Y129D02*
X260Y129D01*
X288Y129D02*
X304Y129D01*
X602Y129D02*
X609Y129D01*
X0Y128D02*
X7Y128D01*
X126Y128D02*
X132Y128D01*
X190Y128D02*
X196Y128D01*
X226Y128D02*
X232Y128D01*
X243Y128D02*
X250Y128D01*
X254Y128D02*
X260Y128D01*
X291Y128D02*
X306Y128D01*
X602Y128D02*
X609Y128D01*
X0Y127D02*
X7Y127D01*
X126Y127D02*
X132Y127D01*
X190Y127D02*
X196Y127D01*
X226Y127D02*
X232Y127D01*
X244Y127D02*
X250Y127D01*
X254Y127D02*
X260Y127D01*
X293Y127D02*
X307Y127D01*
X602Y127D02*
X609Y127D01*
X0Y126D02*
X7Y126D01*
X126Y126D02*
X132Y126D01*
X190Y126D02*
X196Y126D01*
X226Y126D02*
X232Y126D01*
X244Y126D02*
X251Y126D01*
X254Y126D02*
X260Y126D01*
X295Y126D02*
X308Y126D01*
X602Y126D02*
X609Y126D01*
X0Y125D02*
X7Y125D01*
X126Y125D02*
X132Y125D01*
X190Y125D02*
X196Y125D01*
X226Y125D02*
X232Y125D01*
X244Y125D02*
X251Y125D01*
X254Y125D02*
X260Y125D01*
X298Y125D02*
X308Y125D01*
X602Y125D02*
X609Y125D01*
X0Y124D02*
X7Y124D01*
X126Y124D02*
X132Y124D01*
X190Y124D02*
X196Y124D01*
X226Y124D02*
X232Y124D01*
X245Y124D02*
X252Y124D01*
X254Y124D02*
X260Y124D01*
X300Y124D02*
X309Y124D01*
X602Y124D02*
X609Y124D01*
X0Y123D02*
X7Y123D01*
X126Y123D02*
X132Y123D01*
X190Y123D02*
X196Y123D01*
X226Y123D02*
X232Y123D01*
X245Y123D02*
X252Y123D01*
X254Y123D02*
X260Y123D01*
X302Y123D02*
X309Y123D01*
X602Y123D02*
X609Y123D01*
X0Y122D02*
X7Y122D01*
X126Y122D02*
X132Y122D01*
X190Y122D02*
X196Y122D01*
X226Y122D02*
X232Y122D01*
X246Y122D02*
X260Y122D01*
X303Y122D02*
X309Y122D01*
X602Y122D02*
X609Y122D01*
X0Y121D02*
X7Y121D01*
X126Y121D02*
X132Y121D01*
X190Y121D02*
X196Y121D01*
X226Y121D02*
X232Y121D01*
X246Y121D02*
X260Y121D01*
X303Y121D02*
X310Y121D01*
X602Y121D02*
X609Y121D01*
X0Y120D02*
X7Y120D01*
X126Y120D02*
X132Y120D01*
X190Y120D02*
X196Y120D01*
X226Y120D02*
X232Y120D01*
X247Y120D02*
X260Y120D01*
X304Y120D02*
X310Y120D01*
X602Y120D02*
X609Y120D01*
X0Y119D02*
X7Y119D01*
X126Y119D02*
X132Y119D01*
X190Y119D02*
X196Y119D01*
X226Y119D02*
X232Y119D01*
X247Y119D02*
X260Y119D01*
X279Y119D02*
X280Y119D01*
X303Y119D02*
X310Y119D01*
X602Y119D02*
X609Y119D01*
X0Y118D02*
X7Y118D01*
X126Y118D02*
X132Y118D01*
X190Y118D02*
X196Y118D01*
X226Y118D02*
X232Y118D01*
X248Y118D02*
X260Y118D01*
X277Y118D02*
X281Y118D01*
X303Y118D02*
X310Y118D01*
X602Y118D02*
X609Y118D01*
X0Y117D02*
X7Y117D01*
X126Y117D02*
X132Y117D01*
X190Y117D02*
X196Y117D01*
X226Y117D02*
X232Y117D01*
X248Y117D02*
X260Y117D01*
X277Y117D02*
X283Y117D01*
X302Y117D02*
X309Y117D01*
X602Y117D02*
X609Y117D01*
X0Y116D02*
X7Y116D01*
X126Y116D02*
X132Y116D01*
X178Y116D02*
X207Y116D01*
X226Y116D02*
X232Y116D01*
X248Y116D02*
X260Y116D01*
X276Y116D02*
X309Y116D01*
X602Y116D02*
X609Y116D01*
X0Y115D02*
X7Y115D01*
X126Y115D02*
X132Y115D01*
X177Y115D02*
X209Y115D01*
X226Y115D02*
X232Y115D01*
X249Y115D02*
X260Y115D01*
X276Y115D02*
X308Y115D01*
X602Y115D02*
X609Y115D01*
X0Y114D02*
X7Y114D01*
X126Y114D02*
X132Y114D01*
X176Y114D02*
X209Y114D01*
X226Y114D02*
X232Y114D01*
X249Y114D02*
X260Y114D01*
X277Y114D02*
X308Y114D01*
X602Y114D02*
X609Y114D01*
X0Y113D02*
X7Y113D01*
X126Y113D02*
X132Y113D01*
X176Y113D02*
X209Y113D01*
X226Y113D02*
X232Y113D01*
X250Y113D02*
X260Y113D01*
X278Y113D02*
X307Y113D01*
X602Y113D02*
X609Y113D01*
X0Y112D02*
X7Y112D01*
X126Y112D02*
X132Y112D01*
X176Y112D02*
X209Y112D01*
X226Y112D02*
X232Y112D01*
X250Y112D02*
X260Y112D01*
X279Y112D02*
X306Y112D01*
X602Y112D02*
X609Y112D01*
X0Y111D02*
X7Y111D01*
X126Y111D02*
X131Y111D01*
X176Y111D02*
X209Y111D01*
X227Y111D02*
X232Y111D01*
X251Y111D02*
X260Y111D01*
X280Y111D02*
X305Y111D01*
X602Y111D02*
X609Y111D01*
X0Y110D02*
X7Y110D01*
X127Y110D02*
X130Y110D01*
X177Y110D02*
X208Y110D01*
X227Y110D02*
X231Y110D01*
X251Y110D02*
X260Y110D01*
X283Y110D02*
X303Y110D01*
X602Y110D02*
X609Y110D01*
X0Y109D02*
X7Y109D01*
X602Y109D02*
X609Y109D01*
X0Y108D02*
X7Y108D01*
X602Y108D02*
X609Y108D01*
X0Y107D02*
X7Y107D01*
X602Y107D02*
X609Y107D01*
X0Y106D02*
X7Y106D01*
X602Y106D02*
X609Y106D01*
X0Y105D02*
X7Y105D01*
X602Y105D02*
X609Y105D01*
X0Y104D02*
X7Y104D01*
X602Y104D02*
X609Y104D01*
X0Y103D02*
X7Y103D01*
X602Y103D02*
X609Y103D01*
X0Y102D02*
X7Y102D01*
X602Y102D02*
X609Y102D01*
X0Y101D02*
X7Y101D01*
X602Y101D02*
X609Y101D01*
X0Y100D02*
X7Y100D01*
X602Y100D02*
X609Y100D01*
X0Y99D02*
X7Y99D01*
X602Y99D02*
X609Y99D01*
X0Y98D02*
X7Y98D01*
X602Y98D02*
X609Y98D01*
X0Y97D02*
X7Y97D01*
X602Y97D02*
X609Y97D01*
X0Y96D02*
X7Y96D01*
X602Y96D02*
X609Y96D01*
X0Y95D02*
X7Y95D01*
X602Y95D02*
X609Y95D01*
X0Y94D02*
X7Y94D01*
X602Y94D02*
X609Y94D01*
X0Y93D02*
X7Y93D01*
X602Y93D02*
X609Y93D01*
X0Y92D02*
X7Y92D01*
X602Y92D02*
X609Y92D01*
X0Y91D02*
X7Y91D01*
X602Y91D02*
X609Y91D01*
X0Y90D02*
X7Y90D01*
X602Y90D02*
X609Y90D01*
X0Y89D02*
X7Y89D01*
X602Y89D02*
X609Y89D01*
X0Y88D02*
X7Y88D01*
X602Y88D02*
X609Y88D01*
X0Y87D02*
X7Y87D01*
X602Y87D02*
X609Y87D01*
X0Y86D02*
X7Y86D01*
X602Y86D02*
X609Y86D01*
X0Y85D02*
X7Y85D01*
X602Y85D02*
X609Y85D01*
X0Y84D02*
X7Y84D01*
X602Y84D02*
X609Y84D01*
X0Y83D02*
X7Y83D01*
X602Y83D02*
X609Y83D01*
X0Y82D02*
X7Y82D01*
X602Y82D02*
X609Y82D01*
X0Y81D02*
X7Y81D01*
X602Y81D02*
X609Y81D01*
X0Y80D02*
X7Y80D01*
X602Y80D02*
X609Y80D01*
X0Y79D02*
X7Y79D01*
X602Y79D02*
X609Y79D01*
X0Y78D02*
X7Y78D01*
X602Y78D02*
X609Y78D01*
X0Y77D02*
X7Y77D01*
X602Y77D02*
X609Y77D01*
X0Y76D02*
X7Y76D01*
X602Y76D02*
X609Y76D01*
X0Y75D02*
X7Y75D01*
X602Y75D02*
X609Y75D01*
X0Y74D02*
X7Y74D01*
X602Y74D02*
X609Y74D01*
X0Y73D02*
X7Y73D01*
X602Y73D02*
X609Y73D01*
X0Y72D02*
X7Y72D01*
X602Y72D02*
X609Y72D01*
X0Y71D02*
X7Y71D01*
X602Y71D02*
X609Y71D01*
X0Y70D02*
X7Y70D01*
X602Y70D02*
X609Y70D01*
X0Y69D02*
X7Y69D01*
X602Y69D02*
X609Y69D01*
X0Y68D02*
X7Y68D01*
X602Y68D02*
X609Y68D01*
X0Y67D02*
X7Y67D01*
X602Y67D02*
X609Y67D01*
X0Y66D02*
X7Y66D01*
X602Y66D02*
X609Y66D01*
X0Y65D02*
X7Y65D01*
X602Y65D02*
X609Y65D01*
X0Y64D02*
X7Y64D01*
X602Y64D02*
X609Y64D01*
X0Y63D02*
X7Y63D01*
X602Y63D02*
X609Y63D01*
X0Y62D02*
X7Y62D01*
X602Y62D02*
X609Y62D01*
X0Y61D02*
X7Y61D01*
X602Y61D02*
X609Y61D01*
X0Y60D02*
X7Y60D01*
X602Y60D02*
X609Y60D01*
X0Y59D02*
X7Y59D01*
X602Y59D02*
X609Y59D01*
X0Y58D02*
X7Y58D01*
X602Y58D02*
X609Y58D01*
X0Y57D02*
X7Y57D01*
X602Y57D02*
X609Y57D01*
X0Y56D02*
X7Y56D01*
X602Y56D02*
X609Y56D01*
X0Y55D02*
X7Y55D01*
X602Y55D02*
X609Y55D01*
X0Y54D02*
X7Y54D01*
X602Y54D02*
X609Y54D01*
X0Y53D02*
X7Y53D01*
X602Y53D02*
X609Y53D01*
X0Y52D02*
X7Y52D01*
X602Y52D02*
X609Y52D01*
X0Y51D02*
X7Y51D01*
X602Y51D02*
X609Y51D01*
X0Y50D02*
X7Y50D01*
X602Y50D02*
X609Y50D01*
X0Y49D02*
X7Y49D01*
X602Y49D02*
X609Y49D01*
X0Y48D02*
X7Y48D01*
X602Y48D02*
X609Y48D01*
X0Y47D02*
X7Y47D01*
X602Y47D02*
X609Y47D01*
X0Y46D02*
X7Y46D01*
X602Y46D02*
X609Y46D01*
X0Y45D02*
X7Y45D01*
X602Y45D02*
X609Y45D01*
X0Y44D02*
X7Y44D01*
X602Y44D02*
X609Y44D01*
X0Y43D02*
X7Y43D01*
X602Y43D02*
X609Y43D01*
X0Y42D02*
X7Y42D01*
X602Y42D02*
X609Y42D01*
X0Y41D02*
X7Y41D01*
X602Y41D02*
X609Y41D01*
X0Y40D02*
X7Y40D01*
X602Y40D02*
X609Y40D01*
X0Y39D02*
X7Y39D01*
X602Y39D02*
X609Y39D01*
X0Y38D02*
X7Y38D01*
X602Y38D02*
X609Y38D01*
X0Y37D02*
X7Y37D01*
X602Y37D02*
X609Y37D01*
X0Y36D02*
X7Y36D01*
X602Y36D02*
X609Y36D01*
X0Y35D02*
X7Y35D01*
X602Y35D02*
X609Y35D01*
X0Y34D02*
X7Y34D01*
X602Y34D02*
X609Y34D01*
X0Y33D02*
X7Y33D01*
X602Y33D02*
X609Y33D01*
X0Y32D02*
X7Y32D01*
X602Y32D02*
X609Y32D01*
X0Y31D02*
X7Y31D01*
X602Y31D02*
X609Y31D01*
X0Y30D02*
X7Y30D01*
X602Y30D02*
X609Y30D01*
X0Y29D02*
X7Y29D01*
X602Y29D02*
X609Y29D01*
X0Y28D02*
X7Y28D01*
X602Y28D02*
X609Y28D01*
X0Y27D02*
X7Y27D01*
X602Y27D02*
X609Y27D01*
X0Y26D02*
X7Y26D01*
X602Y26D02*
X609Y26D01*
X0Y25D02*
X7Y25D01*
X602Y25D02*
X609Y25D01*
X0Y24D02*
X7Y24D01*
X602Y24D02*
X609Y24D01*
X0Y23D02*
X7Y23D01*
X602Y23D02*
X609Y23D01*
X0Y22D02*
X7Y22D01*
X602Y22D02*
X609Y22D01*
X0Y21D02*
X7Y21D01*
X602Y21D02*
X609Y21D01*
X0Y20D02*
X7Y20D01*
X602Y20D02*
X609Y20D01*
X0Y19D02*
X7Y19D01*
X602Y19D02*
X609Y19D01*
X0Y18D02*
X7Y18D01*
X602Y18D02*
X609Y18D01*
X0Y17D02*
X7Y17D01*
X602Y17D02*
X609Y17D01*
X0Y16D02*
X7Y16D01*
X602Y16D02*
X609Y16D01*
X0Y15D02*
X7Y15D01*
X602Y15D02*
X609Y15D01*
X0Y14D02*
X7Y14D01*
X602Y14D02*
X609Y14D01*
X0Y13D02*
X7Y13D01*
X602Y13D02*
X609Y13D01*
X0Y12D02*
X7Y12D01*
X602Y12D02*
X609Y12D01*
X0Y11D02*
X7Y11D01*
X602Y11D02*
X609Y11D01*
X0Y10D02*
X7Y10D01*
X602Y10D02*
X609Y10D01*
X0Y9D02*
X609Y9D01*
X0Y8D02*
X609Y8D01*
X0Y7D02*
X609Y7D01*
X0Y6D02*
X609Y6D01*
X0Y5D02*
X609Y5D01*
X0Y4D02*
X609Y4D01*
X0Y3D02*
X609Y3D01*
X0Y2D02*
X609Y2D01*
D02*
G04 End of Silk1*
M02*